<?xml version="1.0" standalone="no"?>
<!DOCTYPE svg PUBLIC "-//W3C//DTD SVG 1.1//EN" "http://www.w3.org/Graphics/SVG/1.1/DTD/svg11.dtd" >
<svg xmlns="http://www.w3.org/2000/svg" xmlns:xlink="http://www.w3.org/1999/xlink" version="1.1">
<metadata>
Created by FontForge 20170731 at Thu Aug 16 18:07:15 2007
 By Aleksey,,,
(c) 1989, 1990, 1999, 2002 Adobe Systems Incorporated. All rights reserved.
</metadata>
<defs>
<font id="EurostileLTStd-Cn" horiz-adv-x="463" >
  <font-face 
    font-family="Eurostile LT Std Condensed"
    font-weight="400"
    font-stretch="condensed"
    units-per-em="1000"
    panose-1="2 11 4 6 2 2 2 6 2 4"
    ascent="750"
    descent="-250"
    x-height="510"
    cap-height="724"
    bbox="-167 -208 1000 956"
    underline-thickness="50"
    underline-position="-200"
    unicode-range="U+0020-FB02"
  />
<missing-glyph horiz-adv-x="500" 
d="M0 0v700h500v-700h-500zM250 395l170 255h-340zM280 350l170 -255v510zM80 50h340l-170 255zM50 605v-510l170 255z" />
    <glyph glyph-name="f_i" unicode="fi" horiz-adv-x="481" 
d="M88 0v452h-63v58h63v92q0 69 32.5 99.5t100.5 30.5q15 0 45 -2v-57q-14 1 -42 1q-35 0 -53.5 -15.5t-18.5 -56.5v-92h112v-58h-112v-452h-64zM347 0v510h64v-510h-64zM347 639v85h64v-85h-64z" />
    <glyph glyph-name="f_l" unicode="fl" horiz-adv-x="481" 
d="M347 0v724h64v-724h-64zM88 0v452h-63v58h63v92q0 69 32.5 99.5t100.5 30.5q15 0 45 -2v-57q-14 1 -42 1q-35 0 -53.5 -15.5t-18.5 -56.5v-92h112v-58h-112v-452h-64z" />
    <glyph glyph-name=".notdef" horiz-adv-x="500" 
d="M0 0v700h500v-700h-500zM250 395l170 255h-340zM280 350l170 -255v510zM80 50h340l-170 255zM50 605v-510l170 255z" />
    <glyph glyph-name=".null" horiz-adv-x="0" 
 />
    <glyph glyph-name="nonmarkingreturn" horiz-adv-x="333" 
 />
    <glyph glyph-name="space" unicode=" " horiz-adv-x="278" 
 />
    <glyph glyph-name="exclam" unicode="!" horiz-adv-x="222" 
d="M76 196v528h70v-528h-70zM76 0v92h70v-92h-70z" />
    <glyph glyph-name="quotedbl" unicode="&#x22;" horiz-adv-x="296" 
d="M59 524v200h58v-200h-58zM179 524v200h58v-200h-58z" />
    <glyph glyph-name="numbersign" unicode="#" horiz-adv-x="556" 
d="M215 441l-22 -158h146l22 158h-146zM98 0l33 231h-107v52h114l22 158h-107v52h114l33 231h57l-35 -231h146l33 231h57l-33 -231h107v-52h-114l-22 -158h107v-52h-114l-33 -231h-57l33 231h-146l-31 -231h-57z" />
    <glyph glyph-name="dollar" unicode="$" horiz-adv-x="556" 
d="M312 332v-277q87 1 110 28.5t23 119.5q0 46 -2.5 66t-17 36.5t-39 20.5t-74.5 6zM254 403v265q-82 0 -107 -24.5t-25 -109.5q0 -78 23 -102.5t109 -28.5zM254 -110v102h-27q-102 0 -141 41.5t-39 136.5v57h64v-55q0 -69 22.5 -92.5t96.5 -23.5h24v279q-120 8 -158 47.5
t-38 159.5q0 108 37 149t137 41h22v89h58v-89q60 -2 92.5 -8t58 -25t34.5 -53t9 -92v-32h-64v19q0 47 -4 71t-21 37t-37.5 16t-67.5 3v-266q65 -4 100 -12t58.5 -31t31 -60t7.5 -103q0 -117 -40 -160.5t-157 -43.5v-102h-58z" />
    <glyph glyph-name="percent" unicode="%" horiz-adv-x="796" 
d="M546 259v-79q0 -88 12 -109t68 -21t68 21t12 109v79q0 88 -12 109t-68 21t-68 -21t-12 -109zM147 -8l443 740h58l-443 -740h-58zM90 544v-79q0 -88 12 -109t68 -21t68 21t12 109v79q0 88 -12 109t-68 21t-68 -21t-12 -109zM488 113v213q0 63 27.5 92t110.5 29t110.5 -29
t27.5 -92v-213q0 -63 -27.5 -92t-110.5 -29t-110.5 29t-27.5 92zM32 398v213q0 63 27.5 92t110.5 29t110.5 -29t27.5 -92v-213q0 -63 -27.5 -92t-110.5 -29t-110.5 29t-27.5 92z" />
    <glyph glyph-name="ampersand" unicode="&#x26;" horiz-adv-x="556" 
d="M131 283v-121q0 -58 27.5 -79t101.5 -21q62 0 86.5 16.5t24.5 56.5v28l-153 186q-5 9 -23 9q-28 0 -46 -18.5t-18 -56.5zM508 0l-75 87q-14 -56 -54.5 -75.5t-125.5 -19.5q-66 0 -102.5 8.5t-57.5 37t-26.5 68.5t-5.5 116q0 79 14 124t34 59t53 17q-50 65 -61 90
q-13 31 -13 73q0 43 5.5 68.5t23 44.5t49.5 26.5t84 7.5q47 0 79 -7.5t49 -17.5t25.5 -30t10 -36t1.5 -45v-61h-64v65q0 29 -20 45.5t-75 16.5q-59 0 -81.5 -14.5t-22.5 -67.5q0 -40 38 -86l192 -236v146h70v-229l109 -126z" />
    <glyph glyph-name="quotesingle" unicode="'" horiz-adv-x="168" 
d="M55 524v200h58v-200h-58z" />
    <glyph glyph-name="parenleft" unicode="(" horiz-adv-x="296" 
d="M247 732v-64q-53 0 -73.5 -25t-21.5 -78v-406q1 -53 21.5 -78t73.5 -25v-64q-90 0 -124.5 47t-34.5 185v276q0 138 34.5 185t124.5 47z" />
    <glyph glyph-name="parenright" unicode=")" horiz-adv-x="296" 
d="M49 -8v64q53 0 73.5 25t21.5 78v406q-1 53 -21.5 78t-73.5 25v64q90 0 124.5 -47t34.5 -185v-276q0 -138 -34.5 -185t-124.5 -47z" />
    <glyph glyph-name="asterisk" unicode="*" horiz-adv-x="462" 
d="M184 588l-60 125l44 19l54 -121zM124 375l60 125l38 -23l-54 -121zM294 356l-54 121l38 23l60 -125zM240 611l54 121l44 -19l-60 -125zM405 521h-120v46h120v-46zM177 521h-120v46h120v-46z" />
    <glyph glyph-name="plus" unicode="+" horiz-adv-x="600" 
d="M47 224v58h224v224h58v-224h224v-58h-224v-224h-58v224h-224z" />
    <glyph glyph-name="comma" unicode="," horiz-adv-x="278" 
d="M104 0v92h70v-109q0 -59 -16.5 -75t-59.5 -16v40q21 0 28.5 12t7.5 56h-30z" />
    <glyph glyph-name="hyphen" unicode="-" horiz-adv-x="296" 
d="M38 236v58h220v-58h-220z" />
    <glyph glyph-name="period" unicode="." horiz-adv-x="278" 
d="M104 0v92h70v-92h-70z" />
    <glyph glyph-name="slash" unicode="/" horiz-adv-x="296" 
d="M-32 -8l298 740h62l-298 -740h-62z" />
    <glyph glyph-name="zero" unicode="0" horiz-adv-x="556" 
d="M508 507v-290q0 -74 -11.5 -118.5t-42 -68t-69.5 -31t-107 -7.5t-107 7.5t-69.5 31t-42 68t-11.5 118.5v290q0 74 11.5 118.5t42 68t69.5 31t107 7.5t107 -7.5t69.5 -31t42 -68t11.5 -118.5zM438 196v332q0 34 -2.5 56t-11.5 37.5t-17.5 23t-31 12t-41 5t-56.5 0.5
t-56.5 -0.5t-41 -5t-31 -12t-17.5 -23t-11.5 -37.5t-2.5 -56v-332q0 -34 2.5 -56t11.5 -37.5t17.5 -23t31 -12t41 -5t56.5 -0.5t56.5 0.5t41 5t31 12t17.5 23t11.5 37.5t2.5 56z" />
    <glyph glyph-name="one" unicode="1" horiz-adv-x="556" 
d="M280 0v654h-2l-148 -189l-47 43l174 216h93v-724h-70z" />
    <glyph glyph-name="two" unicode="2" horiz-adv-x="556" 
d="M54 0v128q0 122 44.5 162t182.5 53q55 5 81 11.5t44 26.5t22 49.5t4 88.5q0 90 -27 116.5t-127 26.5q-55 0 -84 -4.5t-46.5 -20.5t-21.5 -39.5t-4 -70.5v-35h-64v43q0 35 2 57t8.5 47.5t21.5 40t39 28t62 19t90 5.5q66 0 105.5 -8t67 -31.5t38 -64.5t10.5 -108
q0 -54 -3 -86t-14.5 -65t-33.5 -50.5t-60.5 -29.5t-95.5 -16q-77 -5 -114 -20.5t-47 -39t-10 -70.5v-73h373v-70h-443z" />
    <glyph glyph-name="three" unicode="3" horiz-adv-x="556" 
d="M235 335v64q50 0 75.5 1t52.5 5.5t37.5 12.5t20 25t11.5 39t2 58q0 28 -1 42.5t-5.5 31t-13.5 23.5t-26.5 14t-42.5 9t-62 2q-39 0 -59 -1t-42 -6.5t-31.5 -16.5t-16 -30t-6.5 -49v-56h-64v63q0 56 14 90.5t45.5 50.5t64 20.5t87.5 4.5q79 0 125 -9.5t69 -36.5t29 -58.5
t6 -91.5q0 -73 -18.5 -112t-67.5 -53v-2q32 -10 49 -22t29 -46t12 -92q0 -48 -2 -75.5t-10 -55.5t-22 -41.5t-39.5 -25t-62 -15.5t-89.5 -4q-143 0 -189 37t-46 154v50h64q0 -45 0.5 -65.5t6 -45t14.5 -32.5t29 -16.5t45.5 -10t68.5 -1.5q41 0 65.5 1.5t44 8t29 14.5
t15.5 26.5t7 38t1 54.5q0 26 -1 42.5t-6 31.5t-9 23.5t-18 15.5t-24.5 10t-36.5 5t-46.5 2h-61.5z" />
    <glyph glyph-name="four" unicode="4" horiz-adv-x="556" 
d="M364 234v420h-2l-283 -420h285zM364 0v164h-343v100l309 460h104v-490h91v-70h-91v-164h-70z" />
    <glyph glyph-name="five" unicode="5" horiz-adv-x="556" 
d="M66 362v362h414v-64h-344v-220h2q25 35 57 45.5t98 10.5q69 0 110.5 -13t64 -46t29.5 -76t7 -117q0 -85 -9 -132.5t-37.5 -75.5t-69.5 -36t-117 -8q-40 0 -70 3.5t-59.5 13.5t-48 27.5t-30 46.5t-11.5 70v54h64q0 -51 3.5 -75t21 -42.5t48 -23t88.5 -4.5q40 0 64.5 2
t43 11t27.5 19t14.5 34.5t6.5 47.5t1 68q0 31 -0.5 47t-2.5 38t-6 32.5t-12 24t-19.5 19t-28.5 11.5t-39.5 8t-52.5 2q-74 0 -103 -11t-44 -53h-60z" />
    <glyph glyph-name="six" unicode="6" horiz-adv-x="556" 
d="M493 546h-64q-2 28 -3.5 43t-7.5 30.5t-14 22t-25 12t-38.5 7t-55.5 1.5q-43 0 -67 -2t-46 -9.5t-32 -23.5t-16 -42t-6 -66v-141h2q29 42 63.5 53t109.5 11q132 0 173.5 -43t41.5 -182q0 -74 -11.5 -118.5t-42 -68t-69.5 -31t-107 -7.5t-107 7.5t-69.5 31t-42 68
t-11.5 118.5v290q0 74 11.5 118.5t42 68t69.5 31t107 7.5q127 0 171 -36.5t44 -149.5zM438 220q0 58 -5 88t-25 46.5t-46.5 20t-83.5 3.5q-58 0 -85.5 -4t-46.5 -21.5t-23.5 -46.5t-4.5 -86q0 -58 5 -88t25 -46.5t46.5 -20t83.5 -3.5t83.5 3.5t46.5 20t25 46.5t5 88z" />
    <glyph glyph-name="seven" unicode="7" horiz-adv-x="556" 
d="M115 0l319 654h-386v70h444v-106l-303 -618h-74z" />
    <glyph glyph-name="eight" unicode="8" horiz-adv-x="556" 
d="M118 202q0 -93 27.5 -116.5t132.5 -23.5t132.5 23.5t27.5 116.5t-27.5 116.5t-132.5 23.5t-132.5 -23.5t-27.5 -116.5zM122 537q0 -24 0.5 -34.5t2 -27.5t5.5 -23.5t11.5 -17t18.5 -14t28 -8t38.5 -5.5t51.5 -1t51.5 1t38.5 5.5t28 8t18.5 14t11.5 17t5.5 23.5t2 27.5
t0.5 34.5t-0.5 34.5t-2 27.5t-5.5 23.5t-11.5 17t-18.5 14t-28 8t-38.5 5.5t-51.5 1t-51.5 -1t-38.5 -5.5t-28 -8t-18.5 -14t-11.5 -17t-5.5 -23.5t-2 -27.5t-0.5 -34.5zM48 194q0 85 16.5 123.5t72.5 57.5v2q-48 16 -63.5 53t-15.5 108v30q0 103 44.5 133.5t175.5 30.5
t175.5 -30.5t44.5 -133.5v-30q0 -71 -15.5 -108t-63.5 -53v-2q56 -19 72.5 -57.5t16.5 -123.5q0 -46 -5 -79t-18 -55.5t-29 -35.5t-44.5 -20.5t-58 -9.5t-75.5 -2t-75.5 2t-58 9.5t-44.5 20.5t-29 35.5t-18 55.5t-5 79z" />
    <glyph glyph-name="nine" unicode="9" horiz-adv-x="556" 
d="M63 178h64q2 -28 3.5 -43t7.5 -30.5t14 -22t25 -12t38.5 -7t55.5 -1.5q43 0 67 2t46 9.5t32 23.5t16 42t6 66v141h-2q-29 -42 -63.5 -53t-109.5 -11q-132 0 -173.5 43t-41.5 182q0 74 11.5 118.5t42 68t69.5 31t107 7.5t107 -7.5t69.5 -31t42 -68t11.5 -118.5v-290
q0 -74 -11.5 -118.5t-42 -68t-69.5 -31t-107 -7.5q-127 0 -171 36.5t-44 149.5zM118 504q0 -58 5 -88t25 -46.5t46.5 -20t83.5 -3.5q58 0 85.5 4t46.5 21.5t23.5 46.5t4.5 86q0 58 -5 88t-25 46.5t-46.5 20t-83.5 3.5t-83.5 -3.5t-46.5 -20t-25 -46.5t-5 -88z" />
    <glyph glyph-name="colon" unicode=":" horiz-adv-x="278" 
d="M104 389v92h70v-92h-70zM104 0v92h70v-92h-70z" />
    <glyph glyph-name="semicolon" unicode=";" horiz-adv-x="278" 
d="M104 0v92h70v-109q0 -59 -16.5 -75t-59.5 -16v40q21 0 28.5 12t7.5 56h-30zM104 389v92h70v-92h-70z" />
    <glyph glyph-name="less" unicode="&#x3c;" horiz-adv-x="600" 
d="M553 514v-62l-435 -199l435 -199v-62l-506 232v58z" />
    <glyph glyph-name="equal" unicode="=" horiz-adv-x="600" 
d="M47 323v58h506v-58h-506zM47 125v58h506v-58h-506z" />
    <glyph glyph-name="greater" unicode="&#x3e;" horiz-adv-x="600" 
d="M47 -8v62l435 199l-435 199v62l506 -232v-58z" />
    <glyph glyph-name="question" unicode="?" horiz-adv-x="426" 
d="M25 501v76q0 43 11.5 73t27 45.5t43.5 24t49.5 10.5t56.5 2q62 0 100 -11t57 -36t25 -55t6 -80q0 -66 -4.5 -104.5t-19.5 -62t-30.5 -34t-49.5 -24.5q-59 -24 -72 -36t-13 -43v-50h-70v42q0 65 21 88t117 66q27 12 36.5 22.5t15 39.5t5.5 94q0 37 -2.5 54t-14 33.5
t-36 21.5t-68.5 5q-33 0 -50 -1t-34 -7t-23 -14.5t-12 -28.5t-7 -44t-1 -66h-64zM142 0v92h70v-92h-70z" />
    <glyph glyph-name="at" unicode="@" horiz-adv-x="800" 
d="M249 298q0 -45 27 -75.5t68 -30.5q66 0 116 76t50 157q0 45 -23 73.5t-63 28.5q-71 0 -123 -76.5t-52 -152.5zM544 496l24 64h62l-97 -287q-10 -29 -10 -56q0 -25 23 -25q60 0 113 76t53 156q0 115 -87 185.5t-208 70.5q-140 0 -234.5 -94t-94.5 -228q0 -133 94 -223.5
t239 -90.5q78 0 150.5 34t117.5 93h60q-48 -83 -138 -131t-190 -48q-174 0 -282.5 104.5t-108.5 268.5q0 152 113.5 259.5t271.5 107.5q148 0 251.5 -87.5t103.5 -219.5q0 -115 -79 -200t-163 -85q-27 0 -45.5 18t-23.5 49h-2q-55 -67 -139 -67q-60 0 -99.5 45t-39.5 111
q0 107 71.5 195t177.5 88q34 0 67 -19.5t49 -63.5z" />
    <glyph glyph-name="A" unicode="A" horiz-adv-x="574" 
d="M421 223l-129 431h-10l-129 -431h268zM490 0l-47 153h-312l-47 -153h-73l227 724h98l227 -724h-73z" />
    <glyph glyph-name="B" unicode="B" horiz-adv-x="574" 
d="M131 340v-270h200q78 0 100 27t22 108t-22 108t-100 27h-200zM131 654v-244h213q56 0 75.5 30t19.5 92q0 27 -1 41.5t-5.5 32.5t-14 26.5t-27 15t-43.5 6.5h-217zM61 0v724h285q97 0 130 -39.5t33 -132.5q0 -75 -14 -112t-61 -57v-2q56 -13 72.5 -54t16.5 -137
q0 -101 -38.5 -145.5t-138.5 -44.5h-285z" />
    <glyph glyph-name="C" unicode="C" horiz-adv-x="574" 
d="M531 241v-55q0 -117 -45.5 -155.5t-178.5 -38.5q-61 0 -100.5 5.5t-71.5 20.5t-49 43.5t-26 71.5t-9 107v244q0 64 9 107t26 71.5t49 43.5t71.5 20.5t100.5 5.5q66 0 103.5 -6t67.5 -25.5t41.5 -57t11.5 -100.5v-52h-64v47q0 81 -31.5 102.5t-128.5 21.5q-66 0 -99.5 -5
t-55 -26.5t-26.5 -54t-5 -96.5v-236q0 -64 5 -96.5t26.5 -54t55 -26.5t99.5 -5q55 0 86.5 6t48 23t21 39t4.5 63v48h64z" />
    <glyph glyph-name="D" unicode="D" horiz-adv-x="611" 
d="M61 0v724h277q35 0 63.5 -5t50 -12.5t38 -22t28 -29.5t19.5 -39t12.5 -44.5t7 -53.5t3 -59.5t0.5 -67.5q0 -65 -1.5 -105.5t-6 -87t-14.5 -73.5t-26.5 -54t-41.5 -40.5t-60 -22t-82 -8.5h-267zM131 654v-584h219q86 0 113 58.5t27 233.5q0 180 -26 236t-114 56h-219z" />
    <glyph glyph-name="E" unicode="E" horiz-adv-x="500" 
d="M61 0v724h388v-70h-318v-244h302v-70h-302v-270h316v-70h-386z" />
    <glyph glyph-name="F" unicode="F" 
d="M61 0v724h375v-70h-305v-254h293v-70h-293v-330h-70z" />
    <glyph glyph-name="G" unicode="G" horiz-adv-x="593" 
d="M289 286v70h258v-162q0 -48 -6.5 -82.5t-22 -56.5t-32.5 -35t-49 -19t-58.5 -7.5t-72.5 -1.5q-61 0 -100 5.5t-71 20.5t-49 43.5t-26 71.5t-9 107v244q0 64 9 107t26 71.5t49 43.5t71 20.5t100 5.5q49 0 80.5 -2.5t65 -11t52.5 -24t31 -43.5t12 -68v-73h-70v26
q0 83 -30 104.5t-141 21.5q-66 0 -99 -5t-54.5 -26.5t-26.5 -54t-5 -96.5v-236q0 -64 5 -96.5t26.5 -54t54.5 -26.5t99 -5q43 0 62 0.5t43.5 5.5t33 13.5t18.5 26t12 42.5t2 64v72h-188z" />
    <glyph glyph-name="H" unicode="H" horiz-adv-x="611" 
d="M61 0v724h70v-314h348v314h71v-724h-70v334h-349v-334h-70z" />
    <glyph glyph-name="I" unicode="I" horiz-adv-x="222" 
d="M76 0v724h70v-724h-70z" />
    <glyph glyph-name="J" unicode="J" 
d="M332 156v568h70v-570q0 -94 -45.5 -128t-143.5 -34t-143.5 34t-45.5 128v106h70v-104q0 -56 25 -75t94 -19t94 19t25 75z" />
    <glyph glyph-name="K" unicode="K" horiz-adv-x="537" 
d="M61 0v724h70v-314h65l245 314h87l-273 -350l303 -374h-90l-276 340h-61v-340h-70z" />
    <glyph glyph-name="L" unicode="L" 
d="M61 0v724h70v-648h305v-76h-375z" />
    <glyph glyph-name="M" unicode="M" horiz-adv-x="796" 
d="M61 0v724h117l219 -639h2l219 639h117v-724h-70v648h-2l-227 -648h-76l-227 648h-2v-648h-70z" />
    <glyph glyph-name="N" unicode="N" horiz-adv-x="630" 
d="M61 0v724h111l325 -648h2v648h70v-724h-111l-325 648h-2v-648h-70z" />
    <glyph glyph-name="O" unicode="O" horiz-adv-x="612" 
d="M491 244v236q0 64 -5 96.5t-26.5 54t-54.5 26.5t-99 5t-99 -5t-54.5 -26.5t-26.5 -54t-5 -96.5v-236q0 -64 5 -96.5t26.5 -54t54.5 -26.5t99 -5t99 5t54.5 26.5t26.5 54t5 96.5zM51 240v244q0 64 9 107t26 71.5t49 43.5t71 20.5t100 5.5t100 -5.5t71 -20.5t49 -43.5
t26 -71.5t9 -107v-244q0 -64 -9 -107t-26 -71.5t-49 -43.5t-71 -20.5t-100 -5.5t-100 5.5t-71 20.5t-49 43.5t-26 71.5t-9 107z" />
    <glyph glyph-name="P" unicode="P" horiz-adv-x="537" 
d="M131 654v-302h203q64 0 87.5 30.5t23.5 120.5q0 67 -9.5 99t-29.5 42t-61 10h-214zM61 0v724h304q87 0 118.5 -55.5t31.5 -165.5q0 -70 -13 -115.5t-40 -68t-58 -30t-78 -7.5h-195v-282h-70z" />
    <glyph glyph-name="Q" unicode="Q" horiz-adv-x="612" 
d="M121 480v-236q0 -48 1 -73.5t9 -49t17.5 -33t33.5 -17t50 -8.5t74 -1q84 0 119.5 7.5t48.5 34.5l-178 151l38 45l154 -130q3 19 3 74v236q0 48 -1 73.5t-9 49t-17.5 33t-33.5 17t-50 8.5t-74 1t-74 -1t-50 -8.5t-33.5 -17t-17.5 -33t-9 -49t-1 -73.5zM51 240v244
q0 81 11 128.5t42.5 75t76.5 36t125 8.5t125 -8.5t76.5 -36t42.5 -75t11 -128.5v-244q0 -77 -11 -122l52 -44l-38 -46l-36 31q-24 -39 -75.5 -53t-146.5 -14q-80 0 -125 8.5t-76.5 36t-42.5 75t-11 128.5z" />
    <glyph glyph-name="R" unicode="R" horiz-adv-x="593" 
d="M61 0v724h296q97 0 136 -43.5t39 -161.5q0 -93 -21 -136t-71 -56v-2q80 -22 80 -127v-198h-70v165q0 73 -28 99.5t-109 26.5h-182v-291h-70zM131 654v-293h227q54 0 79 35.5t25 110.5q0 70 -10 99.5t-33.5 38.5t-82.5 9h-205z" />
    <glyph glyph-name="S" unicode="S" horiz-adv-x="536" 
d="M44 171v56h64v-42q0 -80 28.5 -101.5t131.5 -21.5q57 0 82.5 2.5t44.5 18.5t23 42.5t4 80.5q0 42 -2 59t-16 35.5t-43 25t-83 11.5l-74 6q-91 7 -121.5 46.5t-30.5 144.5q0 67 10 105.5t38.5 59.5t65.5 27t104 6q132 0 173 -39t44 -165h-64v16q0 71 -31 94.5t-122 23.5
q-53 0 -81 -4t-44 -20.5t-19.5 -38t-3.5 -65.5q0 -78 26 -100.5t126 -29.5q74 -5 111 -12.5t64 -30t35 -60t8 -105.5q0 -64 -11.5 -104t-39.5 -62t-67.5 -30t-104.5 -8q-128 0 -176.5 36t-48.5 143z" />
    <glyph glyph-name="T" unicode="T" horiz-adv-x="480" 
d="M205 0v654h-198v70h466v-70h-198v-654h-70z" />
    <glyph glyph-name="U" unicode="U" horiz-adv-x="594" 
d="M61 185v539h70v-560q0 -59 34.5 -80.5t130.5 -21.5q97 0 132 21.5t35 80.5v560h70v-539q0 -113 -52 -153t-185 -40q-131 0 -183 40t-52 153z" />
    <glyph glyph-name="V" unicode="V" horiz-adv-x="556" 
d="M229 0l-217 724h71l194 -654h2l194 654h71l-217 -724h-98z" />
    <glyph glyph-name="W" unicode="W" horiz-adv-x="926" 
d="M625 0l-161 654h-2l-161 -654h-102l-189 724h68l170 -654h2l160 654h106l160 -654h2l170 654h68l-189 -724h-102z" />
    <glyph glyph-name="X" unicode="X" horiz-adv-x="574" 
d="M19 0l217 368l-204 356h79l176 -310l176 310h79l-206 -356l219 -368h-81l-187 326l-187 -326h-81z" />
    <glyph glyph-name="Y" unicode="Y" horiz-adv-x="520" 
d="M225 0v301l-226 423h73l188 -352l188 352h73l-226 -423v-301h-70z" />
    <glyph glyph-name="Z" unicode="Z" horiz-adv-x="520" 
d="M26 0v70l383 584h-369v70h449v-70l-383 -584h388v-70h-468z" />
    <glyph glyph-name="bracketleft" unicode="[" horiz-adv-x="296" 
d="M88 0v724h130v-64h-66v-596h66v-64h-130z" />
    <glyph glyph-name="backslash" unicode="\" horiz-adv-x="296" 
d="M266 -8l-298 740h62l298 -740h-62z" />
    <glyph glyph-name="bracketright" unicode="]" horiz-adv-x="296" 
d="M78 0v64h66v596h-66v64h130v-724h-130z" />
    <glyph glyph-name="asciicircum" unicode="^" horiz-adv-x="600" 
d="M47 285l224 439h58l224 -439h-63l-190 375l-190 -375h-63z" />
    <glyph glyph-name="underscore" unicode="_" horiz-adv-x="500" 
d="M500 -125h-500v50h500v-50z" />
    <glyph glyph-name="grave" unicode="`" horiz-adv-x="204" 
d="M114 568l-138 139h78l111 -139h-51z" />
    <glyph glyph-name="a" unicode="a" 
d="M352 0v44q-28 -30 -60 -41t-89 -11q-92 0 -125.5 40t-33.5 120q0 83 32 121.5t127 38.5q70 0 96.5 -9.5t44.5 -36.5h2v93q0 61 -19 81t-94 20q-39 0 -61 -4.5t-32 -17.5t-12 -26.5t-2 -42.5h-64v27q0 27 5.5 45.5t21.5 38t53 29t94 9.5q102 0 138 -33.5t36 -111.5v-373
h-58zM108 155q0 -57 28 -78t94 -21t94 21t28 78t-28 78t-94 21t-94 -21t-28 -78z" />
    <glyph glyph-name="b" unicode="b" horiz-adv-x="481" 
d="M367 255q0 90 -10.5 131t-34.5 54.5t-77 13.5q-69 0 -95.5 -37.5t-26.5 -131.5q0 -145 21.5 -187t100.5 -42q53 0 77 13.5t34.5 54.5t10.5 131zM59 0v724h64v-278h2q24 42 58 57t83 15q99 0 135 -56t36 -207t-37.5 -207t-143.5 -56q-53 0 -83 16.5t-48 55.5h-2v-64h-64z
" />
    <glyph glyph-name="c" unicode="c" horiz-adv-x="444" 
d="M399 340h-64q0 71 -20 95.5t-83 24.5q-42 0 -62 -4.5t-34.5 -27t-18 -60.5t-3.5 -113t3.5 -113t18 -60.5t34.5 -27t62 -4.5q69 0 90.5 26t21.5 109h64v-33q0 -94 -42 -127t-134 -33q-64 0 -100.5 11t-56.5 44t-25.5 78t-5.5 130q0 159 36.5 211t151.5 52q101 0 134 -37
t33 -141z" />
    <glyph glyph-name="d" unicode="d" horiz-adv-x="481" 
d="M114 255q0 -90 10.5 -131t34.5 -54.5t77 -13.5q79 0 100.5 42t21.5 187q0 94 -26.5 131.5t-95.5 37.5q-53 0 -77 -13.5t-34.5 -54.5t-10.5 -131zM358 0v64h-2q-18 -39 -48 -55.5t-83 -16.5q-106 0 -143.5 56t-37.5 207t36 207t135 56q49 0 83 -15t58 -57h2v278h64v-724
h-64z" />
    <glyph glyph-name="e" unicode="e" 
d="M114 304h232q0 49 -2 71.5t-13 45.5t-35 31t-66 8t-66 -8t-35 -31t-13 -45.5t-2 -71.5zM410 240h-296v-47q0 -85 21 -114t86 -29q45 0 64 1.5t36 12t21 30t4 58.5h64v-19q0 -81 -34 -111t-144 -30q-64 0 -100.5 11t-56.5 44t-25.5 78t-5.5 130q0 159 36.5 211t151.5 52
q109 0 143.5 -44.5t34.5 -156.5v-77z" />
    <glyph glyph-name="f" unicode="f" horiz-adv-x="259" 
d="M88 0v452h-63v58h63v92q0 69 32.5 99.5t100.5 30.5q15 0 45 -2v-57q-14 1 -42 1q-35 0 -53.5 -15.5t-18.5 -56.5v-92h112v-58h-112v-452h-64z" />
    <glyph glyph-name="g" unicode="g" horiz-adv-x="481" 
d="M123 268q0 -110 19.5 -148t92.5 -38q77 0 103 38t26 148t-26 148t-103 38q-73 0 -92.5 -38t-19.5 -148zM364 17v75h-2q-34 -74 -133 -74q-48 0 -81.5 13.5t-52 33t-28 55.5t-12 67t-2.5 81t2.5 81t12 67t28 55.5t52 33t81.5 13.5q51 0 82 -16.5t51 -60.5h2v69h64v-505
q0 -113 -42.5 -153t-160.5 -40q-79 0 -119 32.5t-39 109.5h64q0 -45 23 -61.5t85 -16.5q78 0 101.5 26t23.5 115z" />
    <glyph glyph-name="h" unicode="h" 
d="M53 0v724h64v-280h2q24 41 55 57.5t86 16.5q84 0 117 -39.5t33 -118.5v-360h-64v345q0 53 -20 84t-77 31q-64 0 -98 -31t-34 -107v-322h-64z" />
    <glyph glyph-name="i" unicode="i" horiz-adv-x="204" 
d="M70 0v510h64v-510h-64zM70 639v85h64v-85h-64z" />
    <glyph glyph-name="j" unicode="j" horiz-adv-x="204" 
d="M70 -80v590h64v-604q0 -84 -89 -84q-16 0 -24 2v56q30 0 39.5 7t9.5 33zM70 639v85h64v-85h-64z" />
    <glyph glyph-name="k" unicode="k" horiz-adv-x="389" 
d="M319 0l-174 240h-28v-240h-64v724h64v-420h30l151 206h79l-179 -236l206 -274h-85z" />
    <glyph glyph-name="l" unicode="l" horiz-adv-x="204" 
d="M70 0v724h64v-724h-64z" />
    <glyph glyph-name="m" unicode="m" horiz-adv-x="758" 
d="M53 0v510h64v-76h2q26 45 55 64.5t80 19.5q56 0 92 -17.5t54 -65.5q29 46 63.5 64.5t89.5 18.5q152 0 152 -151v-367h-64v330q0 72 -26.5 98t-80.5 26q-64 0 -93.5 -30t-29.5 -103v-321h-64v353q0 56 -23.5 78.5t-77.5 22.5q-68 0 -98.5 -40t-30.5 -122v-292h-64z" />
    <glyph glyph-name="n" unicode="n" 
d="M53 0v510h64v-66h2q24 41 55 57.5t86 16.5q84 0 117 -39.5t33 -118.5v-360h-64v345q0 53 -20 84t-77 31q-64 0 -98 -31t-34 -107v-322h-64z" />
    <glyph glyph-name="o" unicode="o" horiz-adv-x="464" 
d="M114 255q0 -75 3.5 -113t18 -60.5t34.5 -27t62 -4.5t62 4.5t34.5 27t18 60.5t3.5 113t-3.5 113t-18 60.5t-34.5 27t-62 4.5t-62 -4.5t-34.5 -27t-18 -60.5t-3.5 -113zM44 255q0 83 5.5 128t25.5 78.5t56.5 45t100.5 11.5t100.5 -11.5t56.5 -45t25.5 -78.5t5.5 -128
q0 -68 -4 -109t-14.5 -74t-32 -48.5t-54 -23.5t-83.5 -8t-83.5 8t-54 23.5t-32 48.5t-14.5 74t-4 109z" />
    <glyph glyph-name="p" unicode="p" horiz-adv-x="481" 
d="M367 255q0 90 -10.5 131t-34.5 54.5t-77 13.5q-69 0 -95.5 -37.5t-26.5 -131.5q0 -145 21.5 -187t100.5 -42q53 0 77 13.5t34.5 54.5t10.5 131zM59 -178v688h64v-64h2q24 42 58 57t83 15q99 0 135 -56t36 -207t-37.5 -207t-143.5 -56q-53 0 -83 16.5t-48 55.5h-2v-242
h-64z" />
    <glyph glyph-name="q" unicode="q" horiz-adv-x="481" 
d="M114 255q0 -90 10.5 -131t34.5 -54.5t77 -13.5q79 0 100.5 42t21.5 187q0 94 -26.5 131.5t-95.5 37.5q-53 0 -77 -13.5t-34.5 -54.5t-10.5 -131zM358 -178v242h-2q-18 -39 -48 -55.5t-83 -16.5q-106 0 -143.5 56t-37.5 207t36 207t135 56q49 0 83 -15t58 -57h2v64h64
v-688h-64z" />
    <glyph glyph-name="r" unicode="r" horiz-adv-x="370" 
d="M53 0v510h64v-62h2q18 38 44.5 54t73.5 16q62 0 90 -31t28 -106v-41h-58q1 73 -14.5 96.5t-68.5 23.5q-48 1 -72.5 -25.5t-24.5 -79.5v-355h-64z" />
    <glyph glyph-name="s" unicode="s" 
d="M52 158h64q-2 -67 18.5 -87.5t90.5 -20.5q77 0 99.5 18.5t22.5 82.5q0 28 -2 40t-17 21.5t-37 12t-72 5.5q-99 5 -131 30.5t-32 108.5q0 58 11 87.5t48.5 45.5t112.5 16q109 0 143.5 -29t34.5 -112h-64q0 56 -21 69.5t-96 13.5q-68 0 -86.5 -15t-18.5 -73q0 -54 18 -66.5
t99 -17.5q115 -7 144.5 -28.5t29.5 -104.5q0 -49 -6 -77t-26 -49t-57 -29t-99 -8q-49 0 -77 4.5t-51.5 21t-33 50.5t-9.5 90z" />
    <glyph glyph-name="t" unicode="t" horiz-adv-x="333" 
d="M70 97v355h-53v58h53v118h64v-118h165v-58h-165v-341q0 -32 12 -46.5t43 -14.5q40 0 54.5 21.5t14.5 100.5h58q0 -59 -8.5 -96.5t-27.5 -55t-38.5 -23t-51.5 -5.5q-69 0 -94.5 23.5t-25.5 81.5z" />
    <glyph glyph-name="u" unicode="u" 
d="M410 510v-510h-64v66h-2q-24 -41 -55 -57.5t-86 -16.5q-84 0 -117 39.5t-33 118.5v360h64v-345q0 -53 20 -84t77 -31q64 0 98 31t34 107v322h64z" />
    <glyph glyph-name="v" unicode="v" horiz-adv-x="390" 
d="M150 0l-143 510h66l121 -446h2l121 446h66l-143 -510h-90z" />
    <glyph glyph-name="w" unicode="w" horiz-adv-x="630" 
d="M128 0l-121 510h63l101 -445h2l96 445h92l96 -446h2l101 446h63l-121 -510h-93l-93 446h-2l-93 -446h-93z" />
    <glyph glyph-name="x" unicode="x" horiz-adv-x="408" 
d="M19 0l148 265l-134 245h71l100 -187l100 187h71l-138 -245l152 -265h-75l-110 208l-110 -208h-75z" />
    <glyph glyph-name="y" unicode="y" horiz-adv-x="390" 
d="M70 -184v60q60 0 80.5 21.5t38.5 102.5h-29l-149 510h63l130 -446h2l109 446h64l-137 -563q-17 -69 -50 -102t-92 -33q-21 0 -30 4z" />
    <glyph glyph-name="z" unicode="z" horiz-adv-x="390" 
d="M23 0v70l263 382h-237v58h307v-64l-263 -388h259v-58h-329z" />
    <glyph glyph-name="braceleft" unicode="{" horiz-adv-x="296" 
d="M236 724v-52h-42q-21 0 -31.5 -21.5t-10.5 -53.5v-115q1 -52 -26 -83t-48 -36v-2q12 -4 27 -14.5t31 -39.5t16 -66v-114q0 -31 11 -53t31 -22h42v-52h-55q-42 0 -67.5 26t-25.5 71v116q0 117 -74 117v64q74 0 74 116v117q0 45 25.5 71t67.5 26h55z" />
    <glyph glyph-name="bar" unicode="|" horiz-adv-x="222" 
d="M82 -8v740h58v-740h-58z" />
    <glyph glyph-name="braceright" unicode="}" horiz-adv-x="296" 
d="M60 0v52h42q21 0 31.5 21.5t10.5 53.5v115q-1 52 26 83t48 36v2q-12 4 -27 14.5t-31 39.5t-16 66v114q0 31 -11 53t-31 22h-42v52h55q42 0 67.5 -26t25.5 -71v-116q0 -117 74 -117v-64q-74 0 -74 -116v-117q0 -45 -25.5 -71t-67.5 -26h-55z" />
    <glyph glyph-name="asciitilde" unicode="~" horiz-adv-x="600" 
d="M105 186l-36 44q45 86 125 86q39 0 115 -34t98 -34q19 0 36.5 12t27 24.5t24.5 35.5l36 -44q-20 -27 -33 -42t-38 -29.5t-54 -14.5q-41 0 -103 34t-114 34q-51 0 -84 -72z" />
    <glyph glyph-name="uni00A0" unicode="&#xa0;" horiz-adv-x="278" 
 />
    <glyph glyph-name="exclamdown" unicode="&#xa1;" horiz-adv-x="222" 
d="M76 -170v528h70v-528h-70zM76 462v92h70v-92h-70z" />
    <glyph glyph-name="cent" unicode="&#xa2;" horiz-adv-x="556" 
d="M211 67l102 386q-9 1 -29 1q-34 0 -52 -3.5t-33 -13t-21 -33.5t-9 -57.5t-3 -91.5q0 -97 8.5 -136.5t36.5 -51.5zM162 -119l32 120q-26 6 -44 19t-28.5 31t-16 49.5t-7.5 65.5t-2 89q0 58 2 93t9 68t18.5 50t33.5 30t51.5 17.5t73.5 4.5q17 0 45 -2l30 113h46l-32 -122
q45 -13 61.5 -51t16.5 -116h-58q0 44 -7.5 67.5t-29.5 34.5l-100 -385q8 -1 28 -1q69 0 90.5 25.5t21.5 103.5h64v-33q0 -97 -41 -128.5t-135 -31.5q-21 0 -45 2l-30 -113h-47z" />
    <glyph glyph-name="sterling" unicode="&#xa3;" horiz-adv-x="556" 
d="M44 292v64h77q-8 164 -8 218q0 85 42.5 121.5t151.5 36.5q101 0 143.5 -35.5t42.5 -125.5v-52h-58q0 89 -23.5 116t-109.5 27q-75 0 -97 -19.5t-22 -68.5q0 -62 7 -218h213v-64h-210q4 -61 4 -115q0 -85 -36 -105v-2h339v-70h-456v70q48 5 65.5 26t17.5 78q0 56 -3 118
h-80z" />
    <glyph glyph-name="currency" unicode="&#xa4;" horiz-adv-x="556" 
d="M30 153l55 55q-55 66 -55 154q0 87 55 155l-55 54l40 41l55 -55q67 53 153 53t153 -53l55 55l40 -41l-55 -54q55 -68 55 -155q0 -88 -55 -154l55 -55l-40 -41l-55 56q-67 -54 -153 -54t-153 54l-55 -56zM94 362q0 -81 54 -135.5t130 -54.5t130 54.5t54 135.5t-54 135.5
t-130 54.5q-79 0 -131.5 -54t-52.5 -136z" />
    <glyph glyph-name="yen" unicode="&#xa5;" horiz-adv-x="556" 
d="M246 0v165h-181v52h181v84l-4 8h-177v52h152l-197 363h70l188 -352l188 352h70l-194 -363h149v-52h-177l-4 -8v-84h181v-52h-181v-165h-64z" />
    <glyph glyph-name="brokenbar" unicode="&#xa6;" horiz-adv-x="222" 
d="M82 -8v277h58v-277h-58zM82 455v277h58v-277h-58z" />
    <glyph glyph-name="section" unicode="&#xa7;" horiz-adv-x="519" 
d="M88 120v32h64q0 -25 0.5 -36.5t4 -25t9 -18t18.5 -9.5t29.5 -6t44.5 -1q60 0 81 14.5t21 54.5q0 27 -24.5 44t-119.5 58q-91 39 -123.5 74t-32.5 93q0 35 18.5 67.5t47.5 53.5q-19 23 -25 42t-6 49q0 75 41 100.5t119 25.5q90 0 124.5 -29.5t34.5 -101.5v-23h-64
q0 56 -19.5 73t-77.5 17q-30 0 -47.5 -3t-32 -18t-14.5 -44q0 -31 23.5 -51.5t106.5 -55.5q85 -36 127.5 -73t42.5 -98q0 -21 -4.5 -38t-17.5 -34.5t-18.5 -23.5t-26.5 -27q32 -26 32 -83q0 -72 -40.5 -99.5t-118.5 -27.5q-101 0 -139 27t-38 101zM188 315l164 -77
q25 23 34 39t9 41q0 33 -18.5 53.5t-75.5 47.5l-132 62q-45 -23 -45 -78q0 -31 14 -50.5t50 -37.5z" />
    <glyph glyph-name="dieresis" unicode="&#xa8;" horiz-adv-x="204" 
d="M-9 580v85h64v-85h-64zM149 580v85h64v-85h-64z" />
    <glyph glyph-name="copyright" unicode="&#xa9;" horiz-adv-x="800" 
d="M539 286h57q-15 -73 -64.5 -116.5t-119.5 -43.5q-99 0 -159.5 67t-60.5 169q0 104 58 169.5t159 65.5q75 0 126 -41.5t61 -115.5h-57q-10 45 -44 75t-85 30q-75 0 -117.5 -52t-42.5 -130q0 -75 45 -130t117 -55q51 0 85 31t42 77zM30 362q0 153 108.5 261.5t261.5 108.5
t261.5 -108.5t108.5 -261.5t-108.5 -261.5t-261.5 -108.5t-261.5 108.5t-108.5 261.5zM82 362q0 -132 93 -225t225 -93t225 93t93 225t-93 225t-225 93t-225 -93t-93 -225z" />
    <glyph glyph-name="ordfeminine" unicode="&#xaa;" horiz-adv-x="302" 
d="M229 416v25q-31 -31 -97 -31t-87.5 23t-21.5 73q0 52 22 80t87 28q46 0 62.5 -5.5t24.5 -21.5h2v38q0 36 -12 48.5t-57 12.5t-55.5 -9.5t-10.5 -34.5h-52v19q0 16 3 26t14 21.5t36.5 17.5t66.5 6q71 0 95 -21t24 -72v-223h-44zM75 516q0 -31 18 -42.5t58 -11.5
q39 0 56.5 12t17.5 42q0 29 -17.5 40.5t-56.5 11.5q-40 0 -58 -11.5t-18 -40.5z" />
    <glyph glyph-name="guillemotleft" unicode="&#xab;" horiz-adv-x="389" 
d="M268 85l-95 180l106 180h72l-105 -180l93 -180h-71zM133 85l-95 180l106 180h72l-105 -180l93 -180h-71z" />
    <glyph glyph-name="logicalnot" unicode="&#xac;" horiz-adv-x="600" 
d="M47 323v58h506v-273h-58v215h-448z" />
    <glyph glyph-name="uni00AD" unicode="&#xad;" horiz-adv-x="296" 
d="M38 236v58h220v-58h-220z" />
    <glyph glyph-name="registered" unicode="&#xae;" horiz-adv-x="800" 
d="M30 362q0 153 108.5 261.5t261.5 108.5t261.5 -108.5t108.5 -261.5t-108.5 -261.5t-261.5 -108.5t-261.5 108.5t-108.5 261.5zM82 362q0 -132 93 -225t225 -93t225 93t93 225t-93 225t-225 93t-225 -93t-93 -225zM264 144v436h163q145 0 145 -122q0 -105 -107 -124
l123 -190h-65l-118 189h-89v-189h-52zM316 528v-143h81q23 0 37 1t32 5t28.5 11.5t18 22t7.5 35.5q0 68 -101 68h-103z" />
    <glyph glyph-name="macron" unicode="&#xaf;" horiz-adv-x="204" 
d="M-45 606v46h294v-46h-294z" />
    <glyph glyph-name="degree" unicode="&#xb0;" horiz-adv-x="400" 
d="M57 589q0 59 42 101t101 42t101 -42t42 -101t-42 -101t-101 -42t-101 42t-42 101zM103 589q0 -41 28.5 -69t68.5 -28t68.5 28t28.5 69t-28.5 69t-68.5 28t-68.5 -28t-28.5 -69z" />
    <glyph glyph-name="plusminus" unicode="&#xb1;" horiz-adv-x="600" 
d="M271 330v176h58v-176h224v-58h-224v-176h-58v176h-224v58h224zM47 0v58h506v-58h-506z" />
    <glyph glyph-name="twosuperior" unicode="&#xb2;" horiz-adv-x="361" 
d="M29 293v81q0 73 28 98t114 37q66 9 81.5 23.5t15.5 71.5q0 46 -16 61t-74 15q-59 0 -75 -13.5t-16 -61.5v-19h-52v28q0 26 1.5 40.5t9.5 32t23.5 25.5t44 14t70.5 6q84 0 116 -27.5t32 -115.5q0 -34 -3.5 -53.5t-15.5 -38.5t-39 -28t-70 -12q-72 -4 -91.5 -20t-19.5 -58
v-34h237v-52h-301z" />
    <glyph glyph-name="threesuperior" unicode="&#xb3;" horiz-adv-x="361" 
d="M146 490v46q83 0 103 12t20 68q0 40 -13.5 52t-73.5 12q-26 0 -39 -1.5t-26 -7t-18 -18.5t-5 -35v-23h-58v37q0 64 33 82t110 18q70 0 103.5 -13t42 -35t8.5 -70q0 -44 -12 -67.5t-44 -32.5v-2q31 -8 44.5 -26t13.5 -70q0 -57 -8 -81t-40 -37t-103 -13q-97 0 -127.5 22.5
t-30.5 93.5v30h58q0 -64 13.5 -79t80.5 -15q64 0 78.5 13t14.5 67q0 52 -19.5 62.5t-105.5 10.5z" />
    <glyph glyph-name="acute" unicode="&#xb4;" horiz-adv-x="204" 
d="M39 568l111 139h78l-138 -139h-51z" />
    <glyph glyph-name="mu" unicode="&#xb5;" 
d="M53 -178v688h64v-350q0 -25 2.5 -41t11.5 -33.5t29.5 -26.5t53.5 -9q64 0 98 31t34 107v322h64v-510h-64v66h-2q-27 -43 -58 -58.5t-87 -15.5q-49 0 -82 30v-200h-64z" />
    <glyph glyph-name="paragraph" unicode="&#xb6;" horiz-adv-x="600" 
d="M258 0v399q-80 0 -130 45t-50 112q0 84 48 126t135 42h217v-724h-58v672h-104v-672h-58z" />
    <glyph glyph-name="periodcentered" unicode="&#xb7;" horiz-adv-x="278" 
d="M87 320q0 22 15 37t37 15t37 -15t15 -37t-15 -37t-37 -15t-37 15t-15 37z" />
    <glyph glyph-name="cedilla" unicode="&#xb8;" horiz-adv-x="204" 
d="M37 -83l60 83h39l-47 -60q4 1 10.5 2.5t12 2.5t10.5 1q35 0 58.5 -19t23.5 -53q0 -41 -34 -61.5t-79 -20.5q-43 0 -91 20l15 29q33 -15 64 -15q27 0 47 11t20 35q0 20 -15 30t-35 10q-22 0 -43 -8z" />
    <glyph glyph-name="onesuperior" unicode="&#xb9;" horiz-adv-x="361" 
d="M176 293v385h-2l-89 -109l-38 27l108 128h85v-431h-64z" />
    <glyph glyph-name="ordmasculine" unicode="&#xba;" horiz-adv-x="302" 
d="M81 570q0 -73 12.5 -90.5t57.5 -17.5t57.5 18t12.5 91t-12.5 91t-57.5 18t-57.5 -17.5t-12.5 -90.5v-2zM23 571q0 54 3 80.5t16.5 47.5t38.5 27t70 6t70 -6t38.5 -27t16.5 -47.5t3 -80.5t-3 -80.5t-16.5 -47.5t-38.5 -27t-70 -6t-70 6t-38.5 27t-16.5 47.5t-3 80.5z" />
    <glyph glyph-name="guillemotright" unicode="&#xbb;" horiz-adv-x="389" 
d="M38 85l105 180l-93 180h71l95 -180l-106 -180h-72zM173 85l105 180l-93 180h71l95 -180l-106 -180h-72z" />
    <glyph glyph-name="onequarter" unicode="&#xbc;" horiz-adv-x="834" 
d="M706 143v248h-2l-179 -248h181zM473 91v66l198 274h93v-288h48v-52h-48v-91h-58v91h-233zM159 -8l443 740h58l-443 -740h-58zM151 293v385h-2l-89 -109l-38 27l108 128h85v-431h-64z" />
    <glyph glyph-name="onehalf" unicode="&#xbd;" horiz-adv-x="834" 
d="M127 -8l443 740h58l-443 -740h-58zM151 293v385h-2l-89 -109l-38 27l108 128h85v-431h-64zM509 0v81q0 73 28 98t114 37q66 9 81.5 23.5t15.5 71.5q0 46 -16 61t-74 15q-59 0 -75 -13.5t-16 -61.5v-19h-52v28q0 26 1.5 40.5t9.5 32t23.5 25.5t44 14t70.5 6
q84 0 116 -27.5t32 -115.5q0 -34 -3.5 -53.5t-15.5 -38.5t-39 -28t-70 -12q-72 -4 -91.5 -20t-19.5 -58v-34h237v-52h-301z" />
    <glyph glyph-name="threequarters" unicode="&#xbe;" horiz-adv-x="834" 
d="M142 490v46q83 0 103 12t20 68q0 40 -13.5 52t-73.5 12q-26 0 -39 -1.5t-26 -7t-18 -18.5t-5 -35v-23h-58v37q0 64 33 82t110 18q70 0 103.5 -13t42 -35t8.5 -70q0 -44 -12 -67.5t-44 -32.5v-2q31 -8 44.5 -26t13.5 -70q0 -57 -8 -81t-40 -37t-103 -13q-97 0 -127.5 22.5
t-30.5 93.5v30h58q0 -64 13.5 -79t80.5 -15q64 0 78.5 13t14.5 67q0 52 -19.5 62.5t-105.5 10.5zM180 -8l443 740h58l-443 -740h-58zM706 143v248h-2l-179 -248h181zM473 91v66l198 274h93v-288h48v-52h-48v-91h-58v91h-233z" />
    <glyph glyph-name="questiondown" unicode="&#xbf;" horiz-adv-x="426" 
d="M214 308v50h70v-42q0 -65 -21 -88t-117 -66q-27 -12 -36.5 -22.5t-15 -39.5t-5.5 -94q0 -37 2.5 -54t14 -33.5t36 -21.5t68.5 -5q33 0 50 1t34 7t23 14.5t12 28.5t7 44t1 66h64v-76q0 -43 -11.5 -73t-27 -45.5t-43.5 -24t-49.5 -10.5t-56.5 -2q-62 0 -100 11t-57 36
t-25 55t-6 80q0 66 4.5 104.5t19.5 62t30.5 34t49.5 24.5q59 24 72 36t13 43zM214 462v92h70v-92h-70z" />
    <glyph glyph-name="Agrave" unicode="&#xc0;" horiz-adv-x="574" 
d="M421 223l-129 431h-10l-129 -431h268zM490 0l-47 153h-312l-47 -153h-73l227 724h98l227 -724h-73zM299 757l-138 139h78l111 -139h-51z" />
    <glyph glyph-name="Aacute" unicode="&#xc1;" horiz-adv-x="574" 
d="M421 223l-129 431h-10l-129 -431h268zM490 0l-47 153h-312l-47 -153h-73l227 724h98l227 -724h-73zM224 757l111 139h78l-138 -139h-51z" />
    <glyph glyph-name="Acircumflex" unicode="&#xc2;" horiz-adv-x="574" 
d="M421 223l-129 431h-10l-129 -431h268zM490 0l-47 153h-312l-47 -153h-73l227 724h98l227 -724h-73zM140 757l113 139h68l113 -139h-65l-82 99l-83 -99h-64z" />
    <glyph glyph-name="Atilde" unicode="&#xc3;" horiz-adv-x="574" 
d="M421 223l-129 431h-10l-129 -431h268zM490 0l-47 153h-312l-47 -153h-73l227 724h98l227 -724h-73zM403 871h40q-3 -37 -27.5 -66.5t-60.5 -29.5q-28 0 -74 23q-44 22 -66 22q-36 0 -44 -51h-40q3 38 27.5 67.5t60.5 29.5q30 0 74 -22q46 -23 66 -23q36 0 44 50z" />
    <glyph glyph-name="Adieresis" unicode="&#xc4;" horiz-adv-x="574" 
d="M421 223l-129 431h-10l-129 -431h268zM490 0l-47 153h-312l-47 -153h-73l227 724h98l227 -724h-73zM176 769v85h64v-85h-64zM334 769v85h64v-85h-64z" />
    <glyph glyph-name="Aring" unicode="&#xc5;" horiz-adv-x="574" 
d="M421 223l-129 431h-10l-129 -431h268zM490 0l-47 153h-312l-47 -153h-73l227 724h98l227 -724h-73zM187 856q0 41 29.5 70.5t70.5 29.5t70.5 -29.5t29.5 -70.5t-29.5 -70.5t-70.5 -29.5t-70.5 29.5t-29.5 70.5zM227 856q0 -25 17.5 -42.5t42.5 -17.5t42.5 17.5t17.5 42.5
t-17.5 42.5t-42.5 17.5t-42.5 -17.5t-17.5 -42.5z" />
    <glyph glyph-name="AE" unicode="&#xc6;" horiz-adv-x="852" 
d="M413 0v218h-255l-112 -218h-72l371 724h456v-70h-318v-244h302v-70h-302v-270h316v-70h-386zM413 288v366h-32l-187 -366h219z" />
    <glyph glyph-name="Ccedilla" unicode="&#xc7;" horiz-adv-x="574" 
d="M531 241v-55q0 -115 -44.5 -154t-171.5 -40l-41 -52l33 6q35 0 58.5 -19t23.5 -53q0 -41 -34 -61.5t-79 -20.5q-43 0 -91 20l15 29q33 -15 64 -15q27 0 47 11t20 35q0 20 -15 30t-35 10q-22 0 -43 -8l-16 13l55 76q-88 2 -134.5 22t-69 72.5t-22.5 152.5v244q0 64 9 107
t26 71.5t49 43.5t71.5 20.5t100.5 5.5q66 0 103.5 -6t67.5 -25.5t41.5 -57t11.5 -100.5v-52h-64v47q0 81 -31.5 102.5t-128.5 21.5q-66 0 -99.5 -5t-55 -26.5t-26.5 -54t-5 -96.5v-236q0 -64 5 -96.5t26.5 -54t55 -26.5t99.5 -5q55 0 86.5 6t48 23t21 39t4.5 63v48h64z" />
    <glyph glyph-name="Egrave" unicode="&#xc8;" horiz-adv-x="500" 
d="M61 0v724h388v-70h-318v-244h302v-70h-302v-270h316v-70h-386zM262 757l-138 139h78l111 -139h-51z" />
    <glyph glyph-name="Eacute" unicode="&#xc9;" horiz-adv-x="500" 
d="M61 0v724h388v-70h-318v-244h302v-70h-302v-270h316v-70h-386zM187 757l111 139h78l-138 -139h-51z" />
    <glyph glyph-name="Ecircumflex" unicode="&#xca;" horiz-adv-x="500" 
d="M61 0v724h388v-70h-318v-244h302v-70h-302v-270h316v-70h-386zM103 757l113 139h68l113 -139h-65l-82 99l-83 -99h-64z" />
    <glyph glyph-name="Edieresis" unicode="&#xcb;" horiz-adv-x="500" 
d="M61 0v724h388v-70h-318v-244h302v-70h-302v-270h316v-70h-386zM139 769v85h64v-85h-64zM297 769v85h64v-85h-64z" />
    <glyph glyph-name="Igrave" unicode="&#xcc;" horiz-adv-x="222" 
d="M76 0v724h70v-724h-70zM123 757l-138 139h78l111 -139h-51z" />
    <glyph glyph-name="Iacute" unicode="&#xcd;" horiz-adv-x="222" 
d="M76 0v724h70v-724h-70zM48 757l111 139h78l-138 -139h-51z" />
    <glyph glyph-name="Icircumflex" unicode="&#xce;" horiz-adv-x="222" 
d="M76 0v724h70v-724h-70zM-36 757l113 139h68l113 -139h-65l-82 99l-83 -99h-64z" />
    <glyph glyph-name="Idieresis" unicode="&#xcf;" horiz-adv-x="222" 
d="M76 0v724h70v-724h-70zM0 769v85h64v-85h-64zM158 769v85h64v-85h-64z" />
    <glyph glyph-name="Eth" unicode="&#xd0;" horiz-adv-x="611" 
d="M61 0v346h-61v64h61v314h277q71 0 116.5 -17.5t67.5 -54.5t30 -78t8 -104v-158q0 -95 -12.5 -156t-42.5 -95.5t-71 -47.5t-106 -13h-267zM131 654v-244h179v-64h-179v-276h219q86 0 113 58.5t27 233.5q0 180 -26 236t-114 56h-219z" />
    <glyph glyph-name="Ntilde" unicode="&#xd1;" horiz-adv-x="630" 
d="M61 0v724h111l325 -648h2v648h70v-724h-111l-325 648h-2v-648h-70zM431 871h40q-3 -37 -27.5 -66.5t-60.5 -29.5q-28 0 -74 23q-44 22 -66 22q-36 0 -44 -51h-40q3 38 27.5 67.5t60.5 29.5q30 0 74 -22q46 -23 66 -23q36 0 44 50z" />
    <glyph glyph-name="Ograve" unicode="&#xd2;" horiz-adv-x="612" 
d="M491 244v236q0 64 -5 96.5t-26.5 54t-54.5 26.5t-99 5t-99 -5t-54.5 -26.5t-26.5 -54t-5 -96.5v-236q0 -64 5 -96.5t26.5 -54t54.5 -26.5t99 -5t99 5t54.5 26.5t26.5 54t5 96.5zM51 240v244q0 64 9 107t26 71.5t49 43.5t71 20.5t100 5.5t100 -5.5t71 -20.5t49 -43.5
t26 -71.5t9 -107v-244q0 -64 -9 -107t-26 -71.5t-49 -43.5t-71 -20.5t-100 -5.5t-100 5.5t-71 20.5t-49 43.5t-26 71.5t-9 107zM318 757l-138 139h78l111 -139h-51z" />
    <glyph glyph-name="Oacute" unicode="&#xd3;" horiz-adv-x="612" 
d="M491 244v236q0 64 -5 96.5t-26.5 54t-54.5 26.5t-99 5t-99 -5t-54.5 -26.5t-26.5 -54t-5 -96.5v-236q0 -64 5 -96.5t26.5 -54t54.5 -26.5t99 -5t99 5t54.5 26.5t26.5 54t5 96.5zM51 240v244q0 64 9 107t26 71.5t49 43.5t71 20.5t100 5.5t100 -5.5t71 -20.5t49 -43.5
t26 -71.5t9 -107v-244q0 -64 -9 -107t-26 -71.5t-49 -43.5t-71 -20.5t-100 -5.5t-100 5.5t-71 20.5t-49 43.5t-26 71.5t-9 107zM243 757l111 139h78l-138 -139h-51z" />
    <glyph glyph-name="Ocircumflex" unicode="&#xd4;" horiz-adv-x="612" 
d="M491 244v236q0 64 -5 96.5t-26.5 54t-54.5 26.5t-99 5t-99 -5t-54.5 -26.5t-26.5 -54t-5 -96.5v-236q0 -64 5 -96.5t26.5 -54t54.5 -26.5t99 -5t99 5t54.5 26.5t26.5 54t5 96.5zM51 240v244q0 64 9 107t26 71.5t49 43.5t71 20.5t100 5.5t100 -5.5t71 -20.5t49 -43.5
t26 -71.5t9 -107v-244q0 -64 -9 -107t-26 -71.5t-49 -43.5t-71 -20.5t-100 -5.5t-100 5.5t-71 20.5t-49 43.5t-26 71.5t-9 107zM159 757l113 139h68l113 -139h-65l-82 99l-83 -99h-64z" />
    <glyph glyph-name="Otilde" unicode="&#xd5;" horiz-adv-x="612" 
d="M491 244v236q0 64 -5 96.5t-26.5 54t-54.5 26.5t-99 5t-99 -5t-54.5 -26.5t-26.5 -54t-5 -96.5v-236q0 -64 5 -96.5t26.5 -54t54.5 -26.5t99 -5t99 5t54.5 26.5t26.5 54t5 96.5zM51 240v244q0 64 9 107t26 71.5t49 43.5t71 20.5t100 5.5t100 -5.5t71 -20.5t49 -43.5
t26 -71.5t9 -107v-244q0 -64 -9 -107t-26 -71.5t-49 -43.5t-71 -20.5t-100 -5.5t-100 5.5t-71 20.5t-49 43.5t-26 71.5t-9 107zM422 871h40q-3 -37 -27.5 -66.5t-60.5 -29.5q-28 0 -74 23q-44 22 -66 22q-36 0 -44 -51h-40q3 38 27.5 67.5t60.5 29.5q30 0 74 -22
q46 -23 66 -23q36 0 44 50z" />
    <glyph glyph-name="Odieresis" unicode="&#xd6;" horiz-adv-x="612" 
d="M491 244v236q0 64 -5 96.5t-26.5 54t-54.5 26.5t-99 5t-99 -5t-54.5 -26.5t-26.5 -54t-5 -96.5v-236q0 -64 5 -96.5t26.5 -54t54.5 -26.5t99 -5t99 5t54.5 26.5t26.5 54t5 96.5zM51 240v244q0 64 9 107t26 71.5t49 43.5t71 20.5t100 5.5t100 -5.5t71 -20.5t49 -43.5
t26 -71.5t9 -107v-244q0 -64 -9 -107t-26 -71.5t-49 -43.5t-71 -20.5t-100 -5.5t-100 5.5t-71 20.5t-49 43.5t-26 71.5t-9 107zM195 769v85h64v-85h-64zM353 769v85h64v-85h-64z" />
    <glyph glyph-name="multiply" unicode="&#xd7;" horiz-adv-x="600" 
d="M514 77l-35 -35l-179 178l-179 -178l-35 35l178 179l-178 179l35 36l179 -179l179 179l35 -36l-178 -179z" />
    <glyph glyph-name="Oslash" unicode="&#xd8;" horiz-adv-x="612" 
d="M480 595l-318 -510q34 -23 144 -23q66 0 99 5t54.5 26.5t26.5 54t5 96.5v236q0 84 -11 115zM133 130l316 509q-34 23 -143 23q-66 0 -99 -5t-54.5 -26.5t-26.5 -54t-5 -96.5v-236q0 -83 12 -114zM80 -48l-42 25l50 81q-37 53 -37 182v244q0 64 9 107t26 71.5t49 43.5
t71 20.5t100 5.5q129 0 181 -32l45 72l42 -25l-50 -81q37 -53 37 -182v-244q0 -64 -9 -107t-26 -71.5t-49 -43.5t-71 -20.5t-100 -5.5q-130 0 -182 32z" />
    <glyph glyph-name="Ugrave" unicode="&#xd9;" horiz-adv-x="594" 
d="M61 185v539h70v-560q0 -59 34.5 -80.5t130.5 -21.5q97 0 132 21.5t35 80.5v560h70v-539q0 -113 -52 -153t-185 -40q-131 0 -183 40t-52 153zM309 757l-138 139h78l111 -139h-51z" />
    <glyph glyph-name="Uacute" unicode="&#xda;" horiz-adv-x="594" 
d="M61 185v539h70v-560q0 -59 34.5 -80.5t130.5 -21.5q97 0 132 21.5t35 80.5v560h70v-539q0 -113 -52 -153t-185 -40q-131 0 -183 40t-52 153zM234 757l111 139h78l-138 -139h-51z" />
    <glyph glyph-name="Ucircumflex" unicode="&#xdb;" horiz-adv-x="594" 
d="M61 185v539h70v-560q0 -59 34.5 -80.5t130.5 -21.5q97 0 132 21.5t35 80.5v560h70v-539q0 -113 -52 -153t-185 -40q-131 0 -183 40t-52 153zM150 757l113 139h68l113 -139h-65l-82 99l-83 -99h-64z" />
    <glyph glyph-name="Udieresis" unicode="&#xdc;" horiz-adv-x="594" 
d="M61 185v539h70v-560q0 -59 34.5 -80.5t130.5 -21.5q97 0 132 21.5t35 80.5v560h70v-539q0 -113 -52 -153t-185 -40q-131 0 -183 40t-52 153zM186 769v85h64v-85h-64zM344 769v85h64v-85h-64z" />
    <glyph glyph-name="Yacute" unicode="&#xdd;" horiz-adv-x="520" 
d="M225 0v301l-226 423h73l188 -352l188 352h73l-226 -423v-301h-70zM197 757l111 139h78l-138 -139h-51z" />
    <glyph glyph-name="Thorn" unicode="&#xde;" horiz-adv-x="537" 
d="M131 550v-302h203q64 0 87.5 30.5t23.5 120.5q0 67 -9.5 99t-29.5 42t-61 10h-214zM61 0v724h70v-104h234q87 0 118.5 -55.5t31.5 -165.5q0 -70 -13 -115.5t-40 -68t-58 -30t-78 -7.5h-195v-178h-70z" />
    <glyph glyph-name="germandbls" unicode="&#xdf;" 
d="M177 361v58q69 0 100.5 32.5t31.5 105.5q0 111 -97 111q-48 0 -71.5 -21.5t-23.5 -70.5v-576h-64v566q0 96 42 131t121 35q50 0 83 -15t48 -43t20.5 -55.5t5.5 -65.5q0 -127 -88 -153v-2q66 -11 95.5 -52.5t29.5 -135.5q0 -218 -165 -218q-44 0 -71 14v72q27 -22 69 -22
q56 0 76.5 36.5t20.5 109.5q0 53 -7.5 83.5t-29 47t-48.5 21.5t-78 7z" />
    <glyph glyph-name="agrave" unicode="&#xe0;" 
d="M352 0v44q-28 -30 -60 -41t-89 -11q-92 0 -125.5 40t-33.5 120q0 83 32 121.5t127 38.5q70 0 96.5 -9.5t44.5 -36.5h2v93q0 61 -19 81t-94 20q-39 0 -61 -4.5t-32 -17.5t-12 -26.5t-2 -42.5h-64v27q0 27 5.5 45.5t21.5 38t53 29t94 9.5q102 0 138 -33.5t36 -111.5v-373
h-58zM108 155q0 -57 28 -78t94 -21t94 21t28 78t-28 78t-94 21t-94 -21t-28 -78zM244 568l-138 139h78l111 -139h-51z" />
    <glyph glyph-name="aacute" unicode="&#xe1;" 
d="M352 0v44q-28 -30 -60 -41t-89 -11q-92 0 -125.5 40t-33.5 120q0 83 32 121.5t127 38.5q70 0 96.5 -9.5t44.5 -36.5h2v93q0 61 -19 81t-94 20q-39 0 -61 -4.5t-32 -17.5t-12 -26.5t-2 -42.5h-64v27q0 27 5.5 45.5t21.5 38t53 29t94 9.5q102 0 138 -33.5t36 -111.5v-373
h-58zM108 155q0 -57 28 -78t94 -21t94 21t28 78t-28 78t-94 21t-94 -21t-28 -78zM169 568l111 139h78l-138 -139h-51z" />
    <glyph glyph-name="acircumflex" unicode="&#xe2;" 
d="M352 0v44q-28 -30 -60 -41t-89 -11q-92 0 -125.5 40t-33.5 120q0 83 32 121.5t127 38.5q70 0 96.5 -9.5t44.5 -36.5h2v93q0 61 -19 81t-94 20q-39 0 -61 -4.5t-32 -17.5t-12 -26.5t-2 -42.5h-64v27q0 27 5.5 45.5t21.5 38t53 29t94 9.5q102 0 138 -33.5t36 -111.5v-373
h-58zM108 155q0 -57 28 -78t94 -21t94 21t28 78t-28 78t-94 21t-94 -21t-28 -78zM85 568l113 139h68l113 -139h-65l-82 99l-83 -99h-64z" />
    <glyph glyph-name="atilde" unicode="&#xe3;" 
d="M352 0v44q-28 -30 -60 -41t-89 -11q-92 0 -125.5 40t-33.5 120q0 83 32 121.5t127 38.5q70 0 96.5 -9.5t44.5 -36.5h2v93q0 61 -19 81t-94 20q-39 0 -61 -4.5t-32 -17.5t-12 -26.5t-2 -42.5h-64v27q0 27 5.5 45.5t21.5 38t53 29t94 9.5q102 0 138 -33.5t36 -111.5v-373
h-58zM108 155q0 -57 28 -78t94 -21t94 21t28 78t-28 78t-94 21t-94 -21t-28 -78zM348 682h40q-3 -37 -27.5 -66.5t-60.5 -29.5q-28 0 -74 23q-44 22 -66 22q-36 0 -44 -51h-40q3 38 27.5 67.5t60.5 29.5q30 0 74 -22q46 -23 66 -23q36 0 44 50z" />
    <glyph glyph-name="adieresis" unicode="&#xe4;" 
d="M352 0v44q-28 -30 -60 -41t-89 -11q-92 0 -125.5 40t-33.5 120q0 83 32 121.5t127 38.5q70 0 96.5 -9.5t44.5 -36.5h2v93q0 61 -19 81t-94 20q-39 0 -61 -4.5t-32 -17.5t-12 -26.5t-2 -42.5h-64v27q0 27 5.5 45.5t21.5 38t53 29t94 9.5q102 0 138 -33.5t36 -111.5v-373
h-58zM108 155q0 -57 28 -78t94 -21t94 21t28 78t-28 78t-94 21t-94 -21t-28 -78zM121 580v85h64v-85h-64zM279 580v85h64v-85h-64z" />
    <glyph glyph-name="aring" unicode="&#xe5;" 
d="M352 0v44q-28 -30 -60 -41t-89 -11q-92 0 -125.5 40t-33.5 120q0 83 32 121.5t127 38.5q70 0 96.5 -9.5t44.5 -36.5h2v93q0 61 -19 81t-94 20q-39 0 -61 -4.5t-32 -17.5t-12 -26.5t-2 -42.5h-64v27q0 27 5.5 45.5t21.5 38t53 29t94 9.5q102 0 138 -33.5t36 -111.5v-373
h-58zM108 155q0 -57 28 -78t94 -21t94 21t28 78t-28 78t-94 21t-94 -21t-28 -78zM132 667q0 41 29.5 70.5t70.5 29.5t70.5 -29.5t29.5 -70.5t-29.5 -70.5t-70.5 -29.5t-70.5 29.5t-29.5 70.5zM172 667q0 -25 17.5 -42.5t42.5 -17.5t42.5 17.5t17.5 42.5t-17.5 42.5
t-42.5 17.5t-42.5 -17.5t-17.5 -42.5z" />
    <glyph glyph-name="ae" unicode="&#xe6;" horiz-adv-x="759" 
d="M44 152q0 83 32 121.5t127 38.5q70 0 96.5 -9.5t44.5 -36.5h2v93q0 61 -19 81t-94 20q-39 0 -61 -4.5t-32 -17.5t-12 -26.5t-2 -42.5h-64v27q0 27 5.5 45.5t21.5 38t53 29t94 9.5q59 0 90.5 -9t51.5 -37q27 26 60.5 36t89.5 10q109 0 143.5 -44.5t34.5 -156.5v-77h-296
v-47q0 -85 21 -114t86 -29q45 0 64 1.5t36 12t21 30t4 58.5h64v-19q0 -81 -34 -111t-144 -30q-67 0 -103 14t-57 55q-39 -46 -69.5 -57.5t-95.5 -11.5q-92 0 -125.5 40t-33.5 120zM108 155q0 -57 28 -78t94 -21t94 21t28 78t-28 78t-94 21t-94 -21t-28 -78zM410 304h232
q0 49 -2 71.5t-13 45.5t-35 31t-66 8t-66 -8t-35 -31t-13 -45.5t-2 -71.5z" />
    <glyph glyph-name="ccedilla" unicode="&#xe7;" horiz-adv-x="444" 
d="M399 340h-64q0 71 -20 95.5t-83 24.5q-42 0 -62 -4.5t-34.5 -27t-18 -60.5t-3.5 -113t3.5 -113t18 -60.5t34.5 -27t62 -4.5q69 0 90.5 26t21.5 109h64v-33q0 -89 -38 -123t-120 -36l-41 -53l33 6q35 0 58.5 -19t23.5 -53q0 -41 -34 -61.5t-79 -20.5q-43 0 -91 20l15 29
q33 -15 64 -15q27 0 47 11t20 35q0 20 -15 30t-35 10q-22 0 -43 -8l-16 13l55 76q-46 1 -75.5 10.5t-48.5 26t-28.5 50t-12.5 72t-3 103.5q0 159 36.5 211t151.5 52q101 0 134 -37t33 -141z" />
    <glyph glyph-name="egrave" unicode="&#xe8;" 
d="M114 304h232q0 49 -2 71.5t-13 45.5t-35 31t-66 8t-66 -8t-35 -31t-13 -45.5t-2 -71.5zM410 240h-296v-47q0 -85 21 -114t86 -29q45 0 64 1.5t36 12t21 30t4 58.5h64v-19q0 -81 -34 -111t-144 -30q-64 0 -100.5 11t-56.5 44t-25.5 78t-5.5 130q0 159 36.5 211t151.5 52
q109 0 143.5 -44.5t34.5 -156.5v-77zM244 568l-138 139h78l111 -139h-51z" />
    <glyph glyph-name="eacute" unicode="&#xe9;" 
d="M114 304h232q0 49 -2 71.5t-13 45.5t-35 31t-66 8t-66 -8t-35 -31t-13 -45.5t-2 -71.5zM410 240h-296v-47q0 -85 21 -114t86 -29q45 0 64 1.5t36 12t21 30t4 58.5h64v-19q0 -81 -34 -111t-144 -30q-64 0 -100.5 11t-56.5 44t-25.5 78t-5.5 130q0 159 36.5 211t151.5 52
q109 0 143.5 -44.5t34.5 -156.5v-77zM169 568l111 139h78l-138 -139h-51z" />
    <glyph glyph-name="ecircumflex" unicode="&#xea;" 
d="M114 304h232q0 49 -2 71.5t-13 45.5t-35 31t-66 8t-66 -8t-35 -31t-13 -45.5t-2 -71.5zM410 240h-296v-47q0 -85 21 -114t86 -29q45 0 64 1.5t36 12t21 30t4 58.5h64v-19q0 -81 -34 -111t-144 -30q-64 0 -100.5 11t-56.5 44t-25.5 78t-5.5 130q0 159 36.5 211t151.5 52
q109 0 143.5 -44.5t34.5 -156.5v-77zM85 568l113 139h68l113 -139h-65l-82 99l-83 -99h-64z" />
    <glyph glyph-name="edieresis" unicode="&#xeb;" 
d="M114 304h232q0 49 -2 71.5t-13 45.5t-35 31t-66 8t-66 -8t-35 -31t-13 -45.5t-2 -71.5zM410 240h-296v-47q0 -85 21 -114t86 -29q45 0 64 1.5t36 12t21 30t4 58.5h64v-19q0 -81 -34 -111t-144 -30q-64 0 -100.5 11t-56.5 44t-25.5 78t-5.5 130q0 159 36.5 211t151.5 52
q109 0 143.5 -44.5t34.5 -156.5v-77zM121 580v85h64v-85h-64zM279 580v85h64v-85h-64z" />
    <glyph glyph-name="igrave" unicode="&#xec;" horiz-adv-x="204" 
d="M70 0v510h64v-510h-64zM114 568l-138 139h78l111 -139h-51z" />
    <glyph glyph-name="iacute" unicode="&#xed;" horiz-adv-x="204" 
d="M70 0v510h64v-510h-64zM39 568l111 139h78l-138 -139h-51z" />
    <glyph glyph-name="icircumflex" unicode="&#xee;" horiz-adv-x="204" 
d="M70 0v510h64v-510h-64zM-45 568l113 139h68l113 -139h-65l-82 99l-83 -99h-64z" />
    <glyph glyph-name="idieresis" unicode="&#xef;" horiz-adv-x="204" 
d="M70 0v510h64v-510h-64zM-9 580v85h64v-85h-64zM149 580v85h64v-85h-64z" />
    <glyph glyph-name="eth" unicode="&#xf0;" horiz-adv-x="464" 
d="M130 564l-34 36l105 53q-47 28 -105 36l26 54q91 -16 145 -57l112 57l34 -36l-105 -53q39 -34 63.5 -78.5t34 -104t12 -102t2.5 -114.5q0 -58 -2 -93t-9 -68t-18.5 -50t-33.5 -30t-51.5 -17.5t-73.5 -4.5t-73.5 4.5t-51.5 17.5t-33.5 29t-18.5 48t-9 66t-2 90
q0 82 5.5 126.5t25 76t54 42t95.5 10.5q49 0 75 -11.5t49 -42.5l2 2q-33 118 -101 174zM114 247q0 -58 3 -91t9 -56.5t21 -33t33 -13t52 -3.5t52 3.5t33 13t21 33t9 56.5t3 91t-3 91t-9 56.5t-21 33t-33 13t-52 3.5t-52 -3.5t-33 -13t-21 -33t-9 -56.5t-3 -91z" />
    <glyph glyph-name="ntilde" unicode="&#xf1;" 
d="M53 0v510h64v-66h2q24 41 55 57.5t86 16.5q84 0 117 -39.5t33 -118.5v-360h-64v345q0 53 -20 84t-77 31q-64 0 -98 -31t-34 -107v-322h-64zM348 682h40q-3 -37 -27.5 -66.5t-60.5 -29.5q-28 0 -74 23q-44 22 -66 22q-36 0 -44 -51h-40q3 38 27.5 67.5t60.5 29.5
q30 0 74 -22q46 -23 66 -23q36 0 44 50z" />
    <glyph glyph-name="ograve" unicode="&#xf2;" horiz-adv-x="464" 
d="M114 255q0 -75 3.5 -113t18 -60.5t34.5 -27t62 -4.5t62 4.5t34.5 27t18 60.5t3.5 113t-3.5 113t-18 60.5t-34.5 27t-62 4.5t-62 -4.5t-34.5 -27t-18 -60.5t-3.5 -113zM44 255q0 83 5.5 128t25.5 78.5t56.5 45t100.5 11.5t100.5 -11.5t56.5 -45t25.5 -78.5t5.5 -128
q0 -68 -4 -109t-14.5 -74t-32 -48.5t-54 -23.5t-83.5 -8t-83.5 8t-54 23.5t-32 48.5t-14.5 74t-4 109zM244 568l-138 139h78l111 -139h-51z" />
    <glyph glyph-name="oacute" unicode="&#xf3;" horiz-adv-x="464" 
d="M114 255q0 -75 3.5 -113t18 -60.5t34.5 -27t62 -4.5t62 4.5t34.5 27t18 60.5t3.5 113t-3.5 113t-18 60.5t-34.5 27t-62 4.5t-62 -4.5t-34.5 -27t-18 -60.5t-3.5 -113zM44 255q0 83 5.5 128t25.5 78.5t56.5 45t100.5 11.5t100.5 -11.5t56.5 -45t25.5 -78.5t5.5 -128
q0 -68 -4 -109t-14.5 -74t-32 -48.5t-54 -23.5t-83.5 -8t-83.5 8t-54 23.5t-32 48.5t-14.5 74t-4 109zM169 568l111 139h78l-138 -139h-51z" />
    <glyph glyph-name="ocircumflex" unicode="&#xf4;" horiz-adv-x="464" 
d="M114 255q0 -75 3.5 -113t18 -60.5t34.5 -27t62 -4.5t62 4.5t34.5 27t18 60.5t3.5 113t-3.5 113t-18 60.5t-34.5 27t-62 4.5t-62 -4.5t-34.5 -27t-18 -60.5t-3.5 -113zM44 255q0 83 5.5 128t25.5 78.5t56.5 45t100.5 11.5t100.5 -11.5t56.5 -45t25.5 -78.5t5.5 -128
q0 -68 -4 -109t-14.5 -74t-32 -48.5t-54 -23.5t-83.5 -8t-83.5 8t-54 23.5t-32 48.5t-14.5 74t-4 109zM85 568l113 139h68l113 -139h-65l-82 99l-83 -99h-64z" />
    <glyph glyph-name="otilde" unicode="&#xf5;" horiz-adv-x="464" 
d="M114 255q0 -75 3.5 -113t18 -60.5t34.5 -27t62 -4.5t62 4.5t34.5 27t18 60.5t3.5 113t-3.5 113t-18 60.5t-34.5 27t-62 4.5t-62 -4.5t-34.5 -27t-18 -60.5t-3.5 -113zM44 255q0 83 5.5 128t25.5 78.5t56.5 45t100.5 11.5t100.5 -11.5t56.5 -45t25.5 -78.5t5.5 -128
q0 -68 -4 -109t-14.5 -74t-32 -48.5t-54 -23.5t-83.5 -8t-83.5 8t-54 23.5t-32 48.5t-14.5 74t-4 109zM348 682h40q-3 -37 -27.5 -66.5t-60.5 -29.5q-28 0 -74 23q-44 22 -66 22q-36 0 -44 -51h-40q3 38 27.5 67.5t60.5 29.5q30 0 74 -22q46 -23 66 -23q36 0 44 50z" />
    <glyph glyph-name="odieresis" unicode="&#xf6;" horiz-adv-x="464" 
d="M114 255q0 -75 3.5 -113t18 -60.5t34.5 -27t62 -4.5t62 4.5t34.5 27t18 60.5t3.5 113t-3.5 113t-18 60.5t-34.5 27t-62 4.5t-62 -4.5t-34.5 -27t-18 -60.5t-3.5 -113zM44 255q0 83 5.5 128t25.5 78.5t56.5 45t100.5 11.5t100.5 -11.5t56.5 -45t25.5 -78.5t5.5 -128
q0 -68 -4 -109t-14.5 -74t-32 -48.5t-54 -23.5t-83.5 -8t-83.5 8t-54 23.5t-32 48.5t-14.5 74t-4 109zM121 580v85h64v-85h-64zM279 580v85h64v-85h-64z" />
    <glyph glyph-name="divide" unicode="&#xf7;" horiz-adv-x="600" 
d="M47 224v58h506v-58h-506zM240 48q0 25 18 42.5t42 17.5t42 -18t18 -42q0 -23 -18 -41.5t-41 -18.5q-25 0 -43 18t-18 42zM240 458q0 25 17.5 42.5t42.5 17.5t42.5 -17.5t17.5 -42.5t-17.5 -42.5t-42.5 -17.5t-42.5 17.5t-17.5 42.5z" />
    <glyph glyph-name="oslash" unicode="&#xf8;" horiz-adv-x="464" 
d="M123 117l196 323q-19 20 -87 20q-42 0 -62 -4.5t-34.5 -27t-18 -60.5t-3.5 -113q0 -101 9 -138zM75 -45l-38 21l40 66q-33 48 -33 213q0 83 5.5 128t25.5 78.5t56.5 45t100.5 11.5q82 0 121 -23l36 60l38 -21l-41 -67q34 -46 34 -212q0 -68 -4 -109t-14.5 -74t-32 -48.5
t-54 -23.5t-83.5 -8q-84 0 -121 22zM341 393l-196 -323q21 -20 87 -20q42 0 62 4.5t34.5 27t18 60.5t3.5 113q0 101 -9 138z" />
    <glyph glyph-name="ugrave" unicode="&#xf9;" 
d="M410 510v-510h-64v66h-2q-24 -41 -55 -57.5t-86 -16.5q-84 0 -117 39.5t-33 118.5v360h64v-345q0 -53 20 -84t77 -31q64 0 98 31t34 107v322h64zM244 568l-138 139h78l111 -139h-51z" />
    <glyph glyph-name="uacute" unicode="&#xfa;" 
d="M410 510v-510h-64v66h-2q-24 -41 -55 -57.5t-86 -16.5q-84 0 -117 39.5t-33 118.5v360h64v-345q0 -53 20 -84t77 -31q64 0 98 31t34 107v322h64zM169 568l111 139h78l-138 -139h-51z" />
    <glyph glyph-name="ucircumflex" unicode="&#xfb;" 
d="M410 510v-510h-64v66h-2q-24 -41 -55 -57.5t-86 -16.5q-84 0 -117 39.5t-33 118.5v360h64v-345q0 -53 20 -84t77 -31q64 0 98 31t34 107v322h64zM85 568l113 139h68l113 -139h-65l-82 99l-83 -99h-64z" />
    <glyph glyph-name="udieresis" unicode="&#xfc;" 
d="M410 510v-510h-64v66h-2q-24 -41 -55 -57.5t-86 -16.5q-84 0 -117 39.5t-33 118.5v360h64v-345q0 -53 20 -84t77 -31q64 0 98 31t34 107v322h64zM121 580v85h64v-85h-64zM279 580v85h64v-85h-64z" />
    <glyph glyph-name="yacute" unicode="&#xfd;" horiz-adv-x="390" 
d="M70 -184v60q60 0 80.5 21.5t38.5 102.5h-29l-149 510h63l130 -446h2l109 446h64l-137 -563q-17 -69 -50 -102t-92 -33q-21 0 -30 4zM132 568l111 139h78l-138 -139h-51z" />
    <glyph glyph-name="thorn" unicode="&#xfe;" horiz-adv-x="481" 
d="M367 255q0 90 -10.5 131t-34.5 54.5t-77 13.5q-69 0 -95.5 -37.5t-26.5 -131.5q0 -145 21.5 -187t100.5 -42q53 0 77 13.5t34.5 54.5t10.5 131zM59 -178v902h64v-278h2q24 42 58 57t83 15q99 0 135 -56t36 -207t-37.5 -207t-143.5 -56q-53 0 -83 16.5t-48 55.5h-2v-242
h-64z" />
    <glyph glyph-name="ydieresis" unicode="&#xff;" horiz-adv-x="390" 
d="M70 -184v60q60 0 80.5 21.5t38.5 102.5h-29l-149 510h63l130 -446h2l109 446h64l-137 -563q-17 -69 -50 -102t-92 -33q-21 0 -30 4zM84 580v85h64v-85h-64zM242 580v85h64v-85h-64z" />
    <glyph glyph-name="dotlessi" unicode="&#x131;" horiz-adv-x="204" 
d="M70 0v510h64v-510h-64z" />
    <glyph glyph-name="Lslash" unicode="&#x141;" 
d="M61 0v291l-64 -43v66l64 43v367h70v-319l179 121v-66l-179 -121v-263h305v-76h-375z" />
    <glyph glyph-name="lslash" unicode="&#x142;" horiz-adv-x="204" 
d="M70 0v334l-53 -44v63l53 44v327h64v-275l53 43v-63l-53 -43v-386h-64z" />
    <glyph glyph-name="OE" unicode="&#x152;" horiz-adv-x="907" 
d="M468 244v236q0 47 -1 73t-8.5 49.5t-16.5 33t-31.5 17t-46.5 8.5t-69 1q-115 0 -144.5 -31t-29.5 -151v-236q0 -120 29.5 -151t144.5 -31q45 0 69 1t46.5 8.5t31.5 17t16.5 33t8.5 49.5t1 73zM468 0v49h-2q-22 -33 -56.5 -45t-103.5 -12q-61 0 -100 5.5t-71 20.5
t-49 43.5t-26 71.5t-9 107v244q0 64 9 107t26 71.5t49 43.5t71 20.5t100 5.5q144 0 160 -62h2v54h388v-70h-318v-244h302v-70h-302v-270h316v-70h-386z" />
    <glyph glyph-name="oe" unicode="&#x153;" horiz-adv-x="759" 
d="M108 255q0 -58 3 -91.5t9 -57.5t21.5 -33.5t34.5 -13t54 -3.5q28 0 44 1.5t31 9.5t21.5 19.5t12 35.5t7 54t1.5 79t-1.5 79t-7 54t-12 35.5t-21.5 19.5t-31 9.5t-44 1.5q-35 0 -54 -3.5t-34.5 -13t-21.5 -33.5t-9 -57.5t-3 -91.5zM411 304h231q0 49 -2 71.5t-13 45.5
t-34.5 31t-65.5 8t-66 -8t-35 -31t-13 -45.5t-2 -71.5zM706 240h-295v-47q0 -85 21 -114t86 -29q45 0 63.5 1.5t35.5 12t21 30t4 58.5h64v-19q0 -81 -34 -111t-144 -30q-61 0 -94.5 11t-57.5 46q-16 -34 -51 -45.5t-93 -11.5q-44 0 -73.5 4.5t-51.5 17.5t-33.5 30t-18.5 50
t-9 68t-2 93t2 93t9 68t18.5 50t33.5 30t51.5 17.5t73.5 4.5q60 0 95 -11.5t53 -44.5q19 35 53.5 45.5t94.5 10.5q109 0 143.5 -44.5t34.5 -156.5v-77z" />
    <glyph glyph-name="Scaron" unicode="&#x160;" horiz-adv-x="536" 
d="M44 171v56h64v-42q0 -80 28.5 -101.5t131.5 -21.5q57 0 82.5 2.5t44.5 18.5t23 42.5t4 80.5q0 42 -2 59t-16 35.5t-43 25t-83 11.5l-74 6q-91 7 -121.5 46.5t-30.5 144.5q0 67 10 105.5t38.5 59.5t65.5 27t104 6q132 0 173 -39t44 -165h-64v16q0 71 -31 94.5t-122 23.5
q-53 0 -81 -4t-44 -20.5t-19.5 -38t-3.5 -65.5q0 -78 26 -100.5t126 -29.5q74 -5 111 -12.5t64 -30t35 -60t8 -105.5q0 -64 -11.5 -104t-39.5 -62t-67.5 -30t-104.5 -8q-128 0 -176.5 36t-48.5 143zM234 757l-113 139h64l83 -99l82 99h65l-113 -139h-68z" />
    <glyph glyph-name="scaron" unicode="&#x161;" 
d="M52 158h64q-2 -67 18.5 -87.5t90.5 -20.5q77 0 99.5 18.5t22.5 82.5q0 28 -2 40t-17 21.5t-37 12t-72 5.5q-99 5 -131 30.5t-32 108.5q0 58 11 87.5t48.5 45.5t112.5 16q109 0 143.5 -29t34.5 -112h-64q0 56 -21 69.5t-96 13.5q-68 0 -86.5 -15t-18.5 -73q0 -54 18 -66.5
t99 -17.5q115 -7 144.5 -28.5t29.5 -104.5q0 -49 -6 -77t-26 -49t-57 -29t-99 -8q-49 0 -77 4.5t-51.5 21t-33 50.5t-9.5 90zM198 568l-113 139h64l83 -99l82 99h65l-113 -139h-68z" />
    <glyph glyph-name="Ydieresis" unicode="&#x178;" horiz-adv-x="520" 
d="M225 0v301l-226 423h73l188 -352l188 352h73l-226 -423v-301h-70zM149 769v85h64v-85h-64zM307 769v85h64v-85h-64z" />
    <glyph glyph-name="Zcaron" unicode="&#x17d;" horiz-adv-x="520" 
d="M26 0v70l383 584h-369v70h449v-70l-383 -584h388v-70h-468zM226 757l-113 139h64l83 -99l82 99h65l-113 -139h-68z" />
    <glyph glyph-name="zcaron" unicode="&#x17e;" horiz-adv-x="390" 
d="M23 0v70l263 382h-237v58h307v-64l-263 -388h259v-58h-329zM161 568l-113 139h64l83 -99l82 99h65l-113 -139h-68z" />
    <glyph glyph-name="florin" unicode="&#x192;" horiz-adv-x="556" 
d="M155 400v64h92q8 57 15 91t20.5 72t31.5 58t47 33.5t68 13.5q7 0 52 -8v-66q-27 10 -49 10q-52 0 -76.5 -48.5t-40.5 -155.5h102v-64h-111l-56 -377q-18 -121 -52 -166t-90 -45q-44 0 -73 20v66q29 -22 59 -22q18 0 28.5 4.5t23.5 20.5t22.5 53t18.5 98l51 348h-83z" />
    <glyph glyph-name="circumflex" unicode="&#x2c6;" horiz-adv-x="204" 
d="M-45 568l113 139h68l113 -139h-65l-82 99l-83 -99h-64z" />
    <glyph glyph-name="caron" unicode="&#x2c7;" horiz-adv-x="204" 
d="M68 568l-113 139h64l83 -99l82 99h65l-113 -139h-68z" />
    <glyph glyph-name="uni02C9" unicode="&#x2c9;" horiz-adv-x="204" 
d="M-45 606v46h294v-46h-294z" />
    <glyph glyph-name="breve" unicode="&#x2d8;" horiz-adv-x="204" 
d="M-43 700h40q4 -39 33.5 -60t70.5 -21q88 0 106 81h40q-7 -62 -47 -94.5t-102 -32.5q-61 0 -97 33t-44 94z" />
    <glyph glyph-name="dotaccent" unicode="&#x2d9;" horiz-adv-x="204" 
d="M70 580v85h64v-85h-64z" />
    <glyph glyph-name="ring" unicode="&#x2da;" horiz-adv-x="204" 
d="M2 667q0 41 29.5 70.5t70.5 29.5t70.5 -29.5t29.5 -70.5t-29.5 -70.5t-70.5 -29.5t-70.5 29.5t-29.5 70.5zM42 667q0 -25 17.5 -42.5t42.5 -17.5t42.5 17.5t17.5 42.5t-17.5 42.5t-42.5 17.5t-42.5 -17.5t-17.5 -42.5z" />
    <glyph glyph-name="ogonek" unicode="&#x2db;" horiz-adv-x="204" 
d="M154 0h39q-77 -71 -77 -126q0 -21 14 -34.5t39 -13.5t45 8l12 -28q-33 -14 -79 -14q-43 0 -66 19t-23 52q0 34 29 75t67 62z" />
    <glyph glyph-name="tilde" unicode="&#x2dc;" horiz-adv-x="204" 
d="M218 682h40q-3 -37 -27.5 -66.5t-60.5 -29.5q-28 0 -74 23q-44 22 -66 22q-36 0 -44 -51h-40q3 38 27.5 67.5t60.5 29.5q30 0 74 -22q46 -23 66 -23q36 0 44 50z" />
    <glyph glyph-name="hungarumlaut" unicode="&#x2dd;" horiz-adv-x="204" 
d="M-41 568l111 139h78l-138 -139h-51zM119 568l111 139h78l-138 -139h-51z" />
    <glyph glyph-name="uni03A9" unicode="&#x3a9;" horiz-adv-x="721" 
d="M203 56v3q-60 54 -99 137.5t-39 185.5q0 151 85.5 246.5t213.5 95.5q129 0 210.5 -99t81.5 -239q0 -105 -40.5 -191t-98.5 -136v-3h153v-56h-237v42q65 44 110 131t45 201q0 112 -60.5 202.5t-164.5 90.5q-103 0 -166.5 -84.5t-63.5 -210.5q0 -108 46 -198.5t109 -131.5
v-42h-237v56h152z" />
    <glyph glyph-name="uni03BC" unicode="&#x3bc;" 
d="M53 -178v688h64v-350q0 -25 2.5 -41t11.5 -33.5t29.5 -26.5t53.5 -9q64 0 98 31t34 107v322h64v-510h-64v66h-2q-27 -43 -58 -58.5t-87 -15.5q-49 0 -82 30v-200h-64z" />
    <glyph glyph-name="pi" unicode="&#x3c0;" horiz-adv-x="567" 
d="M539 471h-82v-321q0 -101 15 -150h-65q-17 30 -17 143v328h-188q-5 -113 -26.5 -258.5t-48.5 -212.5h-66q28 78 49 218t25 253q-81 0 -113 -13l-12 45q42 27 141 27h395z" />
    <glyph glyph-name="uni2010" unicode="&#x2010;" horiz-adv-x="296" 
d="M38 236v58h220v-58h-220z" />
    <glyph glyph-name="endash" unicode="&#x2013;" horiz-adv-x="500" 
d="M0 236v58h500v-58h-500z" />
    <glyph glyph-name="emdash" unicode="&#x2014;" horiz-adv-x="1000" 
d="M0 236v58h1000v-58h-1000z" />
    <glyph glyph-name="quoteleft" unicode="&#x2018;" horiz-adv-x="168" 
d="M49 524v109q0 59 15.5 75t54.5 16v-40q-17 0 -23.5 -12.5t-6.5 -55.5h30v-92h-70z" />
    <glyph glyph-name="quoteright" unicode="&#x2019;" horiz-adv-x="168" 
d="M119 724v-109q0 -59 -15.5 -75t-54.5 -16v40q17 0 23.5 12.5t6.5 55.5h-30v92h70z" />
    <glyph glyph-name="quotesinglbase" unicode="&#x201a;" horiz-adv-x="168" 
d="M52 0v92h70v-109q0 -59 -16.5 -75t-59.5 -16v40q21 0 28.5 12t7.5 56h-30z" />
    <glyph glyph-name="quotedblleft" unicode="&#x201c;" horiz-adv-x="296" 
d="M177 524v109q0 59 15.5 75t54.5 16v-40q-17 0 -23.5 -12.5t-6.5 -55.5h30v-92h-70zM49 524v109q0 59 15.5 75t54.5 16v-40q-17 0 -23.5 -12.5t-6.5 -55.5h30v-92h-70z" />
    <glyph glyph-name="quotedblright" unicode="&#x201d;" horiz-adv-x="296" 
d="M119 724v-109q0 -59 -16 -75t-57 -16v40q19 0 26 12.5t7 55.5h-30v92h70zM247 724v-109q0 -59 -16 -75t-57 -16v40q19 0 26 12.5t7 55.5h-30v92h70z" />
    <glyph glyph-name="quotedblbase" unicode="&#x201e;" horiz-adv-x="296" 
d="M119 92v-109q0 -59 -15.5 -75t-54.5 -16v40q17 0 23.5 12.5t6.5 55.5h-30v92h70zM247 92v-109q0 -59 -15.5 -75t-54.5 -16v40q17 0 23.5 12.5t6.5 55.5h-30v92h70z" />
    <glyph glyph-name="dagger" unicode="&#x2020;" horiz-adv-x="390" 
d="M163 0v460h-117v58h117v206h64v-206h117v-58h-117v-460h-64z" />
    <glyph glyph-name="daggerdbl" unicode="&#x2021;" horiz-adv-x="390" 
d="M163 0v192h-99v58h99v242h-99v58h99v174h64v-174h99v-58h-99v-242h99v-58h-99v-192h-64z" />
    <glyph glyph-name="bullet" unicode="&#x2022;" horiz-adv-x="500" 
d="M69 362q0 75 53 128t128 53t128 -53t53 -128t-53 -128t-128 -53t-128 53t-53 128z" />
    <glyph glyph-name="ellipsis" unicode="&#x2026;" horiz-adv-x="1000" 
d="M132 0v92h70v-92h-70zM465 0v92h70v-92h-70zM798 0v92h70v-92h-70z" />
    <glyph glyph-name="perthousand" unicode="&#x2030;" horiz-adv-x="1001" 
d="M788 269v-108q0 -64 10.5 -87.5t54.5 -23.5t54.5 23.5t10.5 87.5v108q0 64 -10.5 87.5t-54.5 24.5q-44 -1 -54.5 -24.5t-10.5 -87.5zM96 -8l443 740h58l-443 -740h-58zM83 562v-108q0 -64 10.5 -87.5t54.5 -23.5t54.5 23.5t10.5 87.5v108q0 64 -10.5 87.5t-54.5 24.5
q-44 -1 -54.5 -24.5t-10.5 -87.5zM730 150v131q0 91 25 124.5t98 33.5t98 -33.5t25 -124.5v-131q0 -91 -25 -124.5t-98 -33.5t-98 33.5t-25 124.5zM25 443v131q0 91 25 124.5t98 33.5t98 -33.5t25 -124.5v-131q0 -91 -25 -124.5t-98 -33.5t-98 33.5t-25 124.5zM423 150v131
q0 91 25 124.5t98 33.5t98 -33.5t25 -124.5v-131q0 -91 -25 -124.5t-98 -33.5t-98 33.5t-25 124.5zM481 269v-108q0 -64 10.5 -87.5t54.5 -23.5t54.5 23.5t10.5 87.5v108q0 64 -10.5 87.5t-54.5 24.5q-44 -1 -54.5 -24.5t-10.5 -87.5z" />
    <glyph glyph-name="guilsinglleft" unicode="&#x2039;" horiz-adv-x="296" 
d="M154 85l-95 180l106 180h72l-105 -180l93 -180h-71z" />
    <glyph glyph-name="guilsinglright" unicode="&#x203a;" horiz-adv-x="296" 
d="M59 85l105 180l-93 180h71l95 -180l-106 -180h-72z" />
    <glyph glyph-name="fraction" unicode="&#x2044;" horiz-adv-x="167" 
d="M-167 -8l443 740h58l-443 -740h-58z" />
    <glyph glyph-name="Euro" unicode="&#x20ac;" horiz-adv-x="556" 
d="M96 273h-78l18 52h60v79h-74l18 52h56v28q0 149 48 198.5t186 49.5q149 0 203 -88l-26 -76q-29 54 -66 75.5t-111 21.5q-58 0 -89 -6t-48.5 -29t-22 -54.5t-4.5 -95.5v-24h303l-18 -52h-285v-79h257l-18 -52h-239v-29q0 -64 4.5 -95.5t22 -54.5t48.5 -29t89 -6
q73 0 112.5 18t64.5 53v-90q-45 -48 -177 -48q-138 0 -186 49.5t-48 198.5v33z" />
    <glyph glyph-name="afii61289" unicode="&#x2113;" horiz-adv-x="482" 
d="M424 150l34 -28q-66 -125 -184 -125q-80 0 -120.5 54.5t-42.5 138.5q0 9 -1 13q-10 -7 -29.5 -24t-28.5 -24l-22 40q69 59 80 71v283q0 127 43.5 184.5t106.5 57.5q60 0 91 -45.5t31 -117.5q0 -171 -208 -377v-34q1 -85 33 -125.5t80 -40.5q44 0 80 29.5t57 69.5z
M174 554v-235q160 178 160 307q0 113 -74 113q-34 0 -60 -45t-26 -140z" />
    <glyph glyph-name="trademark" unicode="&#x2122;" horiz-adv-x="990" 
d="M187 312v360h-132v52h322v-52h-132v-360h-58zM827 312v354h-2l-143 -354h-36l-143 354h-2v-354h-58v412h95l128 -320l124 320h95v-412h-58z" />
    <glyph glyph-name="Omega" unicode="&#x2126;" horiz-adv-x="721" 
d="M203 56v3q-60 54 -99 137.5t-39 185.5q0 151 85.5 246.5t213.5 95.5q129 0 210.5 -99t81.5 -239q0 -105 -40.5 -191t-98.5 -136v-3h153v-56h-237v42q65 44 110 131t45 201q0 112 -60.5 202.5t-164.5 90.5q-103 0 -166.5 -84.5t-63.5 -210.5q0 -108 46 -198.5t109 -131.5
v-42h-237v56h152z" />
    <glyph glyph-name="estimated" unicode="&#x212e;" horiz-adv-x="892" 
d="M857 352h-666q-5 0 -5 -5v-201q0 -13 8 -23q107 -110 252 -110q77 0 146 33t119 90h59q-56 -66 -142 -104.5t-183 -38.5q-170 0 -290 108t-120 261t120 261.5t290 108.5q171 0 291.5 -108.5t120.5 -261.5v-10zM706 378v202q0 13 -10 25q-108 105 -250 105
q-144 0 -251 -109q-9 -9 -9 -25v-198q0 -7 5 -7h510q5 0 5 7z" />
    <glyph glyph-name="partialdiff" unicode="&#x2202;" horiz-adv-x="543" 
d="M102 698l-24 49q70 57 164 57q104 0 177 -99.5t73 -286.5t-67.5 -304.5t-190.5 -117.5q-91 0 -140.5 69.5t-49.5 165.5q0 115 63 187.5t150 72.5q61 0 105.5 -33t61.5 -66h1q1 12 1 46q0 137 -55.5 223t-134.5 86q-74 0 -134 -49zM239 53h1q71 0 118.5 77.5t58.5 190.5
q-14 42 -55 78t-96 36q-64 0 -109.5 -59.5t-45.5 -143.5q0 -79 35 -129t93 -50z" />
    <glyph glyph-name="uni2206" unicode="&#x2206;" horiz-adv-x="647" 
d="M32 0v48l255 684h77l251 -683v-49h-583zM100 56h442l-150 405q-7 22 -34 92.5t-34 97.5h-4q-5 -23 -30.5 -90.5t-30.5 -83.5z" />
    <glyph glyph-name="product" unicode="&#x220f;" horiz-adv-x="697" 
d="M670 651h-111v-749h-66v749h-290v-749h-66v749h-111v62h644v-62z" />
    <glyph glyph-name="summation" unicode="&#x2211;" horiz-adv-x="554" 
d="M531 -99h-508v46l274 359l-262 359v48h480v-59h-386v-3l245 -336l-264 -346v-3h421v-65z" />
    <glyph glyph-name="minus" unicode="&#x2212;" horiz-adv-x="600" 
d="M47 224v58h506v-58h-506z" />
    <glyph glyph-name="uni2215" unicode="&#x2215;" horiz-adv-x="167" 
d="M-167 -8l443 740h58l-443 -740h-58z" />
    <glyph glyph-name="uni2219" unicode="&#x2219;" horiz-adv-x="278" 
d="M87 320q0 22 15 37t37 15t37 -15t15 -37t-15 -37t-37 -15t-37 15t-15 37z" />
    <glyph glyph-name="radical" unicode="&#x221a;" horiz-adv-x="571" 
d="M569 846l-222 -1000h-61l-162 478l-75 -28l-15 42l132 51l132 -387q12 -47 17 -72l1 -1q2 10 6.5 35t6.5 37l189 845h51z" />
    <glyph glyph-name="infinity" unicode="&#x221e;" horiz-adv-x="783" 
d="M731 297v-1q0 -70 -45.5 -114t-107.5 -44q-46 0 -87 28.5t-99 92.5q-34 -39 -56 -60.5t-59 -41t-76 -19.5q-61 0 -105.5 44.5t-44.5 109.5q0 68 44.5 113t112.5 45q51 0 94.5 -31.5t93.5 -89.5q38 42 56 60.5t56 39.5t78 21q65 0 105 -42.5t40 -110.5zM207 182h2
q16 0 32 6t27.5 12t28.5 21t24 21.5t25 26t21 22.5q-25 31 -36 43.5t-34.5 34t-46.5 30.5t-49 9q-47 0 -74.5 -34t-27.5 -83q0 -46 30 -77.5t78 -31.5zM580 408h-1q-24 0 -50 -14t-41 -27.5t-40 -40t-29 -30.5q58 -63 91.5 -88.5t71.5 -25.5q46 0 74 33.5t28 77.5
q0 53 -29 84t-75 31z" />
    <glyph glyph-name="integral" unicode="&#x222b;" horiz-adv-x="355" 
d="M338 855l-13 -47q-15 11 -36 11q-33 0 -51 -25q-35 -40 -35 -184q0 -78 6.5 -256t6.5 -261q0 -139 -44 -206q-31 -49 -96 -49q-38 0 -63 16l13 50q24 -12 45 -12q31 0 47 24q36 47 36 178q0 83 -7 263.5t-7 259.5q0 84 12 134t41 80q38 39 91 39q33 0 54 -15z" />
    <glyph glyph-name="approxequal" unicode="&#x2248;" horiz-adv-x="568" 
d="M490 435l29 -25q-47 -95 -128 -95q-28 0 -51.5 9.5t-67.5 33.5q-59 34 -95 34q-32 0 -55 -19.5t-45 -55.5l-30 24q48 95 137 95q17 0 36 -5.5t27.5 -9t29 -15.5t21.5 -12q4 -2 14.5 -8t14 -7.5t12 -6t13.5 -6t12.5 -3.5t14.5 -3t15 -1q30 0 52 18.5t44 57.5zM490 265
l29 -24q-47 -95 -128 -95q-28 0 -51.5 9.5t-67.5 33.5q-60 35 -94 35q-33 0 -55.5 -20t-45.5 -57l-30 24q48 96 137 96q17 0 35.5 -5t29 -10t28 -14.5t21.5 -11.5q2 -1 9.5 -5.5t10 -5.5t9 -5t9 -5t8.5 -4t9.5 -4t9.5 -2.5t10.5 -2.5t10 -1.5t10.5 -0.5q30 0 52 18t44 57z
" />
    <glyph glyph-name="notequal" unicode="&#x2260;" horiz-adv-x="568" 
d="M401 510l-47 -100h161v-46h-179l-69 -149h248v-45h-267l-54 -119l-37 17l48 102h-153v45h172l68 149h-240v46h259l53 117z" />
    <glyph glyph-name="lessequal" unicode="&#x2264;" horiz-adv-x="568" 
d="M512 99l-454 228v48l454 228v-55l-405 -195v-2l405 -197v-55zM515 10h-463v47h463v-47z" />
    <glyph glyph-name="greaterequal" unicode="&#x2265;" horiz-adv-x="568" 
d="M58 603l455 -228v-48l-455 -228v55l405 196v2l-405 196v55zM514 10h-461v47h461v-47z" />
    <glyph glyph-name="lozenge" unicode="&#x25ca;" horiz-adv-x="571" 
d="M516 356l-204 -401h-55l-201 401l203 402h55zM453 354l-148 292q-13 31 -19 53h-2q-12 -36 -20 -53l-146 -288l148 -294q16 -36 18 -52h4q6 28 18 51z" />
    <glyph glyph-name="fi" unicode="&#xfb01;" horiz-adv-x="481" 
d="M88 0v452h-63v58h63v92q0 69 32.5 99.5t100.5 30.5q15 0 45 -2v-57q-14 1 -42 1q-35 0 -53.5 -15.5t-18.5 -56.5v-92h112v-58h-112v-452h-64zM347 0v510h64v-510h-64zM347 639v85h64v-85h-64z" />
    <glyph glyph-name="fl" unicode="&#xfb02;" horiz-adv-x="481" 
d="M347 0v724h64v-724h-64zM88 0v452h-63v58h63v92q0 69 32.5 99.5t100.5 30.5q15 0 45 -2v-57q-14 1 -42 1q-35 0 -53.5 -15.5t-18.5 -56.5v-92h112v-58h-112v-452h-64z" />
    <glyph glyph-name="a.superior" horiz-adv-x="302" 
d="M229 416v25q-31 -31 -97 -31t-87.5 23t-21.5 73q0 52 22 80t87 28q46 0 62.5 -5.5t24.5 -21.5h2v38q0 36 -12 48.5t-57 12.5t-55.5 -9.5t-10.5 -34.5h-52v19q0 16 3 26t14 21.5t36.5 17.5t66.5 6q71 0 95 -21t24 -72v-223h-44zM75 516q0 -31 18 -42.5t58 -11.5
q39 0 56.5 12t17.5 42q0 29 -17.5 40.5t-56.5 11.5q-40 0 -58 -11.5t-18 -40.5z" />
    <glyph glyph-name="o.superior" horiz-adv-x="302" 
d="M81 570q0 -73 12.5 -90.5t57.5 -17.5t57.5 18t12.5 91t-12.5 91t-57.5 18t-57.5 -17.5t-12.5 -90.5v-2zM23 571q0 54 3 80.5t16.5 47.5t38.5 27t70 6t70 -6t38.5 -27t16.5 -47.5t3 -80.5t-3 -80.5t-16.5 -47.5t-38.5 -27t-70 -6t-70 6t-38.5 27t-16.5 47.5t-3 80.5z" />
    <glyph glyph-name="one.superior" horiz-adv-x="361" 
d="M176 293v385h-2l-89 -109l-38 27l108 128h85v-431h-64z" />
    <glyph glyph-name="two.superior" horiz-adv-x="361" 
d="M29 293v81q0 73 28 98t114 37q66 9 81.5 23.5t15.5 71.5q0 46 -16 61t-74 15q-59 0 -75 -13.5t-16 -61.5v-19h-52v28q0 26 1.5 40.5t9.5 32t23.5 25.5t44 14t70.5 6q84 0 116 -27.5t32 -115.5q0 -34 -3.5 -53.5t-15.5 -38.5t-39 -28t-70 -12q-72 -4 -91.5 -20t-19.5 -58
v-34h237v-52h-301z" />
    <glyph glyph-name="three.superior" horiz-adv-x="361" 
d="M146 490v46q83 0 103 12t20 68q0 40 -13.5 52t-73.5 12q-26 0 -39 -1.5t-26 -7t-18 -18.5t-5 -35v-23h-58v37q0 64 33 82t110 18q70 0 103.5 -13t42 -35t8.5 -70q0 -44 -12 -67.5t-44 -32.5v-2q31 -8 44.5 -26t13.5 -70q0 -57 -8 -81t-40 -37t-103 -13q-97 0 -127.5 22.5
t-30.5 93.5v30h58q0 -64 13.5 -79t80.5 -15q64 0 78.5 13t14.5 67q0 52 -19.5 62.5t-105.5 10.5z" />
    </font>
</defs>
</svg>
