<?xml version="1.0" standalone="no"?>
<!DOCTYPE svg PUBLIC "-//W3C//DTD SVG 1.1//EN" "http://www.w3.org/Graphics/SVG/1.1/DTD/svg11.dtd" >
<svg xmlns="http://www.w3.org/2000/svg" xmlns:xlink="http://www.w3.org/1999/xlink" version="1.1">
<metadata>
Created by FontForge 20170731 at Thu Aug 16 18:07:23 2007
 By Aleksey,,,
(c) 1987, 1992, 1998, 2002 Adobe Systems Incorporated. All rights reserved.
</metadata>
<defs>
<font id="EurostileLTStd-Oblique" horiz-adv-x="690" >
  <font-face 
    font-family="Eurostile LT Std"
    font-weight="400"
    font-style="oblique"
    font-stretch="normal"
    units-per-em="1000"
    panose-1="2 11 5 4 2 2 2 5 2 4"
    ascent="750"
    descent="-250"
    x-height="525"
    cap-height="750"
    bbox="-48 -290 1317.54 968"
    underline-thickness="50"
    underline-position="-200"
    slope="-12"
    unicode-range="U+0020-FB02"
  />
<missing-glyph horiz-adv-x="648" 
d="M148 0v700h500v-700h-500zM398 395l170 255h-340zM428 350l170 -255v510zM228 50h340l-170 255zM198 605v-510l170 255z" />
    <glyph glyph-name="f_i" unicode="fi" horiz-adv-x="509" 
d="M553 525l-112 -525h-79l112 525h79zM279 525h139l-14 -64h-139l-98 -461h-79l98 461h-80l14 64h80l13 63q20 96 64 132t141 36q16 0 48 -2l-13 -64q-32 2 -49 2q-57 0 -77.5 -20t-32.5 -76zM600 750l-18 -87h-79l18 87h79z" />
    <glyph glyph-name="f_l" unicode="fl" horiz-adv-x="513" 
d="M279 525h139l-14 -64h-139l-98 -461h-79l98 461h-80l14 64h80l13 63q20 96 64 132t141 36q16 0 48 -2l-13 -64q-32 2 -49 2q-57 0 -77.5 -20t-32.5 -76zM604 750l-159 -750h-79l159 750h79z" />
    <glyph glyph-name=".notdef" horiz-adv-x="648" 
d="M148 0v700h500v-700h-500zM398 395l170 255h-340zM428 350l170 -255v510zM228 50h340l-170 255zM198 605v-510l170 255z" />
    <glyph glyph-name=".null" horiz-adv-x="0" 
 />
    <glyph glyph-name="nonmarkingreturn" horiz-adv-x="333" 
 />
    <glyph glyph-name="space" unicode=" " horiz-adv-x="345" 
 />
    <glyph glyph-name="exclam" unicode="!" horiz-adv-x="270" 
d="M204 102l-22 -102h-89l22 102h89zM341 750l-123 -543h-73l107 543h89z" />
    <glyph glyph-name="quotedbl" unicode="&#x22;" horiz-adv-x="355" 
d="M210 750h94l-23 -111l-56 -135h-40l2 135zM369 750h94l-23 -111l-56 -135h-40l2 135z" />
    <glyph glyph-name="numbersign" unicode="#" 
d="M432 750h77l-79 -204h124l78 204h79l-78 -204h92l-17 -80h-107l-62 -163h101l-17 -80h-117l-85 -223h-76l84 223h-123l-87 -223h-75l84 223h-100l17 80h115l62 163h-105l17 80h119zM400 466l-62 -163h123l62 163h-123z" />
    <glyph glyph-name="dollar" unicode="$" 
d="M401 416l57 264q-32 0 -47 -0.5t-39 -2t-35 -4.5t-28 -9t-25 -15.5t-18 -23t-16.5 -32t-11.5 -42.5q-6 -29 -6 -51t5 -36.5t15.5 -24t25.5 -14t34 -7t41.5 -2.5h47.5zM452 346l-59 -276q52 0 79 2t56 8.5t44 21.5t28 40t21 65q7 33 8 56t-8 38t-16.5 23.5t-32.5 13
t-39.5 5.5t-53.5 2q-18 1 -27 1zM523 680l-57 -264q128 -2 169 -15q81 -24 81 -113q0 -31 -8 -70q-15 -71 -39.5 -114.5t-67.5 -66t-92.5 -30t-130.5 -7.5l-18 -85h-65l18 85q-46 0 -74.5 1t-61 5.5t-50 13t-34.5 23.5t-22.5 37t-5.5 53.5t9 73.5l6 26h85l-6 -26
q-7 -34 -9.5 -50.5t0 -35.5t12.5 -26t32 -14.5t53 -9t81 -1.5l59 276q-33 0 -52 0.5t-46.5 2.5t-43 5.5t-35.5 10.5t-30 16.5t-21 24t-14 33t-2 43.5t7 56q12 58 33 97t45.5 62t65 34.5t79 15t99.5 3.5l15 70h65l-15 -70q45 0 72 -1t58 -5t47.5 -11.5t32.5 -21t20.5 -33.5
t4.5 -48.5t-8 -66.5l-5 -23h-85l5 23q17 80 -10.5 98.5t-145.5 18.5z" />
    <glyph glyph-name="percent" unicode="%" horiz-adv-x="884" 
d="M830 132l23 110q12 55 -3.5 66.5t-85.5 11.5q-65 0 -84.5 -11.5t-31.5 -66.5l-23 -110q-13 -59 1 -71t80 -12q68 0 89.5 12t34.5 71zM913 240l-23 -110q-20 -86 -60.5 -111t-133.5 -25t-120.5 24.5t-11.5 110.5l24 110q20 86 58 111t130 25q32 0 53 -1.5t40 -6.5
t29 -14.5t16 -24.5t5.5 -36.5t-6.5 -51.5zM890 750l-669 -756h-67l666 756h70zM479 621l-23 -110q-20 -86 -60.5 -111t-133.5 -25t-120.5 24.5t-11.5 110.5l24 110q20 86 58 111t130 25q32 0 53 -1.5t40 -6.5t29 -14.5t16 -24.5t5.5 -36.5t-6.5 -51.5zM396 513l23 110
q12 55 -3.5 66.5t-85.5 11.5q-65 0 -84.5 -11.5t-31.5 -66.5l-23 -110q-13 -59 1 -71t80 -12q68 0 89.5 12t34.5 71z" />
    <glyph glyph-name="ampersand" unicode="&#x26;" horiz-adv-x="788" 
d="M594 144l-242 241q-86 -19 -111 -44.5t-44 -114.5q-8 -39 -11 -62.5t2 -43t14 -28t33.5 -15t52 -7.5t76.5 -1h24.5h27.5t26 0.5t28 2t25.5 4t26 6.5t22 9.5t21 13t16 17.5t13.5 22zM740 0l-91 92q-16 -24 -35.5 -41.5t-45.5 -27.5t-47.5 -16.5t-56.5 -9t-55.5 -3
t-60.5 -0.5q-37 0 -54 0.5t-48 2t-44.5 5.5t-35.5 12t-31 19.5t-20 29t-12.5 40.5t0 54.5t9.5 69.5q6 30 13 54t16.5 42.5t16 31.5t19.5 23.5t20 16.5t24.5 12t25.5 8.5t30 7.5t32 8q-33 33 -40.5 57.5t3.5 90.5q23 105 85.5 141t182.5 36q111 0 153 -38.5t19 -150.5
l-10 -47h-85l10 47q15 73 -3 93.5t-100 20.5q-38 0 -58.5 -2.5t-46 -11.5t-40 -30.5t-22.5 -57.5q-7 -41 -1 -60t31 -45l240 -245q2 9 6.5 25.5t6.5 24.5t3.5 16.5t3 19t2.5 16.5h78q-5 -36 -10 -59q-15 -67 -32 -105l114 -108z" />
    <glyph glyph-name="quotesingle" unicode="'" horiz-adv-x="191" 
d="M208 750h94l-23 -111l-56 -135h-40l2 135z" />
    <glyph glyph-name="parenleft" unicode="(" horiz-adv-x="312" 
d="M411 756l-16 -75h-27q-24 0 -43 -11.5t-30.5 -27t-21 -40t-13.5 -41t-9 -40.5l-93 -436q-5 -25 -8 -40.5t-4 -41t4 -40.5t19 -26.5t38 -11.5h27l-16 -75h-27q-43 0 -71.5 13t-42 33.5t-17 52.5t0 63t12.5 73l93 436q11 53 25 90.5t38 73t63 53.5t92 18h27z" />
    <glyph glyph-name="parenright" unicode=")" horiz-adv-x="312" 
d="M207 681l16 75h27q43 0 71.5 -13t42 -33t17 -52.5t0 -63.5t-12.5 -73l-93 -436q-12 -53 -25.5 -90.5t-37.5 -73t-63 -53.5t-92 -18h-27l16 75h27q29 0 50.5 15t35 44.5t19 48.5t12.5 52l93 436q4 18 5 24.5t4 25.5t2.5 27.5t-0.5 24.5t-4.5 24t-11 17t-18 13t-26.5 4h-27
z" />
    <glyph glyph-name="asterisk" unicode="*" 
d="M670 589l-166 -56l64 -131l-51 -33l-64 135l-129 -135l-37 33l124 131l-140 58l30 54l142 -57l34 162h55l-34 -162l165 57z" />
    <glyph glyph-name="plus" unicode="+" horiz-adv-x="584" 
d="M367 525h75l-44 -204h204l-16 -75h-204l-43 -205h-75l43 205h-205l16 75h205z" />
    <glyph glyph-name="comma" unicode="," horiz-adv-x="345" 
d="M159 0h-38l22 102h89l-26 -121q-9 -46 -30 -69.5t-67 -23.5h-23l10 45q28 1 40.5 11t18.5 37z" />
    <glyph glyph-name="hyphen" unicode="-" horiz-adv-x="261" 
d="M66 311h261l-16 -75h-261z" />
    <glyph glyph-name="period" unicode="." horiz-adv-x="345" 
d="M221 102l-22 -102h-89l22 102h89z" />
    <glyph glyph-name="slash" unicode="/" horiz-adv-x="727" 
d="M858 750l-763 -863h-91l761 863h93z" />
    <glyph glyph-name="zero" unicode="0" 
d="M489 681q-38 0 -57 -0.5t-47 -2t-40.5 -5t-31.5 -10t-28 -16.5t-21.5 -24t-19.5 -34.5t-15 -45.5t-15 -58l-47 -220q-8 -37 -12 -64.5t-1 -48.5t6.5 -34.5t19 -23.5t26.5 -14.5t40 -7t49.5 -3t63.5 -0.5q44 0 64.5 0.5t51 3t43.5 7t32.5 14.5t28.5 23.5t21 34.5
t19.5 48.5t15.5 64.5l47 220q6 30 10 53t3.5 42t-1 33t-9 25t-14 18t-22.5 12t-28 7.5t-37 4t-43 1.5h-52zM345 -6q-63 0 -104.5 3.5t-77.5 13.5t-55 28.5t-30 49t-9.5 73t13.5 103.5l47 220q21 90 48.5 143.5t75 82t102.5 37t150 8.5q63 0 104 -3.5t77.5 -13.5t55 -28.5
t29.5 -49t9.5 -73t-13.5 -103.5l-47 -220q-21 -90 -48.5 -143.5t-74.5 -82t-102 -37t-150 -8.5z" />
    <glyph glyph-name="one" unicode="1" 
d="M607 750l-159 -750h-85l146 685l-237 -211l-42 51l254 225h123z" />
    <glyph glyph-name="two" unicode="2" 
d="M628 75l-16 -75h-540l27 127q9 42 21.5 73t25.5 53.5t35.5 38.5t41 26t53 17t60.5 10.5t74 8.5q114 11 139 19q45 15 66 63q13 30 24 83q8 40 11 66t-2 45t-13 28.5t-30.5 15t-44 6.5t-62.5 1q-50 0 -78 -1t-55 -7t-39.5 -14.5t-24.5 -27t-18 -40.5t-13 -59l-8 -39h-85
l8 39q10 46 18.5 74t24.5 56.5t37.5 43.5t55.5 28t81 17.5t112 4.5q151 0 195.5 -48t14.5 -189q-11 -50 -24 -86t-33 -61.5t-41.5 -41.5t-56 -26.5t-68.5 -15.5t-87 -9q-125 -10 -167.5 -35t-59.5 -105l-14 -64h455z" />
    <glyph glyph-name="three" unicode="3" 
d="M349 347l16 75h89q85 2 108 10q43 16 63 85q4 13 7 29q7 34 9.5 53.5t-2 36.5t-14 24.5t-32.5 13t-50.5 6.5t-76.5 1q-59 0 -88 -3t-52.5 -18t-33.5 -38t-22 -70l-6 -32h-85l6 32q12 57 32 95t43 59.5t62.5 32.5t75 14t95.5 3q125 -1 166 -15q74 -25 70 -117
q-1 -28 -9 -63q-17 -83 -50.5 -126t-110.5 -49v-2q80 -6 100 -45.5t2 -126.5q-14 -64 -37 -106.5t-45.5 -65t-67 -33t-75 -12t-95.5 -1.5h-18q-40 0 -69 2t-57.5 7t-47 14t-33 24t-20.5 36t-5.5 50t8.5 66l11 50h85l-11 -50q-6 -27 -7.5 -44t-1.5 -31t9 -22t18 -13.5t32 -8
t44 -3.5t61 -2q46 2 78.5 0t57 5t40 14t27.5 26.5t19.5 43t16.5 63.5q6 27 6 47t-2.5 33.5t-14 22.5t-20 13.5t-30.5 6.5t-35.5 2.5t-43.5 0.5h-89z" />
    <glyph glyph-name="four" unicode="4" 
d="M696 750l-107 -504h109l-16 -75h-109l-36 -171h-85l36 171h-422l22 101l478 478h130zM504 246l96 449h-2l-446 -449h352z" />
    <glyph glyph-name="five" unicode="5" 
d="M309 675l-47 -224h2q51 62 215 62q68 0 113 -13.5t67 -33.5t28.5 -55.5t3.5 -68t-14 -82.5q-16 -73 -33 -118t-39.5 -76.5t-60 -46t-82 -20t-117.5 -5.5q-47 0 -78.5 2t-61 6.5t-47 14t-31 24t-18.5 36.5t-4.5 51t6.5 69l3 18h86l-6 -25q-5 -25 -5 -43.5t3.5 -31.5
t15.5 -21.5t23 -13.5t34.5 -7.5t42.5 -3t53 -0.5q56 0 89 5t57.5 14.5t39 34t24 53.5t21.5 84q9 42 12 69t-1.5 48.5t-13.5 32.5t-31.5 17.5t-48.5 8.5t-70 2q-5 0 -27.5 0.5t-33 0t-31 -2t-33 -6t-27.5 -12t-25.5 -19.5t-16.5 -29h-85l80 380h510l-16 -75h-425z" />
    <glyph glyph-name="six" unicode="6" 
d="M446 389q-56 0 -86.5 -2t-60.5 -8.5t-45 -21.5t-27 -38t-20 -60q-10 -45 -13.5 -71t-1.5 -50t11 -35.5t30.5 -20t50.5 -11t76 -2.5q49 0 79.5 2t55.5 10t37.5 16.5t24 30.5t17 42t13.5 59q24 107 1 133.5t-142 26.5zM122 259l63 297q15 65 42 106t71.5 61t91.5 26.5
t120 6.5h41.5t39.5 -1.5t39.5 -4.5t34 -9t30 -14t21.5 -21.5t15.5 -30t4 -40t-5.5 -51.5l-5 -24h-85l4 21q4 19 5 33t-3.5 24.5t-9 18t-17.5 12t-22 7t-29.5 4t-33.5 1.5h-40h-43.5t-36 -1t-33 -3t-26.5 -6t-25 -10.5t-18.5 -15.5t-17.5 -22t-12.5 -29.5t-11.5 -37.5
l-34 -161h2q43 69 206 69q57 0 93 -2.5t68 -11.5t48 -24.5t25.5 -42t7 -64t-13.5 -90.5q-16 -77 -38.5 -122t-62.5 -71t-91 -34t-136 -8q-57 0 -93.5 3.5t-68 13.5t-47 28t-24 48t-5 71.5t15.5 100.5z" />
    <glyph glyph-name="seven" unicode="7" 
d="M769 750l-22 -107l-501 -643h-100l539 680h-477l14 70h547z" />
    <glyph glyph-name="eight" unicode="8" 
d="M278 389v2q-71 13 -87.5 50.5t3.5 120.5q9 40 21 69.5t25.5 50.5t35.5 34.5t41.5 21.5t53 12t61.5 5t74 1t72 -1t58 -4.5t48.5 -11.5t33 -22t21.5 -34.5t5 -50.5t-9 -70q-17 -82 -47 -120.5t-108 -51.5v-1q72 -12 91 -51.5t-2 -130.5q-13 -58 -29.5 -95.5t-39 -62
t-61 -36t-81.5 -15.5t-114 -4q-131 0 -172 13q-69 21 -74 98q-2 41 11 102q19 90 50.5 129.5t118.5 52.5zM279 562q-10 -48 -10.5 -70.5t15 -40.5t50 -22.5t101.5 -4.5t102.5 4t59.5 21.5t33.5 40.5t19.5 72q7 34 8 52t-4.5 33.5t-26.5 21.5t-51.5 9t-85.5 3
q-91 0 -128.5 -8.5t-54 -30.5t-28.5 -80zM194 207q-7 -34 -10 -52.5t0.5 -36t13 -25t32 -14t51.5 -8t79 -2.5q123 -2 164.5 24t59.5 114q7 33 9.5 54t-2 38t-14.5 26t-32.5 15t-51 7.5t-74.5 1.5t-73 -1t-53 -6.5t-39 -14t-26 -25.5t-20 -38.5t-14 -56.5z" />
    <glyph glyph-name="nine" unicode="9" 
d="M427 366q48 0 75 1t53 7t38.5 14.5t25 27.5t19 41.5t14.5 60.5q6 31 9.5 53t1 39.5t-5.5 29t-15.5 20t-22.5 12.5t-33 6t-40.5 2.5t-51.5 0.5q-50 0 -75 -1t-52.5 -6.5t-38.5 -14.5t-24.5 -29t-20.5 -45t-16 -67q-8 -37 -10.5 -60.5t2.5 -42t14 -27t33 -14.5t49.5 -7
t71.5 -1zM98 163l6 28h85l-6 -28q-14 -63 19 -78.5t162 -15.5q46 0 70 1t51 6.5t40 15t27 28.5t22 45t17 66l27 125l-2 2q-45 -69 -199 -67h-6q-56 0 -92.5 3t-68 11.5t-48 24t-25.5 41t-7.5 61t12.5 86.5q17 79 38.5 124.5t61.5 71.5t90.5 34t137.5 8q56 0 93.5 -3.5
t69 -13t47.5 -25.5t24.5 -43t6 -64t-13.5 -89l-61 -287q-16 -76 -34 -117.5t-55 -71t-92 -39t-147 -9.5q-40 0 -63 0.5t-54.5 2.5t-48.5 7t-37.5 13t-29.5 20.5t-17 29.5t-7 41t7 55z" />
    <glyph glyph-name="colon" unicode=":" horiz-adv-x="345" 
d="M221 102l-22 -102h-89l22 102h89zM311 525l-22 -102h-89l22 102h89z" />
    <glyph glyph-name="semicolon" unicode=";" horiz-adv-x="345" 
d="M159 0h-38l22 102h89l-26 -121q-9 -46 -30 -69.5t-67 -23.5h-23l10 45q28 1 40.5 11t18.5 37zM322 525l-22 -102h-89l22 102h89z" />
    <glyph glyph-name="less" unicode="&#x3c;" horiz-adv-x="584" 
d="M637 484l-17 -80l-430 -162l361 -162l-17 -80l-440 207l15 70z" />
    <glyph glyph-name="equal" unicode="=" horiz-adv-x="584" 
d="M135 399h484l-16 -75h-484zM102 244h484l-16 -75h-484z" />
    <glyph glyph-name="greater" unicode="&#x3e;" horiz-adv-x="584" 
d="M593 277l-15 -70l-528 -207l17 80l425 162l-356 162l17 80z" />
    <glyph glyph-name="question" unicode="?" horiz-adv-x="584" 
d="M344 214h-85l6 27q15 71 47.5 99.5t127.5 60.5q50 19 69 31t32 38.5t25 85.5q18 82 -5 103.5t-118 21.5q-43 0 -66 -1.5t-46.5 -8t-35.5 -20.5t-22 -36.5t-18 -58.5l-9 -43h-80l9 43q13 54 31.5 91t40 58.5t56 32.5t68 14.5t88.5 3.5q128 0 170 -41t17 -159
q-11 -52 -21 -81t-29 -58.5t-49.5 -48t-78.5 -34.5q-71 -23 -90 -37t-28 -56zM323 102l-22 -102h-89l22 102h89z" />
    <glyph glyph-name="at" unicode="@" horiz-adv-x="990" 
d="M761 550h71l-149 -280q-11 -22 0.5 -33t44.5 -11q44 0 85.5 37.5t66.5 87.5t36 99q15 71 -21.5 128t-100.5 85.5t-137 27.5q-87 0 -176 -49t-152.5 -129.5t-80.5 -168.5q-21 -124 55 -204.5t203 -80.5q75 1 174 30l13 -58q-105 -36 -199 -37q-161 -2 -258 99t-61 259
q40 163 187.5 283.5t307.5 120.5q67 0 129 -20t110 -57t70.5 -95t7.5 -127q-23 -110 -107 -200.5t-188 -90.5q-89 0 -84 65q-38 -32 -67 -47.5t-65 -15.5q-67 -3 -96.5 47.5t-12.5 118.5q24 90 100.5 161t165.5 75q37 2 66 -20.5t30 -56.5h2zM689 445q4 31 -14.5 48
t-49.5 17q-61 0 -113.5 -56.5t-70.5 -122.5q-9 -39 10 -73t58 -34q41 0 83 41.5t67 92t30 87.5z" />
    <glyph glyph-name="A" unicode="A" horiz-adv-x="685" 
d="M566 159h-379l-92 -159h-89l432 750h120l121 -750h-88zM557 229l-71 451l-261 -451h332z" />
    <glyph glyph-name="B" unicode="B" horiz-adv-x="694" 
d="M220 348l-58 -273h269q77 0 111.5 22.5t52.5 103.5q10 50 9 83t-26 49t-79 15h-279zM460 0h-399l159 750h380q101 0 127.5 -47t4.5 -151q-13 -64 -40.5 -102t-86.5 -56l-1 -2q46 -9 67 -35t20 -63t-10 -85q-22 -104 -75 -156.5t-146 -52.5zM289 675l-53 -252h247
q79 0 114 27.5t53 112.5q15 71 -8.5 91.5t-96.5 20.5h-256z" />
    <glyph glyph-name="C" unicode="C" horiz-adv-x="665" 
d="M382 -6h-120q-103 0 -147.5 62t-20.5 174l62 290q13 62 38.5 106t56 69t76 39t88.5 18t104 4h70q115 0 149 -50.5t10 -165.5l-5 -24h-85l4 21q17 82 -2 113t-99 31h-48q-139 0 -195 -29.5t-77 -128.5l-44 -206q-10 -50 -15 -78.5t-7 -61t4 -49.5t19 -32t37 -21t59 -6h101
q105 0 146.5 24t57.5 102l13 60h85l-15 -70q-11 -50 -31.5 -85.5t-46 -56t-63.5 -31.5t-73 -14.5t-86 -3.5z" />
    <glyph glyph-name="D" unicode="D" horiz-adv-x="734" 
d="M64 0l159 750h365q24 0 43 -1.5t46 -7.5t45.5 -17t37.5 -33t27.5 -51.5t8.5 -75.5t-12 -103l-38 -179q-7 -31 -15.5 -58.5t-31.5 -71.5t-53 -75t-81.5 -54t-115.5 -23h-385zM165 75h280q55 0 93 15t62 47t37.5 68t26.5 92l42 197q5 22 5 47t-7.5 58t-37.5 54.5t-80 21.5
h-294z" />
    <glyph glyph-name="E" unicode="E" horiz-adv-x="560" 
d="M269 675l-54 -255h380l-15 -70h-380l-58 -275h397l-16 -75h-482l159 750h482l-16 -75h-397z" />
    <glyph glyph-name="F" unicode="F" horiz-adv-x="549" 
d="M293 675l-55 -262h365l-15 -70h-365l-73 -343h-85l159 750h460l-16 -75h-375z" />
    <glyph glyph-name="G" unicode="G" horiz-adv-x="696" 
d="M419 375h324l-35 -163q-27 -127 -94 -172.5t-201 -45.5h-82q-54 0 -90.5 4t-69 14.5t-50 29t-27.5 48.5t-8 72.5t14 100.5l49 232q30 143 100.5 202t175.5 59h197q91 0 137 -40.5t27 -126.5l-12 -58h-85l9 43q13 64 -14 85.5t-119 21.5h-105q-84 0 -125 -16t-63 -54.5
t-40 -125.5l-51 -241q-23 -105 10 -140t141 -35h80q113 0 152 24.5t58 113.5l20 93h-239z" />
    <glyph glyph-name="H" unicode="H" horiz-adv-x="750" 
d="M839 750l-159 -750h-85l73 345h-439l-73 -345h-85l159 750h85l-70 -330h439l70 330h85z" />
    <glyph glyph-name="I" unicode="I" horiz-adv-x="228" 
d="M316 750l-159 -750h-85l159 750h85z" />
    <glyph glyph-name="J" unicode="J" horiz-adv-x="565" 
d="M568 750h84l-121 -569q-22 -105 -89 -146t-178 -41q-30 0 -53.5 1.5t-48.5 6t-41.5 12.5t-32.5 20.5t-21.5 30.5t-8.5 42t6 56l23 110h85l-18 -85q-16 -72 4 -95.5t107 -23.5q31 0 47 0.5t42 6t41 15t29 29.5t20 49z" />
    <glyph glyph-name="K" unicode="K" horiz-adv-x="678" 
d="M316 750l-69 -328h74l375 328h111l-420 -363l302 -387h-115l-269 347h-74l-74 -347h-85l159 750h85z" />
    <glyph glyph-name="L" unicode="L" horiz-adv-x="558" 
d="M319 750l-143 -675h382l-16 -75h-467l159 750h85z" />
    <glyph glyph-name="M" unicode="M" horiz-adv-x="965" 
d="M954 686l-429 -686h-84l-138 686h-2l-146 -686h-85l159 750h147l129 -642l402 642h147l-159 -750h-85l146 686h-2z" />
    <glyph glyph-name="N" unicode="N" horiz-adv-x="783" 
d="M874 750l-159 -750h-139l-276 680h-2l-145 -680h-85l159 750h140l275 -685h2l145 685h85z" />
    <glyph glyph-name="O" unicode="O" horiz-adv-x="671" 
d="M446 756h101q139 -1 179.5 -55.5t10.5 -196.5l-57 -267q-28 -133 -94 -188t-201 -55h-101q-135 0 -178 55t-15 188l57 267q30 142 94 196.5t204 55.5zM531 681h-101q-96 0 -135 -34.5t-62 -142.5l-57 -267q-9 -45 -9 -75t7 -48.5t26 -28t41.5 -13t58.5 -3.5h101
q46 0 73.5 5.5t52.5 23t40.5 51t27.5 88.5l57 267q23 108 -1 142.5t-120 34.5z" />
    <glyph glyph-name="P" unicode="P" horiz-adv-x="661" 
d="M59 0l159 750h382q69 0 104.5 -30t37.5 -80.5t-11 -116.5q-6 -30 -12 -51t-23.5 -58t-40 -61t-63.5 -42.5t-93 -18.5h-293l-62 -292h-85zM547 675h-260l-65 -308h220q32 0 46 0.5t37.5 3t34.5 8t26.5 15.5t24 25.5t17.5 38.5t16 54q12 55 13 86t-11.5 49t-34.5 23t-64 5z
" />
    <glyph glyph-name="Q" unicode="Q" horiz-adv-x="737" 
d="M754 92l-48 -58l-48 38q-79 -78 -233 -78h-117q-154 0 -193 64t-5 223l45 212q29 139 101 199t214 64h117q144 0 190 -58.5t15 -204.5l-45 -212q-21 -98 -48 -147zM449 326l186 -142q8 13 19 59l59 279q17 78 -7 118.5t-118 40.5h-143q-94 0 -138 -37.5t-64 -133.5
l-51 -244q-14 -63 -14.5 -101t15.5 -59.5t44 -29t78 -7.5h143q99 0 142 47l-202 152z" />
    <glyph glyph-name="R" unicode="R" horiz-adv-x="701" 
d="M218 300l-64 -300h-85l159 750h346q126 0 170 -46t18 -170q-10 -46 -20 -74.5t-29 -57.5t-49.5 -45t-75.5 -21v-2q120 -9 92 -135l-42 -199h-85l34 159q16 76 -3 108.5t-93 32.5h-273zM234 375h262q50 2 80.5 10t50.5 29.5t30 49.5t21 79q11 48 8 77t-32 42t-95 13h-262z
" />
    <glyph glyph-name="S" unicode="S" horiz-adv-x="629" 
d="M385 346q-16 1 -43 3t-42 3t-37.5 3.5t-35.5 6t-29.5 10.5t-25 16.5t-17.5 23t-11 31.5t-1 42t7 53q13 59 33.5 99.5t45 64t65 35.5t79 15.5t101.5 3.5q42 0 67 -1t57 -5t49.5 -12.5t35 -24t23.5 -37.5t5 -55t-12 -76h-85q6 35 8 56t-4 37.5t-14 24t-32 12t-47.5 5.5
t-69.5 1q-85 0 -126 -10.5t-59.5 -35t-30.5 -79.5q-7 -32 -8.5 -55t9.5 -37.5t16.5 -22.5t33.5 -12.5t39.5 -5t54.5 -1.5q7 0 11 -0.5t10.5 -0.5h12.5q126 -7 160 -17q63 -18 72 -77q7 -42 -8 -114q-8 -39 -19 -70t-26.5 -53.5t-30 -39t-38.5 -26.5t-43.5 -16.5t-52.5 -9.5
t-58 -3.5t-67 -0.5q-64 0 -103.5 4t-74.5 18t-49 40t-14 70t18 108h85q-7 -32 -11 -54.5t-2.5 -41t3.5 -29.5t14.5 -19.5t20.5 -12t33 -6t41.5 -2.5h54.5t55 0.5t44 2t38 5t28.5 11t24.5 17.5t17 26t16 36.5t12 48.5q6 27 6.5 46.5t-1.5 32.5t-11.5 22t-18 13.5t-27.5 7
t-33 3.5t-41 2t-47 3z" />
    <glyph glyph-name="T" unicode="T" horiz-adv-x="579" 
d="M475 675l-143 -675h-85l143 675h-243l16 75h571l-16 -75h-243z" />
    <glyph glyph-name="U" unicode="U" horiz-adv-x="737" 
d="M740 750h85l-114 -540q-11 -49 -27.5 -85.5t-42 -60t-51.5 -38t-65 -21.5t-72.5 -9t-84.5 -2q-30 0 -48.5 0.5t-45 1.5t-42 4.5t-36.5 8.5t-32.5 13.5t-24.5 20t-19 27.5t-10 36t-2 46.5t9 57.5l114 540h85l-114 -540q-8 -39 -8 -62t8 -40t32 -24.5t58 -11t92 -3.5
q36 0 53.5 0.5t43.5 2t38.5 5t30.5 10.5t26.5 17t19.5 25t17.5 35t12.5 46z" />
    <glyph glyph-name="V" unicode="V" horiz-adv-x="643" 
d="M717 750h91l-425 -750h-121l-109 750h91l91 -685h3z" />
    <glyph glyph-name="W" unicode="W" horiz-adv-x="1123" 
d="M1280 750l-395 -750h-129l-53 675h-2l-342 -675h-127l-71 750h87l59 -685h2l347 685h125l55 -685h2l354 685h88z" />
    <glyph glyph-name="X" unicode="X" horiz-adv-x="653" 
d="M800 750l-317 -362l176 -388h-100l-155 345l-306 -345h-104l350 388l-169 362h102l145 -321l278 321h100z" />
    <glyph glyph-name="Y" unicode="Y" horiz-adv-x="632" 
d="M797 750l-376 -437l-67 -313h-85l67 313l-183 437h99l148 -351l296 351h101z" />
    <glyph glyph-name="Z" unicode="Z" horiz-adv-x="637" 
d="M760 750l-16 -79l-599 -596h482l-16 -75h-585l16 74l598 601h-457l16 75h561z" />
    <glyph glyph-name="bracketleft" unicode="[" horiz-adv-x="311" 
d="M216 756h194l-16 -75h-109l-161 -756h109l-16 -75h-194z" />
    <glyph glyph-name="backslash" unicode="\" horiz-adv-x="278" 
d="M213 -113l-104 863h93l102 -863h-91z" />
    <glyph glyph-name="bracketright" unicode="]" horiz-adv-x="311" 
d="M224 -150h-194l16 75h109l161 756h-109l16 75h194z" />
    <glyph glyph-name="asciicircum" unicode="^" horiz-adv-x="584" 
d="M416 750h70l103 -489h-80l-78 391l-246 -391h-80z" />
    <glyph glyph-name="underscore" unicode="_" horiz-adv-x="500" 
d="M484 -75l-11 -50h-500l11 50h500z" />
    <glyph glyph-name="grave" unicode="`" horiz-adv-x="338" 
d="M273 743l124 -113l-35 -41l-141 100z" />
    <glyph glyph-name="a" unicode="a" horiz-adv-x="570" 
d="M275 58q30 0 48 1t43 6t40.5 15t29 29t19.5 47q4 18 4.5 32.5t-4 24.5t-8.5 17.5t-16.5 12t-20 7t-27 3.5t-30.5 1h-36q-77 0 -107.5 -15.5t-43.5 -75.5q-15 -70 8.5 -87.5t100.5 -17.5zM503 0h-79l11 54l-1 2q-20 -28 -54.5 -42.5t-61.5 -17t-70 -2.5q-32 0 -55.5 2.5
t-46.5 8.5t-36.5 17t-24.5 29t-9.5 43t6.5 59q21 101 76 133t164 32q153 0 153 -53h5l21 97q14 67 -14 86t-104 19q-32 0 -49.5 -1.5t-43 -7.5t-40 -21.5t-19.5 -41.5l-4 -18h-82l2 11q8 39 25.5 66.5t37.5 42.5t51.5 23t58.5 9.5t68 1.5q32 0 54.5 -1t47 -5t40.5 -11.5
t30 -20t20 -31t6 -44.5t-7 -60z" />
    <glyph glyph-name="b" unicode="b" horiz-adv-x="574" 
d="M497 262q28 129 10 167t-112 38q-42 0 -70 -8t-47 -20.5t-32.5 -40.5t-21.5 -56t-19 -80q-26 -128 -5.5 -166t108.5 -38q42 0 71 8.5t47 21t31.5 41.5t21 55.5t18.5 77.5zM68 0l159 750h79l-62 -293h2q43 74 185 74q53 0 88 -13t52.5 -34t22.5 -57t1 -73.5t-16 -91.5
q-15 -72 -31 -115.5t-45 -81.5t-74 -54.5t-112 -16.5q-134 0 -154 70l-3 -2l-13 -62h-79z" />
    <glyph glyph-name="c" unicode="c" horiz-adv-x="546" 
d="M466 190h79l-6 -29q-9 -43 -27 -74t-40.5 -49t-55 -28t-63 -13t-72.5 -3q-106 0 -151 29t-44.5 91t21.5 159q15 70 32 113.5t47.5 78.5t78 50.5t117.5 15.5q26 0 46 -1t42 -3.5t37.5 -8t30 -13.5t23.5 -20t14.5 -28.5t5 -39t-6.5 -49.5l-3 -14h-79l4 16q4 20 4 35
t-3 25.5t-12.5 17.5t-18 11t-26 5.5t-30.5 2t-37 0.5q-43 0 -70.5 -7.5t-45.5 -19t-31.5 -42.5t-21 -59t-20.5 -88q-17 -73 -17 -116t30 -60t106 -17q79 0 111.5 19t46.5 87z" />
    <glyph glyph-name="d" unicode="d" horiz-adv-x="574" 
d="M292 58q91 0 127 40t63 164q16 72 15.5 117.5t-28 66.5t-90.5 21q-49 0 -76 -6t-50 -28t-37 -61t-29 -110q-15 -69 -16.5 -109t13 -61.5t38.5 -27.5t70 -6zM426 0l14 66l-2 2q-30 -43 -76 -58.5t-108 -15.5q-89 0 -129 34t-38 93.5t18 140.5q14 68 29 110t43.5 82
t75.5 58.5t115 18.5q143 0 154 -71h2l61 290h79l-159 -750h-79z" />
    <glyph glyph-name="e" unicode="e" horiz-adv-x="565" 
d="M465 159h81l-4 -19q-9 -40 -28 -68.5t-40.5 -43.5t-56 -23t-61.5 -9.5t-69 -1.5q-148 0 -182.5 59t3.5 209q34 163 92.5 216t200.5 53q54 0 88 -6t58.5 -20t33.5 -41t8 -67t-14 -99l-11 -53h-378q-10 -46 -14 -72t-3 -50t7.5 -34.5t23.5 -18.5t39.5 -10t60.5 -2
q86 0 118 14t43 67zM200 309h296q11 59 12.5 88t-12.5 46.5t-36.5 20.5t-72.5 3q-54 0 -85 -6.5t-51 -28.5t-28.5 -46t-22.5 -77z" />
    <glyph glyph-name="f" unicode="f" horiz-adv-x="302" 
d="M279 525h139l-14 -64h-139l-98 -461h-79l98 461h-80l14 64h80l13 63q20 96 64 132t141 36q16 0 48 -2l-13 -64q-32 2 -49 2q-57 0 -77.5 -20t-32.5 -76z" />
    <glyph glyph-name="g" unicode="g" horiz-adv-x="573" 
d="M289 58q37 0 65 6t48 21.5t32.5 29.5t22.5 43t15 47.5t13 56.5q16 72 17 118t-27.5 66.5t-98.5 20.5q-24 0 -44 -3t-35 -6.5t-28 -13.5t-21.5 -16.5t-17 -24t-12.5 -26.5t-10.5 -34t-9 -37t-9.5 -44q-22 -102 -20 -129q2 -56 62 -70q25 -5 58 -5zM620 525l-125 -587
q-21 -97 -90.5 -134t-177.5 -37q-34 0 -58 2t-50 8.5t-39.5 18t-25.5 30.5t-9.5 46.5t9.5 65.5h79q-15 -70 10.5 -88.5t97.5 -18.5q80 0 120 21t56 92l26 121h-2q-40 -71 -184 -71q-83 0 -123 29.5t-43.5 89t16.5 149.5q30 144 83.5 206.5t180.5 62.5q64 0 102.5 -15
t50.5 -58l3 1l14 66h79z" />
    <glyph glyph-name="h" unicode="h" horiz-adv-x="580" 
d="M307 750l-61 -289h2q42 70 177 70q107 0 145 -38.5t14 -143.5l-74 -349h-79l75 355q15 69 -8 90.5t-94 21.5q-94 0 -132.5 -34t-58.5 -127l-65 -306h-79l159 750h79z" />
    <glyph glyph-name="i" unicode="i" horiz-adv-x="215" 
d="M259 525l-112 -525h-79l112 525h79zM306 750l-18 -87h-79l18 87h79z" />
    <glyph glyph-name="j" unicode="j" horiz-adv-x="209" 
d="M259 525l-125 -588q-19 -73 -48 -109.5t-96 -36.5q-18 0 -38 5l13 61q3 0 8 -0.5t7 -0.5q9 0 17.5 2t14.5 4t11.5 8t9 9t7.5 12t6 12.5t4.5 15t3.5 14t3.5 15.5t2.5 15l120 562h79zM306 750l-18 -87h-79l18 87h79z" />
    <glyph glyph-name="k" unicode="k" horiz-adv-x="487" 
d="M306 750l-92 -434h32l234 209h97l-277 -241l206 -284h-104l-169 252h-32l-54 -252h-79l159 750h79z" />
    <glyph glyph-name="l" unicode="l" horiz-adv-x="214" 
d="M306 750l-159 -750h-79l159 750h79z" />
    <glyph glyph-name="m" unicode="m" horiz-adv-x="919" 
d="M257 525l-18 -81h2q55 87 194 87q57 0 99 -20t44 -67q62 87 206 87q100 0 132 -43t11 -142l-74 -346h-79l72 338q19 67 1.5 98t-89.5 31q-87 0 -130 -31t-61 -114l-68 -322h-79l75 352q5 35 6.5 60.5t-22 40t-77.5 14.5q-79 0 -126 -36t-64 -115l-67 -316h-79l112 525h79
z" />
    <glyph glyph-name="n" unicode="n" horiz-adv-x="580" 
d="M260 525l-14 -64h2q42 70 177 70q107 0 145 -38.5t14 -143.5l-74 -349h-79l75 355q15 69 -8 90.5t-94 21.5q-94 0 -132.5 -34t-58.5 -127l-65 -306h-79l112 525h79z" />
    <glyph glyph-name="o" unicode="o" horiz-adv-x="570" 
d="M108 262q35 167 89.5 218t200.5 51q51 0 84.5 -4.5t58 -16.5t36.5 -30t15.5 -50t-1.5 -71t-17 -97q-35 -166 -89.5 -217t-200.5 -51q-51 0 -84.5 4t-58 16.5t-36.5 30.5t-15.5 49.5t1.5 70.5t17 97zM190 262q-11 -51 -16 -79t-4.5 -54.5t6.5 -37.5t22.5 -20t38.5 -11
t60 -2t61 2t43.5 11t31.5 20t22.5 37.5t18.5 54.5t18 79t16 79.5t4.5 54.5t-6.5 37.5t-23 20.5t-39 11t-60 2t-61 -2t-43.5 -11t-31 -20t-22 -38t-18.5 -55t-18 -79z" />
    <glyph glyph-name="p" unicode="p" horiz-adv-x="573" 
d="M393 467q-32 0 -56.5 -5t-41.5 -11t-31 -21.5t-22 -27.5t-16.5 -39t-12.5 -45t-12 -56q-9 -44 -13 -70t-2 -55t14.5 -44t38.5 -25t67 -10q91 0 126.5 38t62.5 166q29 118 11.5 161.5t-113.5 43.5zM257 525l-14 -64l2 -2q53 72 184 72q47 0 79.5 -8.5t51 -27t27.5 -39.5
t8.5 -55t-4.5 -64t-14 -75q-34 -155 -90 -211.5t-172 -56.5q-136 0 -155 68h-2l-61 -289h-79l160 752h79z" />
    <glyph glyph-name="q" unicode="q" horiz-adv-x="575" 
d="M296 58q93 0 128 44.5t59 159.5q11 52 15 78.5t2 56t-16 42t-41 20.5t-72 8q-57 0 -87 -13.5t-52.5 -57t-41.5 -134.5q-8 -38 -12 -58t-6.5 -46t0.5 -38.5t10.5 -27t22.5 -20.5t37 -10t54 -4zM620 525l-160 -752h-79l61 287h-2q-43 -66 -168 -66q-51 0 -83.5 6.5
t-56.5 23t-33 47t-7 77t16 114.5q12 57 23.5 94.5t32 73.5t49 56.5t71.5 32.5t102 12q117 0 139 -71l2 2l14 63h79z" />
    <glyph glyph-name="r" unicode="r" horiz-adv-x="442" 
d="M170 525h77l-18 -65l1 -2q50 73 165 73q146 0 114 -148l-8 -38h-75l8 35q10 49 -5 68t-65 19q-71 0 -107.5 -34t-49.5 -106l-70 -327h-79z" />
    <glyph glyph-name="s" unicode="s" horiz-adv-x="537" 
d="M571 408l-5 -20h-82l5 20q4 19 0 30.5t-22 16t-34.5 5.5t-55.5 1t-54.5 -0.5t-39.5 -3.5t-34 -9.5t-19.5 -19t-13.5 -31.5q-13 -61 1 -74.5t70 -15.5q12 -1 18 -1q16 -1 39.5 -2t38.5 -1.5t35.5 -2t33.5 -4.5t28.5 -8t24 -12.5t17 -19.5t11.5 -27t2 -35.5t-6 -45.5
q-8 -36 -21 -62.5t-32.5 -43t-39 -27t-49 -15t-52 -5.5t-57.5 -1q-42 0 -68.5 1.5t-59.5 8.5t-50.5 19.5t-26.5 36t-2 57.5l10 49h82l-8 -41q-8 -37 19.5 -49t118.5 -12q4 0 20.5 -0.5t23.5 0t22.5 2t23.5 4.5t20 9t19.5 14.5t14 21.5t10.5 30q4 21 5 35.5t-3.5 23.5t-9 14
t-18.5 7.5t-24 3t-32 1t-37 1.5q-12 1 -37 2t-37.5 2t-33.5 4t-31.5 7t-25.5 11t-21.5 17t-12 24.5t-5 34t5.5 43.5q8 37 20 64t31.5 44t37.5 26.5t50 14t55.5 5.5t67.5 1q45 0 72 -3t59.5 -13.5t44.5 -37.5t3 -69z" />
    <glyph glyph-name="t" unicode="t" horiz-adv-x="366" 
d="M458 525l-14 -64h-203l-71 -333q-8 -43 3.5 -56.5t55.5 -13.5q27 0 44 6t26.5 20.5t13.5 26.5t9 36l9 39h75l-9 -39q-17 -79 -60 -116t-123 -37q-91 0 -114.5 32.5t-3.5 125.5l66 309h-70l14 64h70l27 127h79l-27 -127h203z" />
    <glyph glyph-name="u" unicode="u" horiz-adv-x="570" 
d="M420 0l15 70h-2q-50 -76 -180 -76q-103 0 -136 44.5t-11 149.5l72 337h79l-72 -337q-9 -43 -10 -71.5t20 -43.5t70 -15q91 0 135.5 27.5t63.5 115.5l69 324h79l-112 -525h-80z" />
    <glyph glyph-name="v" unicode="v" horiz-adv-x="453" 
d="M569 525l-288 -525h-111l-62 525h80l50 -465h2l243 465h86z" />
    <glyph glyph-name="w" unicode="w" horiz-adv-x="754" 
d="M863 525l-259 -525h-115l-12 470h-2l-213 -470h-116l-30 525h81l19 -470h2l215 470h113l14 -470h2l219 470h82z" />
    <glyph glyph-name="x" unicode="x" horiz-adv-x="454" 
d="M550 525l-221 -251l129 -274h-95l-91 212l-181 -212h-95l248 274l-116 251h89l81 -192l160 192h92z" />
    <glyph glyph-name="y" unicode="y" horiz-adv-x="437" 
d="M553 525l-271 -562q-16 -33 -21 -43t-21 -38.5t-25.5 -38.5t-27.5 -29t-34.5 -26.5t-40 -14t-49.5 -6.5q-9 0 -34 5l13 61q12 -3 27 -3q23 0 43 11t35.5 32.5t25 39.5t23 47.5t18.5 39.5h-28l-78 525h81l62 -467h2l218 467h82z" />
    <glyph glyph-name="z" unicode="z" horiz-adv-x="454" 
d="M542 525l-16 -73l-395 -388h313l-14 -64h-405l16 73l395 388h-287l14 64h379z" />
    <glyph glyph-name="braceleft" unicode="{" horiz-adv-x="334" 
d="M105 266l15 75q49 6 71 36.5t36 95.5l34 164q10 48 47 83.5t61 35.5h83l-16 -75h-44q-21 0 -32 -15t-17 -46l-35 -163q-10 -47 -35.5 -84.5t-41.5 -50t-28 -19.5q61 -54 40 -154l-35 -162q-7 -29 -2.5 -45.5t25.5 -16.5h44l-16 -75h-83q-24 0 -45.5 35t-11.5 84l35 164
q16 57 6.5 92t-55.5 41z" />
    <glyph glyph-name="bar" unicode="|" horiz-adv-x="468" 
d="M282 872h64v-1162h-64v1162z" />
    <glyph glyph-name="braceright" unicode="}" horiz-adv-x="334" 
d="M358 340l-16 -75q-48 -6 -70 -36.5t-36 -95.5l-35 -164q-10 -48 -46.5 -83.5t-60.5 -35.5h-83l16 75h44q21 0 32 15t17 46l35 163q8 36 23.5 66t34 48.5t28 26.5t18.5 13q-59 59 -39 154l35 162q7 29 2.5 45.5t-25.5 16.5h-44l16 75h83q24 0 45.5 -35t10.5 -84l-34 -164
q-16 -57 -6.5 -92t55.5 -41z" />
    <glyph glyph-name="asciitilde" unicode="~" horiz-adv-x="584" 
d="M166 215h-70q10 41 26.5 73.5t47.5 59.5t71 31q39 3 64 -14l127 -88q23 -15 44 -13q26 0 42.5 26t19.5 59h70q-7 -56 -51 -108.5t-99 -52.5q-41 -2 -84 28l-104 76q-16 16 -37 16t-42 -28.5t-25 -64.5z" />
    <glyph glyph-name="uni00A0" unicode="&#xa0;" horiz-adv-x="345" 
 />
    <glyph glyph-name="exclamdown" unicode="&#xa1;" horiz-adv-x="270" 
d="M289 525l-22 -102h-89l22 102h89zM40 -225l124 543h73l-108 -543h-89z" />
    <glyph glyph-name="cent" unicode="&#xa2;" 
d="M330 142l87 407q-35 -1 -59 -11t-39 -22.5t-27 -42t-18 -52.5t-16 -73t-14.5 -78.5t-4 -56t10.5 -40.5t29 -21t51 -10zM446 687h65l-15 -73q89 -2 128.5 -41t16.5 -136h-80q17 63 0 86.5t-79 25.5l-87 -407q62 0 91.5 20t44.5 82l6 29h80l-6 -29q-23 -95 -77 -132
t-153 -35l-17 -83h-65l17 83q-45 -1 -76.5 8t-49 28t-26.5 42t-8.5 57t4.5 64t13 72q14 65 28.5 106t42.5 80.5t74 58.5t113 21z" />
    <glyph glyph-name="sterling" unicode="&#xa3;" 
d="M519 363l-15 -70h-213l-13 -62q-7 -38 -10.5 -52t-14 -39.5t-28 -42t-44.5 -31.5l2 -2l486 9l-16 -73h-582l14 64q27 4 46 18.5t31.5 44.5t16.5 44t12 52q1 5 2 8l13 62h-92l15 70h92l36 168q16 73 39 118t61 68.5t80 31t109 7.5q152 0 194 -41.5t14 -172.5l-3 -16h-80
l3 16q19 90 -3.5 114.5t-122.5 24.5q-66 0 -96.5 -3t-54 -21t-32.5 -43t-23 -83l-36 -168h213z" />
    <glyph glyph-name="currency" unicode="&#xa4;" 
d="M240 497l66 57l45 -59q54 22 98 24q50 2 97 -24l68 54l46 -61l-70 -55q13 -31 8 -85q-10 -53 -53 -106l45 -57l-69 -55l-42 55q-55 -31 -107 -33q-36 -1 -87 25l-65 -51l-43 59l60 51q-23 40 -7 104q16 70 55 97zM385 217q44 0 89 32t57 91q12 54 -20 84t-76 30
t-87 -30.5t-53 -86.5q-14 -57 16.5 -88.5t73.5 -31.5z" />
    <glyph glyph-name="yen" unicode="&#xa5;" 
d="M614 512h102l-15 -70h-145l-92 -112h213l-15 -70h-223l-55 -260h-85l55 260h-216l15 70h206l-43 112h-139l15 70h98l-93 238h99l136 -351l281 351h98z" />
    <glyph glyph-name="brokenbar" unicode="&#xa6;" horiz-adv-x="468" 
d="M282 784h63v-406h-63v406zM282 203h63v-405h-63v405z" />
    <glyph glyph-name="section" unicode="&#xa7;" 
d="M297 207l137 -41q70 -22 102.5 0.5t49.5 101.5q2 9 2 17t-1 14t-4.5 12t-6 9.5t-9.5 8t-10 6.5t-12 5.5t-12.5 4.5l-14 4t-13.5 4l-130 41q-66 25 -100.5 6t-50.5 -96q-10 -49 4.5 -65.5t60.5 -29.5q5 -1 8 -2zM434 85l-196 55q-72 21 -89.5 50.5t-0.5 109.5
q12 58 37 92.5t78 43.5v2q-21 12 -29 34.5t-6.5 44t8.5 51.5q9 45 21 76.5t31 52.5t37 32.5t50 17.5t59.5 7.5t76.5 1.5q53 0 86.5 -2.5t60.5 -11t39.5 -21t18.5 -36t3 -53.5t-12 -75h-75q10 47 11 69.5t-14.5 37.5t-44 18.5t-88.5 3.5q-93 0 -117 -8q-43 -13 -59 -73
q-3 -9 -5 -19q-5 -24 -7.5 -38t1 -26.5t6.5 -18t18.5 -13t26 -11t40.5 -12.5l138 -41q76 -24 91 -33q46 -27 37 -95q-1 -11 -4 -23q-27 -126 -104 -147v-2q23 -9 35.5 -23.5t15 -36t0.5 -41t-8 -47.5q-7 -36 -17 -63.5t-24 -48t-27.5 -35t-35 -23.5t-38.5 -14.5t-46.5 -8
t-50.5 -3t-58 -0.5q-53 0 -84 2t-63.5 8.5t-47.5 20t-26 36.5t-9.5 58t12.5 84h75q-13 -54 -9.5 -84.5t39.5 -42.5t128 -12h20q88 -1 118 14q50 23 68 108q12 57 -4 75t-74 33q-4 1 -7 1.5t-6 1.5z" />
    <glyph glyph-name="dieresis" unicode="&#xa8;" horiz-adv-x="438" 
d="M302 653l-16 -74h-88l16 74h88zM502 653l-16 -74h-88l16 74h88z" />
    <glyph glyph-name="copyright" unicode="&#xa9;" horiz-adv-x="780" 
d="M552 756q158 0 245.5 -111.5t54.5 -269.5q-34 -159 -169 -270t-293 -111q-159 0 -247.5 111t-54.5 270q33 158 169 269.5t295 111.5zM539 696q-133 0 -247 -93.5t-142 -225.5q-29 -134 45 -228.5t207 -94.5t246.5 94.5t141.5 228.5q28 132 -45.5 225.5t-205.5 93.5z
M590 305h60q-22 -67 -81.5 -107.5t-127.5 -40.5q-94 0 -139.5 63t-25.5 158q21 96 90.5 157.5t165.5 61.5q70 0 111.5 -38.5t37.5 -105.5h-60q1 44 -25.5 68.5t-73.5 24.5q-73 0 -121 -46t-64 -121q-16 -73 14 -122t101 -49q46 0 84 25.5t54 71.5z" />
    <glyph glyph-name="ordfeminine" unicode="&#xaa;" horiz-adv-x="440" 
d="M403 435l6 24l-2 2q-33 -32 -117 -32q-63 0 -92.5 20t-17.5 78q13 61 49.5 82.5t102.5 21.5q83 0 101 -25q16 56 6.5 79t-66.5 23q-51 0 -70 -8.5t-23 -40.5h-60q6 27 18 46t25 29t34.5 15t37.5 6t42 1q20 0 34 -0.5t31 -3t26 -7t20 -12t13.5 -19t5 -27.5t-4.5 -37
l-46 -215h-53zM309 477q24 0 37 1t30 5.5t26.5 16t13.5 29.5q8 35 -10 44.5t-64 9.5q-52 0 -71.5 -8.5t-26.5 -41.5q-6 -16 -2.5 -26.5l5.5 -16.5t13.5 -9t20.5 -3.5t28 -0.5z" />
    <glyph glyph-name="guillemotleft" unicode="&#xab;" horiz-adv-x="503" 
d="M313 575l51 -35l-172 -251l78 -253l-63 -36l-90 289zM498 575l51 -35l-172 -251l78 -253l-63 -36l-90 289z" />
    <glyph glyph-name="logicalnot" unicode="&#xac;" horiz-adv-x="584" 
d="M486 129l42 195h-409l16 75h484l-58 -270h-75z" />
    <glyph glyph-name="uni00AD" unicode="&#xad;" horiz-adv-x="261" 
d="M66 311h261l-16 -75h-261z" />
    <glyph glyph-name="registered" unicode="&#xae;" horiz-adv-x="780" 
d="M552 756q158 0 245.5 -111.5t54.5 -269.5q-34 -159 -169 -270t-293 -111q-159 0 -247.5 111t-54.5 270q33 158 169 269.5t295 111.5zM539 696q-133 0 -247 -93.5t-142 -225.5q-29 -134 45 -228.5t207 -94.5t246.5 94.5t141.5 228.5q28 132 -45.5 225.5t-205.5 93.5z
M529 354l86 -193h-67l-82 187h-83l-40 -187h-60l91 427h186q68 0 105 -25t23 -88q-13 -60 -55.5 -89.5t-103.5 -31.5zM423 537l-29 -138h112q106 0 122 77q6 26 -9.5 40.5t-34 17.5t-47.5 3h-114z" />
    <glyph glyph-name="macron" unicode="&#xaf;" horiz-adv-x="434" 
d="M217 648h276l-14 -64h-276z" />
    <glyph glyph-name="degree" unicode="&#xb0;" horiz-adv-x="400" 
d="M479 606q-13 -62 -66.5 -106t-115.5 -44t-96.5 44t-21.5 106q12 61 66 105.5t116 44.5q61 0 96 -44t22 -106zM429 606q8 41 -15.5 70.5t-64.5 29.5q-40 0 -76 -29.5t-44 -70.5q-9 -42 14.5 -71t64.5 -29t76.5 29t44.5 71z" />
    <glyph glyph-name="plusminus" unicode="&#xb1;" horiz-adv-x="584" 
d="M367 525h75l-33 -152h204l-16 -75h-204l-32 -152h-75l32 152h-205l16 75h205zM52 10l16 75h484l-16 -75h-484z" />
    <glyph glyph-name="twosuperior" unicode="&#xb2;" horiz-adv-x="414" 
d="M182 362h286l-13 -60h-351l16 76q18 83 59 107.5t142 33.5q76 8 92 15q29 14 41 65q2 7 3 14q12 56 -4.5 69.5t-82.5 13.5q-81 0 -102.5 -12t-30.5 -63l-5 -23h-65l5 23q7 33 14 52.5t20.5 37.5t35.5 26.5t56 13.5t85 5q99 0 128.5 -29t10.5 -114q-18 -87 -60.5 -117
t-139.5 -37q-75 -5 -100.5 -18t-34.5 -56z" />
    <glyph glyph-name="threesuperior" unicode="&#xb3;" horiz-adv-x="414" 
d="M287 508l12 55h58q28 0 35 0.5t23 3.5t21 10t12 19.5t11 33.5q10 48 -6 59.5t-95 11.5q-63 0 -83 -11.5t-31 -56.5l-4 -19h-65l4 19q17 80 59.5 101.5t138.5 21.5q22 0 30 -0.5t27 -1t26 -2l21 -4.5t19 -7t14 -10.5t11 -15t4.5 -19.5t1.5 -25.5t-5 -31.5
q-11 -51 -32 -76.5t-70 -28.5l-1 -2q52 -4 65.5 -27.5t2.5 -75.5q-8 -38 -23 -63.5t-30.5 -39t-46 -20t-51.5 -7.5t-66 -1q-93 0 -128.5 23t-18.5 97l6 30h65l-5 -25q-10 -48 5 -58t88 -12q84 -1 106.5 11.5t34.5 70.5q3 16 3.5 27.5t-1 19.5t-8.5 13t-11.5 7.5t-18 4
t-20.5 1.5h-26h-58z" />
    <glyph glyph-name="acute" unicode="&#xb4;" horiz-adv-x="338" 
d="M382 743l27 -54l-182 -100l-18 41z" />
    <glyph glyph-name="mu" unicode="&#xb5;" horiz-adv-x="570" 
d="M422 0l15 70h-2q-50 -76 -180 -76q-71 0 -105 20l-51 -241h-79l160 752h79l-72 -337q-9 -43 -10 -71.5t20 -43.5t70 -15q91 0 135.5 27.5t63.5 115.5l69 324h79l-112 -525h-80z" />
    <glyph glyph-name="paragraph" unicode="&#xb6;" 
d="M612 -209h-75l189 889h-89l-189 -889h-75l106 503h-175q-34 0 -58 3t-47 11.5t-37 24.5t-22 40.5t-7 61t12 85.5q24 118 79 174t177 56h414zM494 364l68 316h-175q-82 0 -109.5 -31.5t-47.5 -128.5q-9 -41 -9 -69.5t6 -45t20.5 -26t30.5 -12.5t41 -3h175z" />
    <glyph glyph-name="periodcentered" unicode="&#xb7;" horiz-adv-x="345" 
d="M288 335l-21 -102h-89l21 102h89z" />
    <glyph glyph-name="cedilla" unicode="&#xb8;" horiz-adv-x="270" 
d="M121 -40l48 -30l-100 -107l-38 23z" />
    <glyph glyph-name="onesuperior" unicode="&#xb9;" horiz-adv-x="414" 
d="M430 756l-97 -454h-65l86 406l-152 -128l-25 41l163 135h90z" />
    <glyph glyph-name="ordmasculine" unicode="&#xba;" horiz-adv-x="440" 
d="M386 756q88 0 109 -32.5t-1 -128.5q-20 -98 -52.5 -132t-125.5 -34q-99 0 -120 32t2 134q10 48 20.5 75t31 48.5t52.5 29.5t84 8zM375 708q-64 0 -82 -18t-35 -95q-7 -33 -10 -49.5t-2 -32.5t3.5 -21t15 -10t23.5 -5h38q57 0 74.5 20.5t33.5 97.5q17 70 8 91.5t-67 21.5z
" />
    <glyph glyph-name="guillemotright" unicode="&#xbb;" horiz-adv-x="503" 
d="M369 540l65 35l74 -286l-212 -289l-47 36l184 253zM184 540l65 35l74 -286l-212 -289l-47 36l184 253z" />
    <glyph glyph-name="onequarter" unicode="&#xbc;" horiz-adv-x="1035" 
d="M1011 450l-64 -299h66l-13 -60h-66l-19 -91h-65l19 91h-269l16 72l303 287h92zM962 750l-668 -750h-67l665 750h70zM882 151l55 256h-3l-271 -256h219zM438 750l-95 -450h-65l85 402l-152 -128l-25 41l162 135h90z" />
    <glyph glyph-name="onehalf" unicode="&#xbd;" horiz-adv-x="1035" 
d="M943 750l-668 -750h-67l665 750h70zM340 750h90l-95 -450h-65l85 402l-152 -128l-25 41zM714 60h286l-13 -60h-351l16 76q18 83 59 107.5t142 33.5q76 8 92 15q28 13 41 65q1 7 3 14q12 56 -4.5 69.5t-82.5 13.5q-81 0 -102.5 -12t-30.5 -63l-5 -23h-65l5 23q12 56 27 81
t57.5 39.5t125.5 14.5q99 0 128.5 -29t11.5 -114q-19 -87 -61 -117t-140 -37q-75 -5 -100 -18t-34 -56z" />
    <glyph glyph-name="threequarters" unicode="&#xbe;" horiz-adv-x="1035" 
d="M1021 450l-64 -299h66l-13 -60h-66l-19 -91h-65l19 91h-269l16 72l303 287h92zM892 151l55 256h-3l-271 -256h219zM1009 750l-668 -750h-67l665 750h70zM294 508l12 55h58q28 0 35 0.5t23 3.5t21 10t12 19.5t11 33.5q10 48 -6 59.5t-95 11.5q-63 0 -83 -11.5t-31 -56.5
l-4 -19h-65l4 19q17 80 59.5 101.5t138.5 21.5q22 0 30 -0.5t27 -1t26 -2l21 -4.5t19 -7t14 -10.5t11 -15t4.5 -19.5t1.5 -25.5t-5 -31.5q-11 -51 -32 -76.5t-70 -28.5l-1 -2q52 -4 65.5 -27.5t2.5 -75.5q-8 -39 -22.5 -64t-29 -38.5t-44 -20t-49 -7.5t-62.5 -1h-10
q-93 0 -128.5 23t-18.5 97l6 30h65l-5 -25q-10 -48 5 -58t88 -12q84 -1 106.5 11.5t34.5 70.5q3 16 3.5 27.5t-1 19.5t-8.5 13t-11.5 7.5t-18 4t-20.5 1.5h-26h-58z" />
    <glyph glyph-name="questiondown" unicode="&#xbf;" horiz-adv-x="584" 
d="M352 309h85l-6 -27q-15 -71 -47.5 -99.5t-127.5 -60.5q-50 -19 -69 -31t-32 -38.5t-25 -85.5q-18 -82 5 -103.5t118 -21.5q43 0 66 1.5t46.5 8t35.5 20.5t22 36.5t18 58.5l9 43h80l-9 -43q-13 -54 -31.5 -91t-40 -58.5t-56 -32.5t-68 -14.5t-88.5 -3.5q-128 0 -170 41
t-17 159q11 52 21 81t29 58.5t49.5 48t78.5 34.5q71 23 90 37t28 56zM484 525l-22 -102h-89l22 102h89z" />
    <glyph glyph-name="Agrave" unicode="&#xc0;" horiz-adv-x="685" 
d="M566 159h-379l-92 -159h-89l432 750h120l121 -750h-88zM557 229l-71 451l-261 -451h332zM495 968l124 -113l-35 -41l-141 100z" />
    <glyph glyph-name="Aacute" unicode="&#xc1;" horiz-adv-x="685" 
d="M566 159h-379l-92 -159h-89l432 750h120l121 -750h-88zM557 229l-71 451l-261 -451h332zM604 968l27 -54l-182 -100l-18 41z" />
    <glyph glyph-name="Acircumflex" unicode="&#xc2;" horiz-adv-x="685" 
d="M566 159h-379l-92 -159h-89l432 750h120l121 -750h-88zM557 229l-71 451l-261 -451h332zM548 961l150 -108l-33 -42l-132 76l-172 -76l-12 42z" />
    <glyph glyph-name="Atilde" unicode="&#xc3;" horiz-adv-x="685" 
d="M566 159h-379l-92 -159h-89l432 750h120l121 -750h-88zM557 229l-71 451l-261 -451h332zM663 914l37 -28q-59 -75 -119 -75q-22 0 -68 22q-46 21 -63 21q-14 0 -25.5 -7t-16.5 -12.5t-17 -21.5l-40 26q55 74 112 74q21 0 69 -21q44 -22 64 -22q33 0 67 44z" />
    <glyph glyph-name="Adieresis" unicode="&#xc4;" horiz-adv-x="685" 
d="M566 159h-379l-92 -159h-89l432 750h120l121 -750h-88zM557 229l-71 451l-261 -451h332zM474 878l-16 -74h-88l16 74h88zM674 878l-16 -74h-88l16 74h88z" />
    <glyph glyph-name="Aring" unicode="&#xc5;" horiz-adv-x="685" 
d="M566 159h-379l-92 -159h-89l432 750h120l121 -750h-88zM557 229l-71 451l-261 -451h332zM442 874q8 35 38.5 61t65.5 26q36 0 56.5 -26t12.5 -61q-7 -36 -38.5 -61.5t-67.5 -25.5q-35 0 -55 25.5t-12 61.5zM480 874q-5 -20 6 -34.5t31 -14.5t38 14.5t22 34.5t-7.5 34.5
t-31.5 14.5t-36.5 -14.5t-21.5 -34.5z" />
    <glyph glyph-name="AE" unicode="&#xc6;" horiz-adv-x="1044" 
d="M757 675l-54 -255h375l-15 -70h-375l-58 -275h393l-16 -75h-478l33 155h-350l-120 -155h-100l573 750h601l-16 -75h-393zM578 230l94 445h-72l-333 -445h311z" />
    <glyph glyph-name="Ccedilla" unicode="&#xc7;" horiz-adv-x="665" 
d="M330 -40l48 -30l-100 -107l-38 23zM382 -6h-120q-103 0 -147.5 62t-20.5 174l62 290q13 62 38.5 106t56 69t76 39t88.5 18t104 4h70q115 0 149 -50.5t10 -165.5l-5 -24h-85l4 21q17 82 -2 113t-99 31h-48q-139 0 -195 -29.5t-77 -128.5l-44 -206q-10 -50 -15 -78.5
t-7 -61t4 -49.5t19 -32t37 -21t59 -6h101q105 0 146.5 24t57.5 102l13 60h85l-15 -70q-11 -50 -31.5 -85.5t-46 -56t-63.5 -31.5t-73 -14.5t-86 -3.5z" />
    <glyph glyph-name="Egrave" unicode="&#xc8;" horiz-adv-x="560" 
d="M269 675l-54 -255h380l-15 -70h-380l-58 -275h397l-16 -75h-482l159 750h482l-16 -75h-397zM432 968l124 -113l-35 -41l-141 100z" />
    <glyph glyph-name="Eacute" unicode="&#xc9;" horiz-adv-x="560" 
d="M269 675l-54 -255h380l-15 -70h-380l-58 -275h397l-16 -75h-482l159 750h482l-16 -75h-397zM541 968l27 -54l-182 -100l-18 41z" />
    <glyph glyph-name="Ecircumflex" unicode="&#xca;" horiz-adv-x="560" 
d="M269 675l-54 -255h380l-15 -70h-380l-58 -275h397l-16 -75h-482l159 750h482l-16 -75h-397zM486 961l150 -108l-33 -42l-132 76l-172 -76l-12 42z" />
    <glyph glyph-name="Edieresis" unicode="&#xcb;" horiz-adv-x="560" 
d="M269 675l-54 -255h380l-15 -70h-380l-58 -275h397l-16 -75h-482l159 750h482l-16 -75h-397zM411 878l-16 -74h-88l16 74h88zM611 878l-16 -74h-88l16 74h88z" />
    <glyph glyph-name="Igrave" unicode="&#xcc;" horiz-adv-x="228" 
d="M316 750l-159 -750h-85l159 750h85zM266 968l124 -113l-35 -41l-141 100z" />
    <glyph glyph-name="Iacute" unicode="&#xcd;" horiz-adv-x="228" 
d="M316 750l-159 -750h-85l159 750h85zM375 968l27 -54l-182 -100l-18 41z" />
    <glyph glyph-name="Icircumflex" unicode="&#xce;" horiz-adv-x="228" 
d="M316 750l-159 -750h-85l159 750h85zM320 961l150 -108l-33 -42l-132 76l-172 -76l-12 42z" />
    <glyph glyph-name="Idieresis" unicode="&#xcf;" horiz-adv-x="228" 
d="M316 750l-159 -750h-85l159 750h85zM245 878l-16 -74h-88l16 74h88zM445 878l-16 -74h-88l16 74h88z" />
    <glyph glyph-name="Eth" unicode="&#xd0;" horiz-adv-x="734" 
d="M159 421l70 329h365q24 0 43 -1.5t46 -7.5t45.5 -17t37.5 -33t27.5 -51.5t8.5 -75.5t-12 -103l-38 -179q-7 -31 -15.5 -58.5t-31.5 -71.5t-53 -75t-81.5 -54t-115.5 -23h-385l75 351h-103l14 70h103zM298 675l-54 -254h207l-14 -70h-207l-59 -276h280q55 0 93 15t62 47
t37.5 68t26.5 92l42 197q5 22 5 47t-7.5 58t-37.5 54.5t-80 21.5h-294z" />
    <glyph glyph-name="Ntilde" unicode="&#xd1;" horiz-adv-x="783" 
d="M874 750l-159 -750h-139l-276 680h-2l-145 -680h-85l159 750h140l275 -685h2l145 685h85zM712 914l37 -28q-59 -75 -119 -75q-22 0 -68 22q-46 21 -63 21q-14 0 -25.5 -7t-16.5 -12.5t-17 -21.5l-40 26q55 74 112 74q21 0 69 -21q44 -22 64 -22q33 0 67 44z" />
    <glyph glyph-name="Ograve" unicode="&#xd2;" horiz-adv-x="671" 
d="M446 756h101q139 -1 179.5 -55.5t10.5 -196.5l-57 -267q-28 -133 -94 -188t-201 -55h-101q-135 0 -178 55t-15 188l57 267q30 142 94 196.5t204 55.5zM531 681h-101q-96 0 -135 -34.5t-62 -142.5l-57 -267q-9 -45 -9 -75t7 -48.5t26 -28t41.5 -13t58.5 -3.5h101
q46 0 73.5 5.5t52.5 23t40.5 51t27.5 88.5l57 267q23 108 -1 142.5t-120 34.5zM468 968l124 -113l-35 -41l-141 100z" />
    <glyph glyph-name="Oacute" unicode="&#xd3;" horiz-adv-x="671" 
d="M446 756h101q139 -1 179.5 -55.5t10.5 -196.5l-57 -267q-28 -133 -94 -188t-201 -55h-101q-135 0 -178 55t-15 188l57 267q30 142 94 196.5t204 55.5zM531 681h-101q-96 0 -135 -34.5t-62 -142.5l-57 -267q-9 -45 -9 -75t7 -48.5t26 -28t41.5 -13t58.5 -3.5h101
q46 0 73.5 5.5t52.5 23t40.5 51t27.5 88.5l57 267q23 108 -1 142.5t-120 34.5zM597 968l27 -54l-182 -100l-18 41z" />
    <glyph glyph-name="Ocircumflex" unicode="&#xd4;" horiz-adv-x="671" 
d="M446 756h101q139 -1 179.5 -55.5t10.5 -196.5l-57 -267q-28 -133 -94 -188t-201 -55h-101q-135 0 -178 55t-15 188l57 267q30 142 94 196.5t204 55.5zM531 681h-101q-96 0 -135 -34.5t-62 -142.5l-57 -267q-9 -45 -9 -75t7 -48.5t26 -28t41.5 -13t58.5 -3.5h101
q46 0 73.5 5.5t52.5 23t40.5 51t27.5 88.5l57 267q23 108 -1 142.5t-120 34.5zM541 961l150 -108l-33 -42l-132 76l-172 -76l-12 42z" />
    <glyph glyph-name="Otilde" unicode="&#xd5;" horiz-adv-x="671" 
d="M446 756h101q139 -1 179.5 -55.5t10.5 -196.5l-57 -267q-28 -133 -94 -188t-201 -55h-101q-135 0 -178 55t-15 188l57 267q30 142 94 196.5t204 55.5zM531 681h-101q-96 0 -135 -34.5t-62 -142.5l-57 -267q-9 -45 -9 -75t7 -48.5t26 -28t41.5 -13t58.5 -3.5h101
q46 0 73.5 5.5t52.5 23t40.5 51t27.5 88.5l57 267q23 108 -1 142.5t-120 34.5zM656 914l37 -28q-59 -75 -119 -75q-22 0 -68 22q-46 21 -63 21q-14 0 -25.5 -7t-16.5 -12.5t-17 -21.5l-40 26q55 74 112 74q21 0 69 -21q44 -22 64 -22q33 0 67 44z" />
    <glyph glyph-name="Odieresis" unicode="&#xd6;" horiz-adv-x="671" 
d="M446 756h101q139 -1 179.5 -55.5t10.5 -196.5l-57 -267q-28 -133 -94 -188t-201 -55h-101q-135 0 -178 55t-15 188l57 267q30 142 94 196.5t204 55.5zM531 681h-101q-96 0 -135 -34.5t-62 -142.5l-57 -267q-9 -45 -9 -75t7 -48.5t26 -28t41.5 -13t58.5 -3.5h101
q46 0 73.5 5.5t52.5 23t40.5 51t27.5 88.5l57 267q23 108 -1 142.5t-120 34.5zM467 878l-16 -74h-88l16 74h88zM667 878l-16 -74h-88l16 74h88z" />
    <glyph glyph-name="multiply" unicode="&#xd7;" horiz-adv-x="584" 
d="M143 436l59 50l152 -194l234 194l39 -50l-234 -193l152 -193l-60 -50l-152 194l-234 -194l-38 50l234 193z" />
    <glyph glyph-name="Oslash" unicode="&#xd8;" horiz-adv-x="723" 
d="M715 559l-539 -433q12 -57 145 -57h136q89 0 130 40t59 127zM169 191l538 436q-8 32 -38.5 43t-81.5 11h-136q-113 0 -154.5 -40t-66.5 -159zM867 751l-19 -86l-54 -38q2 -7 3.5 -14.5t2 -16.5t0.5 -15t-1.5 -16.5t-2 -15.5t-3 -17.5t-3 -16t-3.5 -17.5t-4 -16l-52 -246
q-28 -133 -97.5 -187.5t-192.5 -54.5h-136q-77 0 -126.5 14t-74.5 61l-88 -68l17 81l55 44q-3 6 -2 43t7 67l52 246q18 83 47.5 138t72 84.5t90 40.5t112.5 11h136q135 0 175 -72z" />
    <glyph glyph-name="Ugrave" unicode="&#xd9;" horiz-adv-x="737" 
d="M740 750h85l-114 -540q-11 -49 -27.5 -85.5t-42 -60t-51.5 -38t-65 -21.5t-72.5 -9t-84.5 -2q-30 0 -48.5 0.5t-45 1.5t-42 4.5t-36.5 8.5t-32.5 13.5t-24.5 20t-19 27.5t-10 36t-2 46.5t9 57.5l114 540h85l-114 -540q-8 -39 -8 -62t8 -40t32 -24.5t58 -11t92 -3.5
q36 0 53.5 0.5t43.5 2t38.5 5t30.5 10.5t26.5 17t19.5 25t17.5 35t12.5 46zM481 968l124 -113l-35 -41l-141 100z" />
    <glyph glyph-name="Uacute" unicode="&#xda;" horiz-adv-x="737" 
d="M740 750h85l-114 -540q-11 -49 -27.5 -85.5t-42 -60t-51.5 -38t-65 -21.5t-72.5 -9t-84.5 -2q-30 0 -48.5 0.5t-45 1.5t-42 4.5t-36.5 8.5t-32.5 13.5t-24.5 20t-19 27.5t-10 36t-2 46.5t9 57.5l114 540h85l-114 -540q-8 -39 -8 -62t8 -40t32 -24.5t58 -11t92 -3.5
q36 0 53.5 0.5t43.5 2t38.5 5t30.5 10.5t26.5 17t19.5 25t17.5 35t12.5 46zM630 968l27 -54l-182 -100l-18 41z" />
    <glyph glyph-name="Ucircumflex" unicode="&#xdb;" horiz-adv-x="737" 
d="M740 750h85l-114 -540q-11 -49 -27.5 -85.5t-42 -60t-51.5 -38t-65 -21.5t-72.5 -9t-84.5 -2q-30 0 -48.5 0.5t-45 1.5t-42 4.5t-36.5 8.5t-32.5 13.5t-24.5 20t-19 27.5t-10 36t-2 46.5t9 57.5l114 540h85l-114 -540q-8 -39 -8 -62t8 -40t32 -24.5t58 -11t92 -3.5
q36 0 53.5 0.5t43.5 2t38.5 5t30.5 10.5t26.5 17t19.5 25t17.5 35t12.5 46zM574 961l150 -108l-33 -42l-132 76l-172 -76l-12 42z" />
    <glyph glyph-name="Udieresis" unicode="&#xdc;" horiz-adv-x="737" 
d="M740 750h85l-114 -540q-11 -49 -27.5 -85.5t-42 -60t-51.5 -38t-65 -21.5t-72.5 -9t-84.5 -2q-30 0 -48.5 0.5t-45 1.5t-42 4.5t-36.5 8.5t-32.5 13.5t-24.5 20t-19 27.5t-10 36t-2 46.5t9 57.5l114 540h85l-114 -540q-8 -39 -8 -62t8 -40t32 -24.5t58 -11t92 -3.5
q36 0 53.5 0.5t43.5 2t38.5 5t30.5 10.5t26.5 17t19.5 25t17.5 35t12.5 46zM500 878l-16 -74h-88l16 74h88zM700 878l-16 -74h-88l16 74h88z" />
    <glyph glyph-name="Yacute" unicode="&#xdd;" horiz-adv-x="632" 
d="M797 750l-376 -437l-67 -313h-85l67 313l-183 437h99l148 -351l296 351h101zM595 968l27 -54l-182 -100l-18 41z" />
    <glyph glyph-name="Thorn" unicode="&#xde;" horiz-adv-x="661" 
d="M59 0l159 750h85l-31 -146h297q69 0 104.5 -30t37.5 -80.5t-11 -116.5q-6 -30 -12 -51t-23.5 -58t-40 -61t-63.5 -42.5t-93 -18.5h-293l-31 -146h-85zM516 529h-260l-65 -308h220q32 0 46 0.5t37.5 3t34.5 8t26.5 15.5t24 25.5t17.5 38.5t16 54q12 55 13 86t-11.5 49
t-34.5 23t-64 5z" />
    <glyph glyph-name="germandbls" unicode="&#xdf;" horiz-adv-x="590" 
d="M83 0l125 587q22 103 76 136t167 33q28 0 50.5 -2t47 -7.5t39.5 -15.5t29 -26.5t14.5 -40t-3.5 -55.5q-20 -98 -126 -125l-1 -2q38 -6 61.5 -22t33.5 -35t11 -50.5t-3 -57.5t-13 -67q-10 -47 -18.5 -77.5t-26.5 -68t-40.5 -59t-60 -36.5t-85.5 -15q-66 0 -101.5 32.5
t-21.5 96.5l8 36h75l-4 -18q-18 -83 57 -83q38 0 59 12t40 53.5t37 126.5q12 62 15 106.5t-25.5 69t-94.5 24.5h-66l13 64h49q81 0 108 20t36 63q13 62 -11 78.5t-96 16.5q-71 0 -103.5 -19.5t-46.5 -85.5l-125 -587h-79z" />
    <glyph glyph-name="agrave" unicode="&#xe0;" horiz-adv-x="570" 
d="M275 58q30 0 48 1t43 6t40.5 15t29 29t19.5 47q4 18 4.5 32.5t-4 24.5t-8.5 17.5t-16.5 12t-20 7t-27 3.5t-30.5 1h-36q-77 0 -107.5 -15.5t-43.5 -75.5q-15 -70 8.5 -87.5t100.5 -17.5zM503 0h-79l11 54l-1 2q-20 -28 -54.5 -42.5t-61.5 -17t-70 -2.5q-32 0 -55.5 2.5
t-46.5 8.5t-36.5 17t-24.5 29t-9.5 43t6.5 59q21 101 76 133t164 32q153 0 153 -53h5l21 97q14 67 -14 86t-104 19q-32 0 -49.5 -1.5t-43 -7.5t-40 -21.5t-19.5 -41.5l-4 -18h-82l2 11q8 39 25.5 66.5t37.5 42.5t51.5 23t58.5 9.5t68 1.5q32 0 54.5 -1t47 -5t40.5 -11.5
t30 -20t20 -31t6 -44.5t-7 -60zM369 743l124 -113l-35 -41l-141 100z" />
    <glyph glyph-name="aacute" unicode="&#xe1;" horiz-adv-x="570" 
d="M275 58q30 0 48 1t43 6t40.5 15t29 29t19.5 47q4 18 4.5 32.5t-4 24.5t-8.5 17.5t-16.5 12t-20 7t-27 3.5t-30.5 1h-36q-77 0 -107.5 -15.5t-43.5 -75.5q-15 -70 8.5 -87.5t100.5 -17.5zM503 0h-79l11 54l-1 2q-20 -28 -54.5 -42.5t-61.5 -17t-70 -2.5q-32 0 -55.5 2.5
t-46.5 8.5t-36.5 17t-24.5 29t-9.5 43t6.5 59q21 101 76 133t164 32q153 0 153 -53h5l21 97q14 67 -14 86t-104 19q-32 0 -49.5 -1.5t-43 -7.5t-40 -21.5t-19.5 -41.5l-4 -18h-82l2 11q8 39 25.5 66.5t37.5 42.5t51.5 23t58.5 9.5t68 1.5q32 0 54.5 -1t47 -5t40.5 -11.5
t30 -20t20 -31t6 -44.5t-7 -60zM498 743l27 -54l-182 -100l-18 41z" />
    <glyph glyph-name="acircumflex" unicode="&#xe2;" horiz-adv-x="570" 
d="M275 58q30 0 48 1t43 6t40.5 15t29 29t19.5 47q4 18 4.5 32.5t-4 24.5t-8.5 17.5t-16.5 12t-20 7t-27 3.5t-30.5 1h-36q-77 0 -107.5 -15.5t-43.5 -75.5q-15 -70 8.5 -87.5t100.5 -17.5zM503 0h-79l11 54l-1 2q-20 -28 -54.5 -42.5t-61.5 -17t-70 -2.5q-32 0 -55.5 2.5
t-46.5 8.5t-36.5 17t-24.5 29t-9.5 43t6.5 59q21 101 76 133t164 32q153 0 153 -53h5l21 97q14 67 -14 86t-104 19q-32 0 -49.5 -1.5t-43 -7.5t-40 -21.5t-19.5 -41.5l-4 -18h-82l2 11q8 39 25.5 66.5t37.5 42.5t51.5 23t58.5 9.5t68 1.5q32 0 54.5 -1t47 -5t40.5 -11.5
t30 -20t20 -31t6 -44.5t-7 -60zM443 736l150 -108l-32 -42l-133 76l-171 -76l-13 42z" />
    <glyph glyph-name="atilde" unicode="&#xe3;" horiz-adv-x="570" 
d="M275 58q30 0 48 1t43 6t40.5 15t29 29t19.5 47q4 18 4.5 32.5t-4 24.5t-8.5 17.5t-16.5 12t-20 7t-27 3.5t-30.5 1h-36q-77 0 -107.5 -15.5t-43.5 -75.5q-15 -70 8.5 -87.5t100.5 -17.5zM503 0h-79l11 54l-1 2q-20 -28 -54.5 -42.5t-61.5 -17t-70 -2.5q-32 0 -55.5 2.5
t-46.5 8.5t-36.5 17t-24.5 29t-9.5 43t6.5 59q21 101 76 133t164 32q153 0 153 -53h5l21 97q14 67 -14 86t-104 19q-32 0 -49.5 -1.5t-43 -7.5t-40 -21.5t-19.5 -41.5l-4 -18h-82l2 11q8 39 25.5 66.5t37.5 42.5t51.5 23t58.5 9.5t68 1.5q32 0 54.5 -1t47 -5t40.5 -11.5
t30 -20t20 -31t6 -44.5t-7 -60zM558 689l37 -28q-59 -75 -118 -75q-23 0 -69 22q-46 21 -63 21q-14 0 -26 -7.5t-15 -11t-18 -22.5l-39 26q53 74 111 74q21 0 69 -21q44 -22 64 -22q33 0 67 44z" />
    <glyph glyph-name="adieresis" unicode="&#xe4;" horiz-adv-x="570" 
d="M275 58q30 0 48 1t43 6t40.5 15t29 29t19.5 47q4 18 4.5 32.5t-4 24.5t-8.5 17.5t-16.5 12t-20 7t-27 3.5t-30.5 1h-36q-77 0 -107.5 -15.5t-43.5 -75.5q-15 -70 8.5 -87.5t100.5 -17.5zM503 0h-79l11 54l-1 2q-20 -28 -54.5 -42.5t-61.5 -17t-70 -2.5q-32 0 -55.5 2.5
t-46.5 8.5t-36.5 17t-24.5 29t-9.5 43t6.5 59q21 101 76 133t164 32q153 0 153 -53h5l21 97q14 67 -14 86t-104 19q-32 0 -49.5 -1.5t-43 -7.5t-40 -21.5t-19.5 -41.5l-4 -18h-82l2 11q8 39 25.5 66.5t37.5 42.5t51.5 23t58.5 9.5t68 1.5q32 0 54.5 -1t47 -5t40.5 -11.5
t30 -20t20 -31t6 -44.5t-7 -60zM368 653l-16 -74h-88l16 74h88zM568 653l-16 -74h-88l16 74h88z" />
    <glyph glyph-name="aring" unicode="&#xe5;" horiz-adv-x="570" 
d="M275 58q30 0 48 1t43 6t40.5 15t29 29t19.5 47q4 18 4.5 32.5t-4 24.5t-8.5 17.5t-16.5 12t-20 7t-27 3.5t-30.5 1h-36q-77 0 -107.5 -15.5t-43.5 -75.5q-15 -70 8.5 -87.5t100.5 -17.5zM503 0h-79l11 54l-1 2q-20 -28 -54.5 -42.5t-61.5 -17t-70 -2.5q-32 0 -55.5 2.5
t-46.5 8.5t-36.5 17t-24.5 29t-9.5 43t6.5 59q21 101 76 133t164 32q153 0 153 -53h5l21 97q14 67 -14 86t-104 19q-32 0 -49.5 -1.5t-43 -7.5t-40 -21.5t-19.5 -41.5l-4 -18h-82l2 11q8 39 25.5 66.5t37.5 42.5t51.5 23t58.5 9.5t68 1.5q32 0 54.5 -1t47 -5t40.5 -11.5
t30 -20t20 -31t6 -44.5t-7 -60zM337 649q8 35 38.5 61t65.5 26q36 0 56.5 -26t12.5 -61q-7 -36 -38.5 -61.5t-67.5 -25.5q-35 0 -55 25.5t-12 61.5zM375 649q-5 -20 6.5 -34.5t31.5 -14.5t37 14.5t22 34.5q4 20 -7.5 34.5t-31.5 14.5t-36.5 -14.5t-21.5 -34.5z" />
    <glyph glyph-name="ae" unicode="&#xe6;" horiz-adv-x="932" 
d="M572 309h296q11 59 12.5 88t-12.5 46.5t-36.5 20.5t-72.5 3q-54 0 -85 -6.5t-51 -28.5t-28.5 -46t-22.5 -77zM317 254q-77 0 -107.5 -15.5t-43.5 -75.5q-15 -70 8.5 -87.5t100.5 -17.5q30 0 48 1t43 6t40.5 15t29 29t19.5 47q4 18 4.5 32.5t-4 24.5t-8.5 17.5t-16.5 12
t-20 7t-27 3.5t-30.5 1h-36zM480 265l21 97q14 67 -14 86t-104 19q-32 0 -49.5 -1.5t-43 -7.5t-40 -21.5t-19.5 -41.5l-4 -18h-82l2 11q8 39 25.5 66.5t37.5 42.5t51.5 23t58.5 9.5t68 1.5h7q168 1 172 -66q48 66 206 66q54 0 88 -6t58.5 -20t33.5 -41t8 -67t-14 -99
l-11 -53h-378q-10 -46 -14 -72t-3 -50t7.5 -34.5t23.5 -18.5t39.5 -10t60.5 -2q86 0 118 14t43 67l4 20h81l-4 -19q-9 -40 -28 -68.5t-40.5 -43.5t-56 -23t-61.5 -9.5t-69 -1.5q-38 0 -62 2t-53.5 10t-46 26.5t-19.5 48.5h-2q-28 -53 -86 -70t-142 -17q-32 0 -55.5 2.5
t-46.5 8.5t-36.5 17t-24.5 29t-9.5 43t6.5 59q21 101 76 133t164 32q153 0 153 -53h5z" />
    <glyph glyph-name="ccedilla" unicode="&#xe7;" horiz-adv-x="546" 
d="M270 -40l48 -30l-100 -107l-38 23zM466 190h79l-6 -29q-9 -43 -27 -74t-40.5 -49t-55 -28t-63 -13t-72.5 -3q-106 0 -151 29t-44.5 91t21.5 159q15 70 32 113.5t47.5 78.5t78 50.5t117.5 15.5q26 0 46 -1t42 -3.5t37.5 -8t30 -13.5t23.5 -20t14.5 -28.5t5 -39t-6.5 -49.5
l-3 -14h-79l4 16q4 20 4 35t-3 25.5t-12.5 17.5t-18 11t-26 5.5t-30.5 2t-37 0.5q-43 0 -70.5 -7.5t-45.5 -19t-31.5 -42.5t-21 -59t-20.5 -88q-17 -73 -17 -116t30 -60t106 -17q79 0 111.5 19t46.5 87z" />
    <glyph glyph-name="egrave" unicode="&#xe8;" horiz-adv-x="565" 
d="M465 159h81l-4 -19q-9 -40 -28 -68.5t-40.5 -43.5t-56 -23t-61.5 -9.5t-69 -1.5q-148 0 -182.5 59t3.5 209q34 163 92.5 216t200.5 53q54 0 88 -6t58.5 -20t33.5 -41t8 -67t-14 -99l-11 -53h-378q-10 -46 -14 -72t-3 -50t7.5 -34.5t23.5 -18.5t39.5 -10t60.5 -2
q86 0 118 14t43 67zM200 309h296q11 59 12.5 88t-12.5 46.5t-36.5 20.5t-72.5 3q-54 0 -85 -6.5t-51 -28.5t-28.5 -46t-22.5 -77zM367 743l124 -113l-35 -41l-141 100z" />
    <glyph glyph-name="eacute" unicode="&#xe9;" horiz-adv-x="565" 
d="M465 159h81l-4 -19q-9 -40 -28 -68.5t-40.5 -43.5t-56 -23t-61.5 -9.5t-69 -1.5q-148 0 -182.5 59t3.5 209q34 163 92.5 216t200.5 53q54 0 88 -6t58.5 -20t33.5 -41t8 -67t-14 -99l-11 -53h-378q-10 -46 -14 -72t-3 -50t7.5 -34.5t23.5 -18.5t39.5 -10t60.5 -2
q86 0 118 14t43 67zM200 309h296q11 59 12.5 88t-12.5 46.5t-36.5 20.5t-72.5 3q-54 0 -85 -6.5t-51 -28.5t-28.5 -46t-22.5 -77zM496 743l27 -54l-182 -100l-18 41z" />
    <glyph glyph-name="ecircumflex" unicode="&#xea;" horiz-adv-x="565" 
d="M465 159h81l-4 -19q-9 -40 -28 -68.5t-40.5 -43.5t-56 -23t-61.5 -9.5t-69 -1.5q-148 0 -182.5 59t3.5 209q34 163 92.5 216t200.5 53q54 0 88 -6t58.5 -20t33.5 -41t8 -67t-14 -99l-11 -53h-378q-10 -46 -14 -72t-3 -50t7.5 -34.5t23.5 -18.5t39.5 -10t60.5 -2
q86 0 118 14t43 67zM200 309h296q11 59 12.5 88t-12.5 46.5t-36.5 20.5t-72.5 3q-54 0 -85 -6.5t-51 -28.5t-28.5 -46t-22.5 -77zM440 736l150 -108l-32 -42l-133 76l-171 -76l-13 42z" />
    <glyph glyph-name="edieresis" unicode="&#xeb;" horiz-adv-x="565" 
d="M465 159h81l-4 -19q-9 -40 -28 -68.5t-40.5 -43.5t-56 -23t-61.5 -9.5t-69 -1.5q-148 0 -182.5 59t3.5 209q34 163 92.5 216t200.5 53q54 0 88 -6t58.5 -20t33.5 -41t8 -67t-14 -99l-11 -53h-378q-10 -46 -14 -72t-3 -50t7.5 -34.5t23.5 -18.5t39.5 -10t60.5 -2
q86 0 118 14t43 67zM200 309h296q11 59 12.5 88t-12.5 46.5t-36.5 20.5t-72.5 3q-54 0 -85 -6.5t-51 -28.5t-28.5 -46t-22.5 -77zM366 653l-16 -74h-88l16 74h88zM566 653l-16 -74h-88l16 74h88z" />
    <glyph glyph-name="igrave" unicode="&#xec;" horiz-adv-x="215" 
d="M259 525l-112 -525h-79l112 525h79zM212 743l124 -113l-35 -41l-141 100z" />
    <glyph glyph-name="iacute" unicode="&#xed;" horiz-adv-x="215" 
d="M259 525l-112 -525h-79l112 525h79zM321 743l27 -54l-182 -100l-18 41z" />
    <glyph glyph-name="icircumflex" unicode="&#xee;" horiz-adv-x="215" 
d="M259 525l-112 -525h-79l112 525h79zM265 736l150 -108l-32 -42l-133 76l-171 -76l-13 42z" />
    <glyph glyph-name="idieresis" unicode="&#xef;" horiz-adv-x="215" 
d="M259 525l-112 -525h-79l112 525h79zM191 653l-16 -74h-88l16 74h88zM391 653l-16 -74h-88l16 74h88z" />
    <glyph glyph-name="eth" unicode="&#xf0;" horiz-adv-x="570" 
d="M190 262q-11 -51 -16 -79t-4.5 -54.5t6.5 -37.5t22.5 -20t38.5 -11t60 -2t61 2t43.5 11t31.5 20t22.5 37.5t18.5 54.5t18 79t16 79.5t4.5 54.5t-6.5 37.5t-23 20.5t-39 11t-60 2t-61 -2t-43.5 -11t-31 -20t-22 -38t-18.5 -55t-18 -79zM342 732l77 24q51 -36 82 -74
l111 34l38 -41l-117 -34q92 -133 53 -323q-16 -77 -29.5 -126t-32 -87.5t-37 -58.5t-50 -32.5t-65 -16t-88.5 -3.5q-51 0 -84.5 4t-58 16.5t-36.5 30.5t-15.5 49.5t1.5 70.5t17 97q35 167 89.5 218t200.5 51q47 0 68.5 -6.5t42.5 -24.5q-12 56 -56 118l-119 -35l-36 37
l126 38q-62 59 -82 74z" />
    <glyph glyph-name="ntilde" unicode="&#xf1;" horiz-adv-x="580" 
d="M260 525l-14 -64h2q42 70 177 70q107 0 145 -38.5t14 -143.5l-74 -349h-79l75 355q15 69 -8 90.5t-94 21.5q-94 0 -132.5 -34t-58.5 -127l-65 -306h-79l112 525h79zM563 689l37 -28q-59 -75 -118 -75q-23 0 -69 22q-46 21 -63 21q-14 0 -26 -7.5t-15 -11t-18 -22.5
l-39 26q53 74 111 74q21 0 69 -21q44 -22 64 -22q33 0 67 44z" />
    <glyph glyph-name="ograve" unicode="&#xf2;" horiz-adv-x="570" 
d="M108 262q35 167 89.5 218t200.5 51q51 0 84.5 -4.5t58 -16.5t36.5 -30t15.5 -50t-1.5 -71t-17 -97q-35 -166 -89.5 -217t-200.5 -51q-51 0 -84.5 4t-58 16.5t-36.5 30.5t-15.5 49.5t1.5 70.5t17 97zM190 262q-11 -51 -16 -79t-4.5 -54.5t6.5 -37.5t22.5 -20t38.5 -11
t60 -2t61 2t43.5 11t31.5 20t22.5 37.5t18.5 54.5t18 79t16 79.5t4.5 54.5t-6.5 37.5t-23 20.5t-39 11t-60 2t-61 -2t-43.5 -11t-31 -20t-22 -38t-18.5 -55t-18 -79zM369 743l124 -113l-35 -41l-141 100z" />
    <glyph glyph-name="oacute" unicode="&#xf3;" horiz-adv-x="570" 
d="M108 262q35 167 89.5 218t200.5 51q51 0 84.5 -4.5t58 -16.5t36.5 -30t15.5 -50t-1.5 -71t-17 -97q-35 -166 -89.5 -217t-200.5 -51q-51 0 -84.5 4t-58 16.5t-36.5 30.5t-15.5 49.5t1.5 70.5t17 97zM190 262q-11 -51 -16 -79t-4.5 -54.5t6.5 -37.5t22.5 -20t38.5 -11
t60 -2t61 2t43.5 11t31.5 20t22.5 37.5t18.5 54.5t18 79t16 79.5t4.5 54.5t-6.5 37.5t-23 20.5t-39 11t-60 2t-61 -2t-43.5 -11t-31 -20t-22 -38t-18.5 -55t-18 -79zM498 743l27 -54l-182 -100l-18 41z" />
    <glyph glyph-name="ocircumflex" unicode="&#xf4;" horiz-adv-x="570" 
d="M108 262q35 167 89.5 218t200.5 51q51 0 84.5 -4.5t58 -16.5t36.5 -30t15.5 -50t-1.5 -71t-17 -97q-35 -166 -89.5 -217t-200.5 -51q-51 0 -84.5 4t-58 16.5t-36.5 30.5t-15.5 49.5t1.5 70.5t17 97zM190 262q-11 -51 -16 -79t-4.5 -54.5t6.5 -37.5t22.5 -20t38.5 -11
t60 -2t61 2t43.5 11t31.5 20t22.5 37.5t18.5 54.5t18 79t16 79.5t4.5 54.5t-6.5 37.5t-23 20.5t-39 11t-60 2t-61 -2t-43.5 -11t-31 -20t-22 -38t-18.5 -55t-18 -79zM443 736l150 -108l-32 -42l-133 76l-171 -76l-13 42z" />
    <glyph glyph-name="otilde" unicode="&#xf5;" horiz-adv-x="570" 
d="M108 262q35 167 89.5 218t200.5 51q51 0 84.5 -4.5t58 -16.5t36.5 -30t15.5 -50t-1.5 -71t-17 -97q-35 -166 -89.5 -217t-200.5 -51q-51 0 -84.5 4t-58 16.5t-36.5 30.5t-15.5 49.5t1.5 70.5t17 97zM190 262q-11 -51 -16 -79t-4.5 -54.5t6.5 -37.5t22.5 -20t38.5 -11
t60 -2t61 2t43.5 11t31.5 20t22.5 37.5t18.5 54.5t18 79t16 79.5t4.5 54.5t-6.5 37.5t-23 20.5t-39 11t-60 2t-61 -2t-43.5 -11t-31 -20t-22 -38t-18.5 -55t-18 -79zM558 689l37 -28q-59 -75 -118 -75q-23 0 -69 22q-46 21 -63 21q-14 0 -26 -7.5t-15 -11t-18 -22.5l-39 26
q53 74 111 74q21 0 69 -21q44 -22 64 -22q33 0 67 44z" />
    <glyph glyph-name="odieresis" unicode="&#xf6;" horiz-adv-x="570" 
d="M108 262q35 167 89.5 218t200.5 51q51 0 84.5 -4.5t58 -16.5t36.5 -30t15.5 -50t-1.5 -71t-17 -97q-35 -166 -89.5 -217t-200.5 -51q-51 0 -84.5 4t-58 16.5t-36.5 30.5t-15.5 49.5t1.5 70.5t17 97zM190 262q-11 -51 -16 -79t-4.5 -54.5t6.5 -37.5t22.5 -20t38.5 -11
t60 -2t61 2t43.5 11t31.5 20t22.5 37.5t18.5 54.5t18 79t16 79.5t4.5 54.5t-6.5 37.5t-23 20.5t-39 11t-60 2t-61 -2t-43.5 -11t-31 -20t-22 -38t-18.5 -55t-18 -79zM368 653l-16 -74h-88l16 74h88zM568 653l-16 -74h-88l16 74h88z" />
    <glyph glyph-name="divide" unicode="&#xf7;" horiz-adv-x="584" 
d="M602 321l-16 -75h-484l16 75h484zM353 42h-104l22 104h104zM433 421h-104l23 104h104z" />
    <glyph glyph-name="oslash" unicode="&#xf8;" horiz-adv-x="570" 
d="M647 540l-15 -68l-41 -36q5 -49 1.5 -78t-18.5 -96q-12 -53 -22.5 -87t-26 -67t-35 -52t-48 -34.5t-66 -21.5t-88.5 -6q-150 0 -184 51l-76 -61l14 66l49 40q-12 40 17 172q11 56 21 91.5t26 68.5t35.5 51.5t49.5 32.5t69 19.5t93 5.5q40 0 64 -1.5t58 -13t50 -34.5z
M513 370l-339 -268q2 -44 127 -44q38 0 59 1t41 10.5t29.5 18.5t21.5 37t19.5 55t20.5 82q2 12 6.5 34t8 40t6.5 34zM170 155l339 271q-10 41 -121 41q-38 0 -60 -1.5t-44 -9.5t-33.5 -20t-23.5 -36.5t-20 -56t-17 -81.5q-18 -90 -20 -107z" />
    <glyph glyph-name="ugrave" unicode="&#xf9;" horiz-adv-x="570" 
d="M420 0l15 70h-2q-50 -76 -180 -76q-103 0 -136 44.5t-11 149.5l72 337h79l-72 -337q-9 -43 -10 -71.5t20 -43.5t70 -15q91 0 135.5 27.5t63.5 115.5l69 324h79l-112 -525h-80zM349 743l124 -113l-35 -41l-141 100z" />
    <glyph glyph-name="uacute" unicode="&#xfa;" horiz-adv-x="570" 
d="M420 0l15 70h-2q-50 -76 -180 -76q-103 0 -136 44.5t-11 149.5l72 337h79l-72 -337q-9 -43 -10 -71.5t20 -43.5t70 -15q91 0 135.5 27.5t63.5 115.5l69 324h79l-112 -525h-80zM498 743l27 -54l-182 -100l-18 41z" />
    <glyph glyph-name="ucircumflex" unicode="&#xfb;" horiz-adv-x="570" 
d="M420 0l15 70h-2q-50 -76 -180 -76q-103 0 -136 44.5t-11 149.5l72 337h79l-72 -337q-9 -43 -10 -71.5t20 -43.5t70 -15q91 0 135.5 27.5t63.5 115.5l69 324h79l-112 -525h-80zM443 736l150 -108l-32 -42l-133 76l-171 -76l-13 42z" />
    <glyph glyph-name="udieresis" unicode="&#xfc;" horiz-adv-x="570" 
d="M420 0l15 70h-2q-50 -76 -180 -76q-103 0 -136 44.5t-11 149.5l72 337h79l-72 -337q-9 -43 -10 -71.5t20 -43.5t70 -15q91 0 135.5 27.5t63.5 115.5l69 324h79l-112 -525h-80zM368 653l-16 -74h-88l16 74h88zM568 653l-16 -74h-88l16 74h88z" />
    <glyph glyph-name="yacute" unicode="&#xfd;" horiz-adv-x="437" 
d="M553 525l-271 -562q-16 -33 -21 -43t-21 -38.5t-25.5 -38.5t-27.5 -29t-34.5 -26.5t-40 -14t-49.5 -6.5q-9 0 -34 5l13 61q12 -3 27 -3q23 0 43 11t35.5 32.5t25 39.5t23 47.5t18.5 39.5h-28l-78 525h81l62 -467h2l218 467h82zM450 743l27 -54l-182 -100l-18 41z" />
    <glyph glyph-name="thorn" unicode="&#xfe;" horiz-adv-x="573" 
d="M393 467q-32 0 -56.5 -5t-41.5 -11t-31 -21.5t-22 -27.5t-16.5 -39t-12.5 -45t-12 -56q-9 -44 -13 -70t-2 -55t14.5 -44t38.5 -25t67 -10q91 0 126.5 38t62.5 166q29 118 11.5 161.5t-113.5 43.5zM158 62l-61 -289h-79l207 977h79l-61 -289l2 -2q53 72 184 72
q47 0 79.5 -8.5t51 -27t27.5 -39.5t8.5 -55t-4.5 -64t-14 -75q-34 -155 -90 -211.5t-172 -56.5q-136 0 -155 68h-2z" />
    <glyph glyph-name="ydieresis" unicode="&#xff;" horiz-adv-x="437" 
d="M553 525l-271 -562q-16 -33 -21 -43t-21 -38.5t-25.5 -38.5t-27.5 -29t-34.5 -26.5t-40 -14t-49.5 -6.5q-9 0 -34 5l13 61q12 -3 27 -3q23 0 43 11t35.5 32.5t25 39.5t23 47.5t18.5 39.5h-28l-78 525h81l62 -467h2l218 467h82zM302 653l-16 -74h-88l16 74h88zM502 653
l-16 -74h-88l16 74h88z" />
    <glyph glyph-name="dotlessi" unicode="&#x131;" horiz-adv-x="215" 
d="M259 525l-112 -525h-79l112 525h79z" />
    <glyph glyph-name="Lslash" unicode="&#x141;" horiz-adv-x="558" 
d="M245 399l-69 -324h382l-16 -75h-467l70 327l-101 -79l18 86l101 78l71 338h85l-56 -266l190 154l-18 -85z" />
    <glyph glyph-name="lslash" unicode="&#x142;" horiz-adv-x="214" 
d="M238 427l-91 -427h-79l77 363l-78 -64l15 72l78 63l67 316h79l-53 -253l77 64l-15 -70z" />
    <glyph glyph-name="OE" unicode="&#x152;" horiz-adv-x="1109" 
d="M498 681q-53 0 -81.5 -1.5t-60 -8.5t-47 -19.5t-33 -36.5t-28 -57.5t-21.5 -85.5l-43 -201q-8 -38 -12 -66t-1.5 -49.5t6.5 -35.5t18.5 -24t26.5 -15.5t38.5 -8t47.5 -3t60 -0.5q41 0 64.5 0.5t52 3.5t43.5 8.5t34 15.5t29 24.5t22 36t20 49t16 64.5l42 201
q11 52 15 85.5t-3.5 58t-18.5 36.5t-41 19t-59.5 8.5t-85.5 1.5zM819 675l-54 -255h379l-15 -70h-379l-58 -275h396l-16 -75h-481l17 78h-2q-28 -39 -75.5 -58.5t-82.5 -22.5t-96 -3q-62 0 -101 3t-75.5 13t-54.5 28.5t-29 49.5t-8.5 75.5t16.5 107.5l42 201
q36 167 113 225.5t259 58.5q217 0 217 -86h2l17 80h481l-16 -75h-396z" />
    <glyph glyph-name="oe" unicode="&#x153;" horiz-adv-x="942" 
d="M488 262q11 55 16 82.5t4.5 55t-6 37.5t-24.5 19t-41.5 10t-64.5 1q-27 0 -46 -1t-36 -7.5t-27.5 -11t-20.5 -19.5t-15.5 -25.5t-13 -37t-12 -45t-12.5 -58.5q-22 -84 -20 -129t28.5 -60t97.5 -15q38 0 62.5 2.5t44 13.5t30.5 22t22 39t17 52.5t17 74.5zM107 262
q13 62 23.5 98.5t30.5 73.5t47 55.5t70.5 30t104.5 11.5q103 0 140 -14q47 -18 46 -60h2q27 47 79.5 60.5t130.5 13.5q54 0 88 -6t58.5 -20t33.5 -41t8 -67t-14 -99l-11 -53h-378q-10 -46 -14 -72t-3 -50t7.5 -34.5t23.5 -18.5t39.5 -10t60.5 -2q86 0 118 14t43 67l4 20h81
l-4 -19q-9 -40 -28 -68.5t-40.5 -43.5t-56 -23t-61.5 -9.5t-69 -1.5q-80 0 -124 13.5t-56 59.5q-19 -34 -58.5 -51.5t-67.5 -19.5t-76 -2h-10q-98 0 -141.5 28t-45.5 87.5t19 152.5zM580 309h296q11 59 12.5 88t-12.5 46.5t-36.5 20.5t-72.5 3q-54 0 -85 -6.5t-51 -28.5
t-28.5 -46t-22.5 -77z" />
    <glyph glyph-name="Scaron" unicode="&#x160;" horiz-adv-x="629" 
d="M385 346q-16 1 -43 3t-42 3t-37.5 3.5t-35.5 6t-29.5 10.5t-25 16.5t-17.5 23t-11 31.5t-1 42t7 53q13 59 33.5 99.5t45 64t65 35.5t79 15.5t101.5 3.5q42 0 67 -1t57 -5t49.5 -12.5t35 -24t23.5 -37.5t5 -55t-12 -76h-85q6 35 8 56t-4 37.5t-14 24t-32 12t-47.5 5.5
t-69.5 1q-85 0 -126 -10.5t-59.5 -35t-30.5 -79.5q-7 -32 -8.5 -55t9.5 -37.5t16.5 -22.5t33.5 -12.5t39.5 -5t54.5 -1.5q7 0 11 -0.5t10.5 -0.5h12.5q126 -7 160 -17q63 -18 72 -77q7 -42 -8 -114q-8 -39 -19 -70t-26.5 -53.5t-30 -39t-38.5 -26.5t-43.5 -16.5t-52.5 -9.5
t-58 -3.5t-67 -0.5q-64 0 -103.5 4t-74.5 18t-49 40t-14 70t18 108h85q-7 -32 -11 -54.5t-2.5 -41t3.5 -29.5t14.5 -19.5t20.5 -12t33 -6t41.5 -2.5h54.5t55 0.5t44 2t38 5t28.5 11t24.5 17.5t17 26t16 36.5t12 48.5q6 27 6.5 46.5t-1.5 32.5t-11.5 22t-18 13.5t-27.5 7
t-33 3.5t-41 2t-47 3zM484 811l-149 107l33 43l132 -76l172 76l12 -43z" />
    <glyph glyph-name="scaron" unicode="&#x161;" horiz-adv-x="537" 
d="M571 408l-5 -20h-82l5 20q4 19 0 30.5t-22 16t-34.5 5.5t-55.5 1t-54.5 -0.5t-39.5 -3.5t-34 -9.5t-19.5 -19t-13.5 -31.5q-13 -61 1 -74.5t70 -15.5q12 -1 18 -1q16 -1 39.5 -2t38.5 -1.5t35.5 -2t33.5 -4.5t28.5 -8t24 -12.5t17 -19.5t11.5 -27t2 -35.5t-6 -45.5
q-8 -36 -21 -62.5t-32.5 -43t-39 -27t-49 -15t-52 -5.5t-57.5 -1q-42 0 -68.5 1.5t-59.5 8.5t-50.5 19.5t-26.5 36t-2 57.5l10 49h82l-8 -41q-8 -37 19.5 -49t118.5 -12q4 0 20.5 -0.5t23.5 0t22.5 2t23.5 4.5t20 9t19.5 14.5t14 21.5t10.5 30q4 21 5 35.5t-3.5 23.5t-9 14
t-18.5 7.5t-24 3t-32 1t-37 1.5q-12 1 -37 2t-37.5 2t-33.5 4t-31.5 7t-25.5 11t-21.5 17t-12 24.5t-5 34t5.5 43.5q8 37 20 64t31.5 44t37.5 26.5t50 14t55.5 5.5t67.5 1q45 0 72 -3t59.5 -13.5t44.5 -37.5t3 -69zM391 586l-150 107l33 43l132 -76l172 76l12 -43z" />
    <glyph glyph-name="Ydieresis" unicode="&#x178;" horiz-adv-x="632" 
d="M797 750l-376 -437l-67 -313h-85l67 313l-183 437h99l148 -351l296 351h101zM447 878l-16 -74h-88l16 74h88zM647 878l-16 -74h-88l16 74h88z" />
    <glyph glyph-name="Zcaron" unicode="&#x17d;" horiz-adv-x="637" 
d="M760 750l-16 -79l-599 -596h482l-16 -75h-585l16 74l598 601h-457l16 75h561zM488 811l-149 107l33 43l132 -76l172 76l12 -43z" />
    <glyph glyph-name="zcaron" unicode="&#x17e;" horiz-adv-x="454" 
d="M542 525l-16 -73l-395 -388h313l-14 -64h-405l16 73l395 388h-287l14 64h379zM350 586l-150 107l33 43l132 -76l172 76l12 -43z" />
    <glyph glyph-name="florin" unicode="&#x192;" 
d="M502 420l-188 -481q-37 -101 -80.5 -136.5t-144.5 -35.5q-27 0 -57 8l25 64q31 -7 56 -7q54 0 75.5 21t44.5 79l189 488h-103l25 65h103l41 103q24 66 49 100.5t65.5 51t107.5 16.5q20 0 60 -2l-25 -66q-6 0 -18 1t-21.5 1.5t-17.5 0.5q-56 0 -76 -19t-43 -77l-42 -110
h139l-26 -65h-138z" />
    <glyph glyph-name="circumflex" unicode="&#x2c6;" horiz-adv-x="499" 
d="M407 736l150 -108l-32 -42l-133 76l-171 -76l-13 42z" />
    <glyph glyph-name="caron" unicode="&#x2c7;" horiz-adv-x="499" 
d="M372 586l-150 107l33 43l132 -76l172 76l12 -43z" />
    <glyph glyph-name="uni02C9" unicode="&#x2c9;" horiz-adv-x="434" 
d="M217 648h276l-14 -64h-276z" />
    <glyph glyph-name="breve" unicode="&#x2d8;" horiz-adv-x="487" 
d="M232 737h53q-1 -41 26 -68t68 -27q42 0 81 27t55 68h54q-20 -64 -79 -108t-123 -44t-103 44t-32 108z" />
    <glyph glyph-name="dotaccent" unicode="&#x2d9;" horiz-adv-x="238" 
d="M302 653l-16 -74h-88l16 74h88z" />
    <glyph glyph-name="ring" unicode="&#x2da;" horiz-adv-x="323" 
d="M213 649q8 35 38.5 61t65.5 26q36 0 56.5 -26t12.5 -61q-7 -36 -38.5 -61.5t-67.5 -25.5q-35 0 -55 25.5t-12 61.5zM251 649q-5 -20 6.5 -34.5t31.5 -14.5t37 14.5t22 34.5q4 20 -7.5 34.5t-31.5 14.5t-36.5 -14.5t-21.5 -34.5z" />
    <glyph glyph-name="ogonek" unicode="&#x2db;" horiz-adv-x="307" 
d="M151 0h57q-91 -47 -100 -90q-6 -27 10.5 -40t44.5 -13q23 0 40 8l-10 -49q-25 -9 -53 -9q-43 0 -69.5 22.5t-18.5 64.5q14 66 99 106z" />
    <glyph glyph-name="tilde" unicode="&#x2dc;" horiz-adv-x="489" 
d="M517 689l37 -28q-59 -75 -118 -75q-23 0 -69 22q-46 21 -63 21q-14 0 -26 -7.5t-15 -11t-18 -22.5l-39 26q53 74 111 74q21 0 69 -21q44 -22 64 -22q33 0 67 44z" />
    <glyph glyph-name="hungarumlaut" unicode="&#x2dd;" horiz-adv-x="489" 
d="M370 749l35 -50l-175 -116l-23 38zM528 749l35 -50l-175 -116l-23 38z" />
    <glyph glyph-name="uni03A9" unicode="&#x3a9;" horiz-adv-x="903" 
d="M265 60v3q-63 52 -94 136t-8 190q32 153 162 255t288 102q81 0 145 -29.5t99 -79t50 -113t-2 -132.5q-23 -110 -92 -196t-152 -133v-3h191l-13 -60h-294l10 45q93 43 168.5 129.5t101.5 207.5q16 73 -2 141t-75.5 115.5t-146.5 47.5q-131 0 -232.5 -89.5t-129.5 -218.5
q-24 -115 15.5 -203.5t113.5 -129.5l-10 -45h-295l13 60h189z" />
    <glyph glyph-name="uni03BC" unicode="&#x3bc;" horiz-adv-x="570" 
d="M422 0l15 70h-2q-50 -76 -180 -76q-71 0 -105 20l-51 -241h-79l160 752h79l-72 -337q-9 -43 -10 -71.5t20 -43.5t70 -15q91 0 135.5 27.5t63.5 115.5l69 324h79l-112 -525h-80z" />
    <glyph glyph-name="pi" unicode="&#x3c0;" horiz-adv-x="692" 
d="M765 483h-103l-68 -318q-22 -106 -18 -165h-76q-14 27 13 154l70 329h-236q-31 -116 -90.5 -267.5t-103.5 -215.5h-78q49 77 106.5 222t87.5 261q-101 0 -147 -16l-2 49q58 29 177 29h489z" />
    <glyph glyph-name="uni2010" unicode="&#x2010;" horiz-adv-x="261" 
d="M66 311h261l-16 -75h-261z" />
    <glyph glyph-name="endash" unicode="&#x2013;" horiz-adv-x="500" 
d="M66 311h500l-16 -75h-500z" />
    <glyph glyph-name="emdash" unicode="&#x2014;" horiz-adv-x="1000" 
d="M66 311h1000l-16 -75h-1000z" />
    <glyph glyph-name="quoteleft" unicode="&#x2018;" horiz-adv-x="201" 
d="M239 644h38l-22 -102h-89l26 121q9 46 30 69.5t67 23.5h23l-10 -45q-28 -1 -40.5 -11t-18.5 -37z" />
    <glyph glyph-name="quoteright" unicode="&#x2019;" horiz-adv-x="201" 
d="M238 648h-38l21 102h89l-25 -121q-10 -46 -30.5 -69.5t-66.5 -23.5h-23l9 45q28 1 41 11t19 37z" />
    <glyph glyph-name="quotesinglbase" unicode="&#x201a;" horiz-adv-x="228" 
d="M113 0h-38l22 102h89l-26 -121q-9 -46 -30 -69.5t-67 -23.5h-23l10 45q28 1 40.5 11t18.5 37z" />
    <glyph glyph-name="quotedblleft" unicode="&#x201c;" horiz-adv-x="359" 
d="M396 644h38l-22 -102h-89l26 121q9 46 30 69.5t67 23.5h23l-10 -45q-28 -1 -40.5 -11t-18.5 -37zM239 644h38l-22 -102h-89l26 121q9 46 30 69.5t67 23.5h23l-10 -45q-28 -1 -40.5 -11t-18.5 -37z" />
    <glyph glyph-name="quotedblright" unicode="&#x201d;" horiz-adv-x="359" 
d="M238 648h-38l21 102h89l-25 -121q-10 -46 -30.5 -69.5t-66.5 -23.5h-23l9 45q28 1 41 11t19 37zM395 648h-38l21 102h89l-25 -121q-10 -46 -30.5 -69.5t-66.5 -23.5h-23l9 45q28 1 41 11t19 37z" />
    <glyph glyph-name="quotedblbase" unicode="&#x201e;" horiz-adv-x="359" 
d="M100 0h-38l22 102h89l-26 -121q-9 -46 -30 -69.5t-67 -23.5h-23l10 45q28 1 40.5 11t18.5 37zM257 0h-38l22 102h89l-26 -121q-9 -46 -30 -69.5t-67 -23.5h-23l10 45q28 1 40.5 11t18.5 37z" />
    <glyph glyph-name="dagger" unicode="&#x2020;" 
d="M546 750l-43 -206h173l-15 -70h-173l-145 -683h-85l145 683h-172l15 70h172l43 206h85z" />
    <glyph glyph-name="daggerdbl" unicode="&#x2021;" 
d="M546 750l-50 -236h173l-15 -70h-173l-70 -329h173l-14 -70h-173l-54 -254h-85l54 254h-172l14 70h172l70 329h-172l15 70h172l50 236h85z" />
    <glyph glyph-name="bullet" unicode="&#x2022;" horiz-adv-x="520" 
d="M528 375q-17 -77 -83.5 -132t-144.5 -55t-121 54.5t-26 132.5q15 78 81.5 133t145.5 55q78 0 121.5 -55t26.5 -133z" />
    <glyph glyph-name="ellipsis" unicode="&#x2026;" horiz-adv-x="1000" 
d="M234 102l-22 -102h-89l22 102h89zM567 102l-22 -102h-89l22 102h89zM900 102l-22 -102h-89l22 102h89z" />
    <glyph glyph-name="perthousand" unicode="&#x2030;" horiz-adv-x="1282" 
d="M830 132l23 110q12 55 -3.5 66.5t-85.5 11.5q-65 0 -84.5 -11.5t-31.5 -66.5l-23 -110q-13 -59 1 -71t80 -12q68 0 89.5 12t34.5 71zM913 240l-23 -110q-20 -86 -60.5 -111t-133.5 -25t-120.5 24.5t-11.5 110.5l24 110q20 86 58 111t130 25q32 0 53 -1.5t40 -6.5
t29 -14.5t16 -24.5t5.5 -36.5t-6.5 -51.5zM888 750l-669 -756h-67l666 756h70zM1311 240l-23 -110q-20 -86 -60.5 -111t-133.5 -25t-120.5 24.5t-11.5 110.5l24 110q20 86 58 111t130 25q32 0 53 -1.5t40 -6.5t29 -14.5t16 -24.5t5.5 -36.5t-6.5 -51.5zM1228 132l23 110
q12 55 -3.5 66.5t-85.5 11.5q-65 0 -84.5 -11.5t-31.5 -66.5l-23 -110q-13 -59 1 -71t80 -12q68 0 89.5 12t34.5 71zM479 621l-23 -110q-20 -86 -60.5 -111t-133.5 -25t-120.5 24.5t-11.5 110.5l24 110q20 86 58 111t130 25q32 0 53 -1.5t40 -6.5t29 -14.5t16 -24.5
t5.5 -36.5t-6.5 -51.5zM396 513l23 110q12 55 -3.5 66.5t-85.5 11.5q-65 0 -84.5 -11.5t-31.5 -66.5l-23 -110q-13 -59 1 -71t80 -12q68 0 89.5 12t34.5 71z" />
    <glyph glyph-name="guilsinglleft" unicode="&#x2039;" horiz-adv-x="318" 
d="M313 575l51 -35l-172 -251l78 -253l-63 -36l-90 289z" />
    <glyph glyph-name="guilsinglright" unicode="&#x203a;" horiz-adv-x="318" 
d="M184 540l65 35l74 -286l-212 -289l-47 36l184 253z" />
    <glyph glyph-name="fraction" unicode="&#x2044;" horiz-adv-x="566" 
d="M730 750l-668 -750h-67l665 750h70z" />
    <glyph glyph-name="Euro" unicode="&#x20ac;" 
d="M826 671l-50 -90q-12 50 -53 75t-101 25h-135q-73 0 -120 -33.5t-66 -124.5l-9 -41h433l-33 -65h-413l-14 -62h394l-33 -65h-374q-16 -76 -17.5 -125t26.5 -72.5t93 -23.5h141q125 0 198 94l-21 -99q-73 -70 -224 -70h-126q-103 0 -147.5 62t-20.5 174l13 60h-93l33 65
h73l14 62h-93l33 65h73l9 38q15 71 48.5 120.5t77 73t82.5 33t79 9.5h112h29.5t32.5 -2t41 -7.5t37 -14t39.5 -24.5t31.5 -37z" />
    <glyph glyph-name="afii61289" unicode="&#x2113;" horiz-adv-x="585" 
d="M553 174l33 -33q-112 -142 -257 -142q-92 0 -130 55.5t-26 137.5l2 12q-6 -4 -36 -23.5t-46 -29.5l-15 45q14 10 52.5 34.5t57.5 38.5l62 291q29 136 94.5 196.5t140.5 60.5q74 0 101.5 -50t12.5 -124q-21 -97 -107 -192.5t-236 -204.5l-4 -25q-16 -79 16 -120.5
t89 -41.5q55 0 107.5 34.5t88.5 80.5zM326 573l-54 -255q115 93 183 169.5t84 151.5q25 123 -66 123q-42 0 -84.5 -46t-62.5 -143z" />
    <glyph glyph-name="trademark" unicode="&#x2122;" horiz-adv-x="1000" 
d="M1101 750l-89 -421h-70l77 361h-2l-221 -361h-39l-63 361h-2l-77 -361h-70l89 421h111l58 -297l188 297h110zM563 750l-12 -60h-133l-77 -361h-75l77 361h-133l12 60h341z" />
    <glyph glyph-name="Omega" unicode="&#x2126;" horiz-adv-x="903" 
d="M265 60v3q-63 52 -94 136t-8 190q32 153 162 255t288 102q81 0 145 -29.5t99 -79t50 -113t-2 -132.5q-23 -110 -92 -196t-152 -133v-3h191l-13 -60h-294l10 45q93 43 168.5 129.5t101.5 207.5q16 73 -2 141t-75.5 115.5t-146.5 47.5q-131 0 -232.5 -89.5t-129.5 -218.5
q-24 -115 15.5 -203.5t113.5 -129.5l-10 -45h-295l13 60h189z" />
    <glyph glyph-name="estimated" unicode="&#x212e;" horiz-adv-x="1079" 
d="M1043 364h-686q-5 0 -5 -4v-208q0 -12 9 -23q108 -113 259 -113q80 0 150.5 33.5t122.5 92.5h61q-58 -68 -146.5 -107.5t-188.5 -39.5q-175 0 -299 111t-124 269t124 269.5t299 111.5t299.5 -111.5t124.5 -269.5v-11zM887 391v209q0 15 -10 25q-111 108 -257 108
q-149 0 -258 -112q-10 -9 -10 -26v-204q0 -6 5 -6h526q4 0 4 6z" />
    <glyph glyph-name="partialdiff" unicode="&#x2202;" horiz-adv-x="659" 
d="M274 716l-18 50q94 62 214 62q126 0 192 -107t27 -294q-24 -113 -78 -208.5t-140 -158t-187 -62.5q-58 0 -100 23t-60.5 58.5t-26 79t4.5 84.5q25 117 115.5 190t195.5 73q43 0 79 -14t57.5 -35t34 -39t17.5 -33h1q6 16 13 54q31 147 -18.5 237.5t-146.5 90.5
q-92 0 -176 -51zM302 57h1q87 0 161.5 76t111.5 182q-8 46 -51 89.5t-112 43.5q-78 0 -147 -59t-87 -143q-17 -80 17 -134.5t106 -54.5z" />
    <glyph glyph-name="uni2206" unicode="&#x2206;" horiz-adv-x="797" 
d="M37 0l11 54l467 702h91l164 -702l-11 -54h-722zM130 60h556l-100 422q-4 21 -22 98t-21 103h-5q-8 -15 -28.5 -47.5t-47 -73t-38.5 -59.5z" />
    <glyph glyph-name="product" unicode="&#x220f;" horiz-adv-x="1005" 
d="M976 666h-140v-767h-76v767h-359v-767h-76v767h-140v67h791v-67z" />
    <glyph glyph-name="summation" unicode="&#x2211;" horiz-adv-x="830" 
d="M803 -101h-622v48l333 367l-317 368v51h589v-66h-476v-3l296 -342l-317 -351v-3h514v-69z" />
    <glyph glyph-name="minus" unicode="&#x2212;" horiz-adv-x="584" 
d="M102 246l16 75h484l-16 -75h-484z" />
    <glyph glyph-name="uni2215" unicode="&#x2215;" horiz-adv-x="566" 
d="M730 750l-668 -750h-67l665 750h70z" />
    <glyph glyph-name="uni2219" unicode="&#x2219;" horiz-adv-x="345" 
d="M288 335l-21 -102h-89l21 102h89z" />
    <glyph glyph-name="radical" unicode="&#x221a;" horiz-adv-x="840" 
d="M847 868l-271 -1027h-72l-196 490l-90 -34l-18 46l155 61l164 -419q8 -24 20 -66l1 -1q2 11 8 36t8 32l230 882h61z" />
    <glyph glyph-name="infinity" unicode="&#x221e;" horiz-adv-x="1006" 
d="M946 304v-1q0 -80 -52.5 -130t-123.5 -50q-52 0 -99.5 33t-115.5 107q-30 -34 -49 -53t-48 -42t-59.5 -34t-64.5 -11q-70 0 -121 51.5t-51 125.5q0 77 52 128.5t129 51.5q59 0 108.5 -37t108.5 -104q30 33 38.5 42.5t36 35.5t44.5 35t44.5 18.5t55.5 9.5q75 0 121 -49
t46 -127zM342 172h1q22 0 42.5 7t42.5 24.5t34 28t36.5 36t29.5 30.5q-61 73 -90 96q-50 39 -104 39q-53 0 -85.5 -39.5t-32.5 -95.5q0 -53 35 -89.5t91 -36.5zM773 433h-1q-28 0 -58.5 -16.5t-47.5 -31.5t-46 -46t-34 -36q67 -73 106 -102t83 -29q53 0 85.5 39t32.5 89
q0 61 -34 97t-86 36z" />
    <glyph glyph-name="integral" unicode="&#x222b;" horiz-adv-x="566" 
d="M555 878l-14 -51q-19 13 -46 13q-40 0 -61 -24q-42 -45 -42 -190q0 -81 8.5 -263t8.5 -267q0 -143 -52 -211q-36 -53 -110 -53q-47 0 -78 20l15 53q30 -15 57 -15q35 0 55 23q45 50 45 185q0 85 -8.5 270t-8.5 266q0 87 14 138.5t48 82.5q41 40 104 40q36 0 65 -17z" />
    <glyph glyph-name="approxequal" unicode="&#x2248;" horiz-adv-x="782" 
d="M692 463l31 -30q-61 -104 -152 -104q-24 0 -49 7.5t-40.5 15t-54.5 27.5q-72 38 -114 38q-39 0 -67 -22.5t-57 -63.5l-33 30q29 50 71.5 77.5t93.5 27.5q20 0 42 -6t32 -10t35 -18t26 -14q5 -2 20 -10t19.5 -10.5t16.5 -7.5t19.5 -7t19 -3.5t22.5 -1.5q36 0 63.5 20.5
t55.5 64.5zM692 267l31 -30q-61 -103 -152 -103q-24 0 -49.5 7.5t-39.5 14t-55 27.5q-72 39 -114 39q-39 0 -66.5 -22t-57.5 -64l-33 29q29 50 71.5 78t92.5 28q21 0 42.5 -5.5t33 -10.5t34 -17t25.5 -14q4 -2 19 -10t19.5 -10.5t17 -8t20 -7t19 -3.5t23.5 -2
q37 0 63.5 19.5t55.5 64.5z" />
    <glyph glyph-name="notequal" unicode="&#x2260;" horiz-adv-x="805" 
d="M603 554l-56 -118h197v-50h-219l-83 -174h302v-50h-324l-68 -143l-41 21l58 122h-186v50h209l83 174h-292v50h314l66 138z" />
    <glyph glyph-name="lessequal" unicode="&#x2264;" horiz-adv-x="822" 
d="M758 89l-550 257v53l550 256v-59l-493 -222v-2l493 -224v-59zM761 -8h-561v50h561v-50z" />
    <glyph glyph-name="greaterequal" unicode="&#x2265;" horiz-adv-x="822" 
d="M208 655l550 -256v-53l-550 -257v59l492 223v2l-492 223v59zM759 -8h-558v50h558v-50z" />
    <glyph glyph-name="lozenge" unicode="&#x25ca;" horiz-adv-x="841" 
d="M777 366l-246 -421h-61l-244 421l245 422h61zM705 364l-181 314q-16 31 -23 49h-2q-10 -26 -24 -49l-179 -310l183 -316q18 -36 21 -48h4q6 18 21 48z" />
    <glyph glyph-name="fi" unicode="&#xfb01;" horiz-adv-x="509" 
d="M553 525l-112 -525h-79l112 525h79zM279 525h139l-14 -64h-139l-98 -461h-79l98 461h-80l14 64h80l13 63q20 96 64 132t141 36q16 0 48 -2l-13 -64q-32 2 -49 2q-57 0 -77.5 -20t-32.5 -76zM600 750l-18 -87h-79l18 87h79z" />
    <glyph glyph-name="fl" unicode="&#xfb02;" horiz-adv-x="513" 
d="M279 525h139l-14 -64h-139l-98 -461h-79l98 461h-80l14 64h80l13 63q20 96 64 132t141 36q16 0 48 -2l-13 -64q-32 2 -49 2q-57 0 -77.5 -20t-32.5 -76zM604 750l-159 -750h-79l159 750h79z" />
    <glyph glyph-name="a.superior" horiz-adv-x="440" 
d="M403 435l6 24l-2 2q-33 -32 -117 -32q-63 0 -92.5 20t-17.5 78q13 61 49.5 82.5t102.5 21.5q83 0 101 -25q16 56 6.5 79t-66.5 23q-51 0 -70 -8.5t-23 -40.5h-60q6 27 18 46t25 29t34.5 15t37.5 6t42 1q20 0 34 -0.5t31 -3t26 -7t20 -12t13.5 -19t5 -27.5t-4.5 -37
l-46 -215h-53zM309 477q24 0 37 1t30 5.5t26.5 16t13.5 29.5q8 35 -10 44.5t-64 9.5q-52 0 -71.5 -8.5t-26.5 -41.5q-6 -16 -2.5 -26.5l5.5 -16.5t13.5 -9t20.5 -3.5t28 -0.5z" />
    <glyph glyph-name="o.superior" horiz-adv-x="440" 
d="M386 756q88 0 109 -32.5t-1 -128.5q-20 -98 -52.5 -132t-125.5 -34q-99 0 -120 32t2 134q10 48 20.5 75t31 48.5t52.5 29.5t84 8zM375 708q-64 0 -82 -18t-35 -95q-7 -33 -10 -49.5t-2 -32.5t3.5 -21t15 -10t23.5 -5h38q57 0 74.5 20.5t33.5 97.5q17 70 8 91.5t-67 21.5z
" />
    <glyph glyph-name="one.superior" horiz-adv-x="414" 
d="M430 756l-97 -454h-65l86 406l-152 -128l-25 41l163 135h90z" />
    <glyph glyph-name="two.superior" horiz-adv-x="414" 
d="M182 362h286l-13 -60h-351l16 76q18 83 59 107.5t142 33.5q76 8 92 15q29 14 41 65q2 7 3 14q12 56 -4.5 69.5t-82.5 13.5q-81 0 -102.5 -12t-30.5 -63l-5 -23h-65l5 23q7 33 14 52.5t20.5 37.5t35.5 26.5t56 13.5t85 5q99 0 128.5 -29t10.5 -114q-18 -87 -60.5 -117
t-139.5 -37q-75 -5 -100.5 -18t-34.5 -56z" />
    <glyph glyph-name="three.superior" horiz-adv-x="414" 
d="M287 508l12 55h58q28 0 35 0.5t23 3.5t21 10t12 19.5t11 33.5q10 48 -6 59.5t-95 11.5q-63 0 -83 -11.5t-31 -56.5l-4 -19h-65l4 19q17 80 59.5 101.5t138.5 21.5q22 0 30 -0.5t27 -1t26 -2l21 -4.5t19 -7t14 -10.5t11 -15t4.5 -19.5t1.5 -25.5t-5 -31.5
q-11 -51 -32 -76.5t-70 -28.5l-1 -2q52 -4 65.5 -27.5t2.5 -75.5q-8 -38 -23 -63.5t-30.5 -39t-46 -20t-51.5 -7.5t-66 -1q-93 0 -128.5 23t-18.5 97l6 30h65l-5 -25q-10 -48 5 -58t88 -12q84 -1 106.5 11.5t34.5 70.5q3 16 3.5 27.5t-1 19.5t-8.5 13t-11.5 7.5t-18 4
t-20.5 1.5h-26h-58z" />
    </font>
</defs>
</svg>
