<?xml version="1.0" standalone="no"?>
<!DOCTYPE svg PUBLIC "-//W3C//DTD SVG 1.1//EN" "http://www.w3.org/Graphics/SVG/1.1/DTD/svg11.dtd" >
<svg xmlns="http://www.w3.org/2000/svg" xmlns:xlink="http://www.w3.org/1999/xlink" version="1.1">
<metadata>
Created by FontForge 20170731 at Thu Aug 16 18:07:19 2007
 By Aleksey,,,
(c) 1987, 1992, 1999, 2002 Adobe Systems Incorporated. All rights reserved.
</metadata>
<defs>
<font id="EurostileLTStd-DemiOblique" horiz-adv-x="705" >
  <font-face 
    font-family="Eurostile LT Std"
    font-weight="600"
    font-style="oblique"
    font-stretch="normal"
    units-per-em="1000"
    panose-1="2 11 7 4 2 2 2 5 2 4"
    ascent="750"
    descent="-250"
    x-height="525"
    cap-height="750"
    bbox="-50 -288 1327.54 993"
    underline-thickness="50"
    underline-position="-200"
    slope="-12"
    unicode-range="U+0020-FB02"
  />
<missing-glyph horiz-adv-x="649" 
d="M149 0v700h500v-700h-500zM399 395l170 255h-340zM429 350l170 -255v510zM229 50h340l-170 255zM199 605v-510l170 255z" />
    <glyph glyph-name="f_i" unicode="fi" horiz-adv-x="584" 
d="M687 750l-22 -107h-126l22 107h126zM640 525l-112 -525h-126l112 525h126zM497 750l-20 -96h-38q-31 1 -50 -4t-30.5 -20t-15.5 -29t-11 -44l-6 -32h128l-21 -96h-128l-91 -429h-126l91 429h-74l21 96h74l9 46q21 99 63.5 139t142.5 40h82z" />
    <glyph glyph-name="f_l" unicode="fl" horiz-adv-x="596" 
d="M691 750l-159 -750h-126l159 750h126zM454 525l-21 -96h-128l-91 -429h-126l91 429h-74l21 96h74l9 46q21 99 63.5 139t142.5 40h82l-20 -96h-38q-31 1 -50 -4t-30.5 -20t-15.5 -29t-11 -44l-6 -32h128z" />
    <glyph glyph-name=".notdef" horiz-adv-x="649" 
d="M149 0v700h500v-700h-500zM399 395l170 255h-340zM429 350l170 -255v510zM229 50h340l-170 255zM199 605v-510l170 255z" />
    <glyph glyph-name=".null" horiz-adv-x="0" 
 />
    <glyph glyph-name="nonmarkingreturn" horiz-adv-x="333" 
 />
    <glyph glyph-name="space" unicode=" " horiz-adv-x="352" 
 />
    <glyph glyph-name="exclam" unicode="!" horiz-adv-x="309" 
d="M246 137l-29 -137h-126l29 137h126zM384 750l-114 -499h-126l98 499h142z" />
    <glyph glyph-name="quotedbl" unicode="&#x22;" horiz-adv-x="474" 
d="M209 750h138l-27 -130l-70 -129h-54l-14 129zM445 750h138l-27 -130l-70 -129h-54l-14 129z" />
    <glyph glyph-name="numbersign" unicode="#" 
d="M443 750h93l-83 -210h109l83 210h92l-83 -210h89l-25 -115h-107l-52 -133h103l-24 -115h-127l-71 -177h-93l71 177h-109l-71 -177h-93l71 177h-100l24 115h122l52 133h-105l25 115h126zM407 425l-52 -133h110l54 133h-112z" />
    <glyph glyph-name="dollar" unicode="$" 
d="M459 321l-44 -209q93 -1 127.5 21.5t49.5 92.5q4 17 4.5 30.5t-4 23.5t-8.5 16.5t-16 11t-19.5 7t-26.5 4t-28.5 1.5t-34.5 1zM527 638l-43 -199q48 -2 71.5 -4t60 -7.5t52.5 -14t36 -23.5t25.5 -36.5t6.5 -53.5t-8 -74q-28 -133 -105.5 -182.5t-232.5 -49.5l-17 -78h-80
l17 78q-90 0 -145.5 16t-77 45.5t-25 70.5t9.5 91l6 27h126l-6 -27q-5 -25 -5.5 -42t6 -29t15 -18.5t29 -10t39.5 -4.5t53 -1l44 209q-46 4 -71.5 7t-58.5 10t-49.5 16t-34.5 24.5t-23.5 36.5t-5.5 50.5t8 68.5q12 58 33 98.5t47 64.5t66 37.5t81 17.5t101 4l15 73h80
l-15 -73q29 -1 45 -1.5t41 -2.5t38 -5t32 -8.5t28.5 -12.5t21 -17.5t15.5 -24.5t7.5 -32t1.5 -41t-8 -50l-5 -25h-126l5 25q8 51 -15.5 63t-105.5 14zM404 439l43 199q-30 -1 -42.5 -1.5t-33.5 -2.5t-29 -6t-20.5 -11t-18.5 -18t-12 -27t-11 -38q-14 -65 28 -82
q21 -8 96 -13z" />
    <glyph glyph-name="percent" unicode="%" horiz-adv-x="905" 
d="M934 240l-23 -110q-20 -86 -60.5 -111t-133.5 -25t-120.5 24.5t-11.5 110.5l24 110q20 86 58 111t130 25q32 0 53 -1.5t40 -6.5t29 -14.5t16 -24.5t5.5 -36.5t-6.5 -51.5zM828 141l20 93q10 46 -1.5 55.5t-65.5 9.5q-49 0 -63.5 -9.5t-24.5 -55.5l-20 -93
q-11 -50 -0.5 -60.5t59.5 -10.5q51 0 68 11t28 60zM479 621l-23 -110q-20 -86 -60.5 -111t-133.5 -25t-120.5 24.5t-11.5 110.5l24 110q20 86 58 111t130 25q32 0 53 -1.5t40 -6.5t29 -14.5t16 -24.5t5.5 -36.5t-6.5 -51.5zM373 522l20 93q10 46 -1.5 55.5t-65.5 9.5
q-50 0 -64 -9.5t-24 -55.5l-20 -93q-11 -50 -0.5 -60.5t59.5 -10.5q51 0 68 11t28 60zM900 750l-635 -750h-93l633 750h95z" />
    <glyph glyph-name="ampersand" unicode="&#x26;" horiz-adv-x="781" 
d="M556 157l-201 208q-59 -9 -78 -36t-35 -101q-4 -17 -5.5 -31t0 -25.5t2.5 -20t8 -14.5t11.5 -10.5t17 -7l20 -4t26 -2.5t28.5 -1h34h9q45 0 67 1.5t49 12t47 31.5zM705 0l-73 77q-29 -38 -77 -57.5t-85.5 -22.5t-101.5 -3q-47 0 -78 1.5t-65.5 7t-55 15.5t-39 27
t-26 41.5t-7.5 60t10 81.5q21 96 60.5 146.5t126.5 57.5q-31 33 -38 58t3 75q11 49 29 84t40.5 55.5t56.5 32t69.5 15.5t86.5 4q60 0 96 -5.5t61.5 -19t33.5 -41.5t6 -67t-15 -102h-123q18 77 5 97t-89 20q-41 0 -60.5 -3t-37 -19.5t-24.5 -51.5q-6 -32 0 -50t27 -39
l194 -207l21 101h123l-10 -51q-20 -96 -45 -141l87 -94z" />
    <glyph glyph-name="quotesingle" unicode="'" horiz-adv-x="238" 
d="M209 750h138l-27 -130l-70 -129h-54l-14 129z" />
    <glyph glyph-name="parenleft" unicode="(" horiz-adv-x="348" 
d="M286 -32l-25 -118q-48 0 -82 6t-57.5 16t-35.5 31t-17 42t-1.5 59.5t9.5 72.5t18 91l56 264q33 151 57 200q40 85 127 110q48 14 119 14l-25 -118q-64 0 -87.5 -28.5t-37.5 -98.5l-89 -416q-5 -26 -7 -38.5t-1.5 -33t8.5 -30t25.5 -17.5t45.5 -8z" />
    <glyph glyph-name="parenright" unicode=")" horiz-adv-x="348" 
d="M191 638l25 118q42 0 73.5 -3.5t53.5 -14t36.5 -21.5t21.5 -33.5t9 -42.5t-2 -56t-9.5 -66.5t-16.5 -80.5l-56 -264q-33 -151 -57 -200q-40 -85 -127 -110q-48 -14 -119 -14l25 118q64 0 87.5 28.5t37.5 98.5l89 416q5 26 7 38.5t1.5 33t-8.5 30t-25.5 17.5t-45.5 8z" />
    <glyph glyph-name="asterisk" unicode="*" 
d="M675 579l-146 -46l57 -116l-69 -45l-57 120l-116 -120l-50 45l108 116l-125 51l41 71l126 -49l30 144h75l-30 -144l147 49z" />
    <glyph glyph-name="plus" unicode="+" horiz-adv-x="584" 
d="M356 525h96l-42 -194h194l-20 -96h-194l-41 -194h-96l41 194h-194l20 96h194z" />
    <glyph glyph-name="comma" unicode="," horiz-adv-x="352" 
d="M62 -126l13 59q31 0 48.5 14t25.5 53h-50l29 135h126l-25 -118q-7 -31 -12 -48.5t-15.5 -38.5t-24 -31t-36.5 -17.5t-54 -7.5h-25z" />
    <glyph glyph-name="hyphen" unicode="-" horiz-adv-x="266" 
d="M69 324h266l-21 -96h-266z" />
    <glyph glyph-name="period" unicode="." horiz-adv-x="352" 
d="M244 137l-29 -137h-126l29 137h126z" />
    <glyph glyph-name="slash" unicode="/" horiz-adv-x="682" 
d="M846 750l-763 -863h-112l762 863h113z" />
    <glyph glyph-name="zero" unicode="0" 
d="M514 756q60 0 100.5 -4.5t74.5 -17.5t52.5 -34.5t27.5 -57t5.5 -84.5t-17.5 -116l-29 -136q-21 -101 -50 -162t-76 -94.5t-103 -44.5t-147 -11q-72 0 -117.5 7t-81 25.5t-49.5 54t-13.5 90t17.5 135.5l29 138q21 98 45 155t68 94.5t104.5 50t159.5 12.5zM377 112
q41 0 62.5 1t46 6.5t36.5 15t25 28t21.5 44t16.5 65.5l43 205q8 39 11 65t-2 44.5t-13 28.5t-30 15.5t-43.5 6.5t-61.5 1t-62.5 -1t-46.5 -6.5t-36.5 -15.5t-25.5 -28.5t-21.5 -44.5t-16.5 -65l-43 -205q-8 -40 -11 -65.5t2 -44t13 -28t30.5 -15t43.5 -6.5t62 -1z" />
    <glyph glyph-name="one" unicode="1" 
d="M651 750l-159 -750h-136l134 630l-237 -195l-63 89l288 226h173z" />
    <glyph glyph-name="two" unicode="2" 
d="M652 118l-25 -118h-565l30 143q8 36 17 64t22.5 49.5t25.5 37t33.5 28t37 19.5t46.5 14t51.5 11t61.5 10q19 3 47 7.5t40 6.5t31 6.5t26.5 8t20 11t17.5 16.5l12.5 22.5t12 30.5t9.5 40q15 72 -8.5 92.5t-106.5 20.5q-40 0 -57.5 -0.5t-41 -5.5t-32.5 -13.5t-21.5 -27
t-19.5 -43.5t-15 -65h-136q14 64 25.5 100t35 74t58 56.5t91.5 30.5t138 12q40 0 70.5 -2.5t59 -9t47.5 -17.5t33.5 -28t20.5 -41.5t5 -57.5t-10 -75q-13 -60 -30.5 -100t-38.5 -65.5t-58.5 -42.5t-74.5 -25.5t-103 -19.5q-110 -16 -131 -24q-45 -15 -62 -61q-7 -18 -13 -44
l-5 -25h429z" />
    <glyph glyph-name="three" unicode="3" 
d="M113 253h136q-8 -36 -11 -59t1.5 -39.5t10 -24.5t25.5 -12.5t37 -5t55 -0.5t55.5 0.5t41 3.5t34 9.5t23 18t18.5 29.5t12 44q13 62 -2 86.5t-74 24.5h-109l23 109h109q54 0 76.5 26t37.5 97q11 52 -14.5 65t-118.5 13t-121 -21t-47 -108h-136q14 65 33.5 108.5t44 71.5
t63.5 42.5t81 19.5t107 5q31 0 47.5 -0.5t44.5 -2t43.5 -5t37.5 -10t33.5 -16.5t24 -24.5t16.5 -34t4 -45.5t-7 -58q-17 -78 -50.5 -123t-104.5 -52l-1 -4q72 -5 92 -45.5t3 -118.5q-13 -61 -35.5 -102.5t-49 -65.5t-70.5 -36t-84 -15.5t-106 -3.5q-47 0 -75.5 1.5
t-61.5 6.5t-50 15.5t-33 29t-20 46.5t-2 67.5t13 92.5z" />
    <glyph glyph-name="four" unicode="4" 
d="M733 750l-102 -481h88l-23 -109h-88l-34 -160h-136l34 160h-408l33 157l424 433h212zM495 269l80 377h-4l-370 -377h294z" />
    <glyph glyph-name="five" unicode="5" 
d="M347 641l-39 -185h2q49 62 191 62t181.5 -57.5t8.5 -202.5q-13 -59 -28 -101t-37 -71.5t-47 -47t-63.5 -28t-78.5 -13.5t-100 -3q-42 0 -72 2t-58.5 8t-46 16t-31.5 26.5t-19 40t-4.5 55.5t8.5 74h136q-5 -22 -4.5 -38.5t3 -27.5t12.5 -18.5t18 -11.5t26.5 -5.5t30.5 -2
t37 -0.5q100 0 130.5 23.5t50.5 119.5q21 96 0 120.5t-119 24.5q-35 0 -52 -1t-40 -5t-36.5 -15t-21.5 -29h-126l85 400h523l-23 -109h-397z" />
    <glyph glyph-name="six" unicode="6" 
d="M419 340q-41 0 -58.5 -1t-41 -5t-34 -14t-20 -27.5t-15.5 -45.5q-20 -90 0.5 -112.5t120.5 -22.5q33 0 48.5 0.5t36 2.5t29.5 7t20.5 12.5t17 21t11.5 31t12 43.5q6 27 7.5 45t-4 31t-12.5 19.5t-27 10t-37.5 4t-53.5 0.5zM122 287l46 218q18 79 44.5 128.5t69.5 76.5
t94.5 36.5t131.5 9.5q44 0 70 -1t58.5 -5.5t50.5 -13t35.5 -24t23.5 -38.5t6 -56t-10 -77h-136q5 24 5.5 40.5t-6 27t-13.5 16.5t-26.5 9t-35 3.5t-47.5 0.5q-54 0 -79 -3t-47.5 -17t-32 -39.5t-20.5 -74.5l-25 -118h2q25 43 70.5 57.5t111.5 14.5q54 0 89 -3t66 -11
t46.5 -23t24.5 -39.5t7 -58.5t-12 -83q-16 -77 -40 -124.5t-65.5 -75t-94.5 -37t-138 -9.5q-60 0 -98.5 4t-70.5 15.5t-47.5 31t-22.5 53t-3 79t18 110.5z" />
    <glyph glyph-name="seven" unicode="7" 
d="M780 750l-29 -138l-436 -612h-155l457 627h-419l26 123h556z" />
    <glyph glyph-name="eight" unicode="8" 
d="M423 329q-72 0 -106 -9.5t-49 -30t-25 -68.5q-5 -35 -7 -56.5t14.5 -33t44 -15.5t82.5 -4q71 0 105.5 9.5t49.5 30.5t25 69q15 71 -7.5 89.5t-126.5 18.5zM352 -6q-32 0 -53 0.5t-48.5 3t-44.5 6.5t-37.5 12t-32 19.5t-22.5 29t-14 39.5t-2 51.5t9 65.5q15 71 52.5 113
t115.5 51l1 4q-69 15 -87 55.5t1 111.5q11 52 32 88.5t47 58.5t66.5 33.5t80.5 15.5t98 4h18h45t42 -2t40.5 -5t33.5 -10t30 -17t21 -25t14 -34.5t2 -46.5t-8 -60q-17 -77 -47.5 -115.5t-103.5 -51.5l-1 -4q68 -10 88.5 -50.5t4.5 -113.5q-13 -62 -35 -104t-48 -66.5
t-69 -37t-83 -16t-106 -3.5zM446 438q82 0 105 9q39 14 58 80q4 13 7 29q4 18 3.5 31t-2 22t-11.5 14.5t-16.5 8.5t-26.5 4.5t-32 1.5h-42q-94 0 -122.5 -13.5t-40.5 -68.5q-5 -25 -6 -43.5t0 -31.5t10 -21t16 -12.5t26.5 -6.5t32 -2.5t41.5 -0.5z" />
    <glyph glyph-name="nine" unicode="9" 
d="M487 638q-100 0 -129 -19t-45 -99q-16 -73 5 -91t120 -18q101 0 132.5 17.5t47.5 91.5q6 28 6.5 47.5t-5.5 33t-15 20.5t-28.5 11t-37.5 5t-51 1zM105 210h136q-5 -21 -5 -36t1 -26t11 -17.5t17 -10.5t28 -5.5t35.5 -2t46.5 -0.5q36 0 53.5 0.5t40 4.5t33 12t23 22.5
t19.5 36.5t14 54l27 124h-2q-33 -43 -79.5 -58t-123.5 -15q-44 0 -74 3t-59 11t-45.5 23.5t-27 40.5t-9.5 62t12 87q29 140 97 188t238 48q64 0 106.5 -5.5t73 -20.5t45.5 -37t19.5 -60t-1 -84t-20.5 -114l-46 -217q-15 -70 -43.5 -115t-74 -68.5t-96.5 -32t-125 -8.5
q-30 0 -48 0.5t-44.5 1.5t-41.5 4.5t-35.5 8.5t-31.5 13.5t-24 20t-18.5 27.5t-9 36t-1.5 46.5t9 57.5z" />
    <glyph glyph-name="colon" unicode=":" horiz-adv-x="352" 
d="M244 137l-29 -137h-126l29 137h126zM327 525l-30 -137h-126l30 137h126z" />
    <glyph glyph-name="semicolon" unicode=";" horiz-adv-x="352" 
d="M62 -126l13 59q31 0 48.5 14t25.5 53h-50l29 135h126l-25 -118q-7 -31 -12 -48.5t-15.5 -38.5t-24 -31t-36.5 -17.5t-54 -7.5h-25zM337 525l-30 -137h-126l30 137h126z" />
    <glyph glyph-name="less" unicode="&#x3c;" horiz-adv-x="584" 
d="M103 248l15 70l528 207l-22 -100l-378 -142l318 -142l-21 -100z" />
    <glyph glyph-name="equal" unicode="=" horiz-adv-x="584" 
d="M121 333l20 96h484l-20 -96h-484zM79 138l21 96h484l-21 -96h-484z" />
    <glyph glyph-name="greater" unicode="&#x3e;" horiz-adv-x="584" 
d="M602 318l-15 -70l-528 -207l21 100l378 142l-318 142l22 100z" />
    <glyph glyph-name="question" unicode="?" horiz-adv-x="595" 
d="M379 239h-126l3 17q17 80 43 109.5t104 60.5q9 4 29.5 11.5t27 10.5t20.5 10t19 13.5t13.5 17t13 24t8.5 31.5q14 69 -4 87.5t-89 18.5q-79 0 -107 -18.5t-39 -82.5l-6 -27h-126l6 27q27 127 88.5 166.5t210.5 39.5q34 0 59.5 -2t50 -8t40.5 -15.5t29 -25.5t18 -38
t4 -52.5t-9 -69.5q-18 -85 -51.5 -123.5t-123.5 -72.5q-4 -1 -18 -6.5t-17 -6.5t-14 -6t-13.5 -7.5t-10.5 -8t-10.5 -10.5t-7 -12t-7.5 -15.5t-5 -19.5zM357 137l-29 -137h-126l29 137h126z" />
    <glyph glyph-name="at" unicode="@" horiz-adv-x="975" 
d="M739 551h78l-127 -261q-21 -52 31 -52t102.5 65.5t62.5 118.5q20 96 -45 173t-181 77q-95 0 -184.5 -52.5t-144.5 -125.5t-71 -144q-25 -117 48 -194.5t196 -77.5q103 0 177 30l14 -75q-82 -39 -209 -39q-73 0 -138 22t-113.5 63t-69.5 107.5t-4 146.5
q23 108 100.5 205.5t189.5 157.5t227 60q70 0 131.5 -24.5t103.5 -67t60 -105t3 -133.5q-21 -99 -101.5 -182t-177.5 -83q-38 0 -58.5 13t-32.5 45q-84 -58 -141 -58q-60 0 -92.5 45t-20.5 106q19 88 107 170.5t174 82.5q29 0 53 -19t28 -46h2zM602 488q-37 0 -86 -44
t-64 -116q-20 -90 51 -90q56 0 102.5 60t58.5 121q7 34 -9.5 51.5t-52.5 17.5z" />
    <glyph glyph-name="A" unicode="A" horiz-adv-x="709" 
d="M547 142h-324l-77 -142h-149l408 750h212l95 -750h-146zM538 251l-46 389h-2l-211 -389h259z" />
    <glyph glyph-name="B" unicode="B" horiz-adv-x="716" 
d="M278 327l-44 -204h197q72 0 103 17t45 81q13 63 -2 84.5t-78 21.5h-221zM450 0h-386l159 750h373q39 0 67 -3t52.5 -11t39 -22t23 -35.5t8 -52t-9.5 -71.5q-15 -71 -45 -111t-97 -55l-1 -4q49 -6 72.5 -30t24 -61t-9.5 -85q-25 -121 -86 -165t-184 -44zM341 627l-40 -191
h207q60 0 84 22t37 83q12 56 -7 71t-78 15h-203z" />
    <glyph glyph-name="C" unicode="C" horiz-adv-x="696" 
d="M761 499h-144l9 41q13 62 -13.5 77.5t-126.5 15.5q-109 0 -146.5 -30.5t-60.5 -140.5l-35 -166q-19 -73 -13 -113t36.5 -53t108.5 -13q41 0 63 1.5t47 7t38.5 17.5t24.5 32.5t18 52.5l9 41h144l-10 -49q-10 -52 -26.5 -90t-41 -62t-48.5 -38t-62.5 -21t-70 -9.5
t-81.5 -4.5h-10t-9.5 -0.5t-10.5 -0.5q-131 -5 -193 23.5t-72 96t14 176.5l36 172q19 90 48.5 147.5t77 90t106 44.5t145.5 12q45 0 67 -0.5t56.5 -3t50.5 -8t38 -15.5t30 -26t16 -38.5t7.5 -53.5t-7.5 -71z" />
    <glyph glyph-name="D" unicode="D" horiz-adv-x="754" 
d="M62 0l159 750h358q157 0 212.5 -64t23.5 -215l-38 -177q-14 -64 -35 -112.5t-58 -92t-97.5 -66.5t-142.5 -23h-382zM232 123h238q67 0 107.5 49.5t55.5 121.5l38 177q20 91 -6.5 123.5t-111.5 32.5h-214z" />
    <glyph glyph-name="E" unicode="E" horiz-adv-x="619" 
d="M333 627l-39 -187h351l-26 -118h-351l-42 -199h373l-26 -123h-517l159 750h514l-26 -123h-370z" />
    <glyph glyph-name="F" unicode="F" horiz-adv-x="582" 
d="M335 627l-42 -199h334l-25 -118h-334l-66 -310h-144l159 750h496l-26 -123h-352z" />
    <glyph glyph-name="G" unicode="G" horiz-adv-x="727" 
d="M439 398h333l-29 -136q-24 -115 -62 -170t-109 -76.5t-209 -21.5q-64 0 -107.5 4t-80 16t-56.5 32.5t-30.5 54t-8.5 79.5t16 110l36 172q20 93 50 151t80.5 89.5t110 42.5t152.5 11h19q49 0 72.5 -0.5t62 -4.5t56 -12.5t39.5 -25.5t28 -41.5t6.5 -61.5t-11.5 -86h-143
q4 18 4.5 32.5t0.5 25.5t-7 19t-11 13.5t-18.5 9t-22 5.5t-29 3t-33 1h-39.5q-66 0 -101.5 -5.5t-60.5 -26.5t-36 -50t-25 -89l-36 -172q-8 -42 -11.5 -68t0.5 -46.5t13 -31t30.5 -17.5t47 -8.5t69.5 -1.5q41 0 61.5 1t46.5 5t38 13t26 25.5t22 40.5t16 60l5 27h-189z" />
    <glyph glyph-name="H" unicode="H" horiz-adv-x="769" 
d="M862 750l-159 -750h-144l68 320h-349l-68 -320h-144l159 750h144l-65 -307h349l65 307h144z" />
    <glyph glyph-name="I" unicode="I" horiz-adv-x="276" 
d="M369 750l-159 -750h-144l159 750h144z" />
    <glyph glyph-name="J" unicode="J" horiz-adv-x="583" 
d="M539 750h144l-110 -519q-16 -74 -39 -120t-59.5 -72t-81.5 -35.5t-113 -9.5q-36 0 -62 1.5t-53 6.5t-44 13.5t-31.5 22.5t-21 34t-6.5 48.5t8 65.5l22 108h138l-11 -56q-20 -74 -6.5 -97.5t93.5 -23.5q63 0 85.5 22t37.5 92z" />
    <glyph glyph-name="K" unicode="K" horiz-adv-x="715" 
d="M369 750l-65 -306h67l315 306h177l-381 -366l253 -384h-182l-208 321h-67l-68 -321h-144l159 750h144z" />
    <glyph glyph-name="L" unicode="L" horiz-adv-x="565" 
d="M369 750l-133 -627h350l-26 -123h-494l159 750h144z" />
    <glyph glyph-name="M" unicode="M" horiz-adv-x="1007" 
d="M938 632l-370 -632h-129l-104 629h-3l-122 -629h-144l159 750h231l86 -557h4l318 557h236l-159 -750h-144l146 632h-5z" />
    <glyph glyph-name="N" unicode="N" horiz-adv-x="827" 
d="M655 123l121 627h144l-159 -750h-239l-186 627h-5l-121 -627h-144l159 750h238l188 -627h4z" />
    <glyph glyph-name="O" unicode="O" horiz-adv-x="715" 
d="M517 756q59 0 98.5 -3.5t76 -14t57 -29.5t32.5 -49t11 -74t-14 -104l-42 -202q-19 -90 -48 -146t-77.5 -87t-106.5 -42t-149 -11q-62 0 -103.5 4t-77 15.5t-54.5 31t-29.5 52t-7.5 77t16 106.5l42 202q15 71 36 118.5t49 78.5t71 47.5t93.5 23t126.5 6.5zM491 633
q-59 0 -93.5 -6t-57 -25.5t-33 -45t-22.5 -74.5l-42 -202q-8 -39 -11 -64t1 -44t12.5 -29.5t29 -16.5t43.5 -7.5t63 -1.5q54 0 85 5t57.5 22t41.5 49t27 87l42 202q8 35 10 60t-4.5 42t-16.5 26.5t-31.5 14.5t-43 6.5t-57.5 1.5z" />
    <glyph glyph-name="P" unicode="P" horiz-adv-x="686" 
d="M56 0l159 750h332q63 0 104 -7t70 -23.5t41 -46.5t11.5 -73.5t-13.5 -107.5q-17 -80 -40.5 -128.5t-63.5 -75.5t-88.5 -36t-127.5 -9h-188l-52 -243h-144zM278 366h188q78 2 105.5 25t44.5 101q19 80 1.5 108t-96.5 27h-188z" />
    <glyph glyph-name="Q" unicode="Q" horiz-adv-x="766" 
d="M795 101l-76 -85l-54 49q-31 -26 -66 -41.5t-78.5 -21.5t-67 -7t-71.5 -1q-62 0 -104 4t-79 15t-57 31t-31.5 52t-11 77t12.5 107l42 202q19 87 50 141.5t82 83.5t109.5 39t148.5 10q35 0 58 -0.5t54 -3.5t50.5 -8t42.5 -15t36 -24t25 -34.5t16 -47t2 -62.5t-11 -79
l-42 -202q-21 -91 -42 -130zM482 352l137 -109q3 15 12.5 51t13.5 56l28 132q7 35 8.5 58.5t-4.5 41t-16.5 27t-32.5 15.5t-46.5 7.5t-63.5 1.5q-44 0 -69.5 -2t-53.5 -10t-44 -24.5t-30 -44.5t-23 -70l-42 -202q-8 -39 -10.5 -65.5t3.5 -45.5t15.5 -29t32.5 -15.5t46 -6.5
t65 -1q40 0 56.5 0.5t46.5 8t52 22.5l-158 119z" />
    <glyph glyph-name="R" unicode="R" horiz-adv-x="722" 
d="M479 248h-221l-53 -248h-144l159 750h383q125 -3 166 -51.5t14 -173.5q-11 -50 -20 -78.5t-28 -60t-51 -48.5t-79 -24l-1 -4q72 -6 91.5 -48.5t-0.5 -121.5l-30 -140h-144l30 140q22 107 -72 108zM284 371h190q80 0 111 24.5t49 106.5q16 79 -1.5 102t-94.5 23h-200z" />
    <glyph glyph-name="S" unicode="S" horiz-adv-x="673" 
d="M84 239h144l-8 -35q-13 -62 16 -77t135 -15q95 0 126.5 21.5t45.5 89.5q4 20 4 35t-1.5 25t-10.5 17t-15.5 10.5t-23.5 5.5t-27.5 3t-35 1.5t-38.5 1.5q-122 8 -155 16q-80 21 -94 91q-8 45 7 115q8 38 19.5 68t29 52t34.5 37.5t43.5 25.5t48 16t55.5 9t59 3.5t66 0.5
q31 0 50 -0.5t46 -2.5t43 -5.5t35.5 -10.5t30.5 -17.5t21.5 -25.5t13.5 -35t2.5 -46.5t-7.5 -58.5l-5 -24h-144l5 24q12 57 -11 70.5t-105 13.5q-107 0 -140 -17t-46 -77q-5 -25 -7 -39.5t3.5 -26.5t12.5 -17.5t29 -10t42 -6t63 -4.5q66 -4 101 -7.5t72.5 -12.5t52 -22
t25.5 -37t8.5 -56.5t-12.5 -81.5q-11 -52 -26.5 -90t-39 -63t-48.5 -40.5t-63.5 -23t-74 -10t-89.5 -2.5h-11q-40 0 -60 0.5t-54 2.5t-51 8t-41 15.5t-34 25t-19.5 37t-8.5 52t9 69.5z" />
    <glyph glyph-name="T" unicode="T" horiz-adv-x="587" 
d="M499 627l-133 -627h-144l133 627h-220l26 123h584l-26 -123h-220z" />
    <glyph glyph-name="U" unicode="U" horiz-adv-x="754" 
d="M704 750h144l-113 -533q-11 -51 -28.5 -89t-44.5 -62t-54.5 -39t-69 -22t-76 -9t-87.5 -2q-33 0 -57 0.5t-52.5 3.5t-47.5 7.5t-40 12.5t-33.5 19.5t-23.5 28.5t-15 38.5t-3 50t8 62.5l113 533h144l-113 -533q-12 -59 16 -79.5t130 -20.5q101 0 139 20t51 80z" />
    <glyph glyph-name="V" unicode="V" horiz-adv-x="677" 
d="M698 750h149l-401 -750h-217l-81 750h147l67 -630h3z" />
    <glyph glyph-name="W" unicode="W" horiz-adv-x="1113" 
d="M835 118l296 632h145l-361 -750h-208l-28 572h-4l-277 -572h-206l-36 750h144l22 -632h4l306 632h166l34 -632h3z" />
    <glyph glyph-name="X" unicode="X" horiz-adv-x="693" 
d="M846 750l-300 -363l158 -387h-166l-122 317l-257 -317h-170l329 387l-152 363h168l111 -298l236 298h165z" />
    <glyph glyph-name="Y" unicode="Y" horiz-adv-x="670" 
d="M840 750l-375 -462l-61 -288h-144l61 288l-173 462h164l110 -320h3l249 320h166z" />
    <glyph glyph-name="Z" unicode="Z" horiz-adv-x="648" 
d="M777 750l-26 -123l-521 -501l-1 -3h420l-26 -123h-598l26 122l518 501l1 4h-394l26 123h575z" />
    <glyph glyph-name="bracketleft" unicode="[" horiz-adv-x="348" 
d="M220 756h232l-23 -109h-96l-147 -688h96l-23 -109h-232z" />
    <glyph glyph-name="backslash" unicode="\" horiz-adv-x="278" 
d="M192 -113l-83 863h113l82 -863h-112z" />
    <glyph glyph-name="bracketright" unicode="]" horiz-adv-x="348" 
d="M257 -150h-232l23 109h96l147 688h-96l23 109h232z" />
    <glyph glyph-name="asciicircum" unicode="^" horiz-adv-x="584" 
d="M416 750h70l104 -485h-100l-67 349l-217 -349h-100z" />
    <glyph glyph-name="underscore" unicode="_" horiz-adv-x="500" 
d="M484 -75l-11 -50h-500l11 50h500z" />
    <glyph glyph-name="grave" unicode="`" horiz-adv-x="371" 
d="M278 743l151 -116l-38 -52l-176 86z" />
    <glyph glyph-name="a" unicode="a" horiz-adv-x="589" 
d="M334 236q-31 0 -46.5 -1.5t-36 -8t-31.5 -22.5t-17 -43q-11 -53 9.5 -67t88.5 -14q60 0 91 15t42 66q6 26 1 42t-22.5 23t-33.5 8.5t-45 1.5zM400 0l19 66h-3q-14 -25 -34.5 -40.5t-47.5 -22t-46.5 -8t-49.5 -1.5q-100 0 -141 34t-20 133q19 91 73.5 126t156.5 35
q42 0 64.5 -2t47.5 -16t33 -42h4l14 68q18 64 2.5 89.5t-89.5 25.5q-33 0 -52 -3.5t-37.5 -20.5t-25.5 -49h-126q10 44 29 75t40.5 47t57 25t62 10.5t70.5 1.5q45 0 75.5 -2.5t57.5 -10.5t41.5 -22t23.5 -36.5t7.5 -54.5t-10.5 -76l-70 -329h-126z" />
    <glyph glyph-name="b" unicode="b" horiz-adv-x="594" 
d="M402 435q-78 0 -109 -34t-50 -123q-1 -4 -2 -11q-21 -98 -14 -127q11 -46 85 -50h17q19 0 35 3t28 6.5t22.5 13.5t17 15.5t14 22.5t10.5 24.5t9 31.5t8 33t8 38q19 99 3.5 128t-82.5 29zM58 0l159 750h126l-62 -295h5q48 76 174 76q53 0 87.5 -12t52 -32t22 -54t0.5 -69
t-15 -86q-9 -42 -15 -67t-17.5 -59t-23.5 -54t-31 -42.5t-43 -34t-57 -19.5t-74 -8q-61 0 -97.5 18.5t-48.5 66.5h-4l-12 -79h-126z" />
    <glyph glyph-name="c" unicode="c" horiz-adv-x="551" 
d="M437 200h126q-27 -125 -86 -165.5t-197 -40.5q-74 0 -116 11.5t-62 43.5t-19 81t19 132q16 75 33.5 120.5t49.5 82t82.5 51.5t126.5 15q36 0 62 -2t51.5 -7t41.5 -13.5t29 -23t18 -34.5t4.5 -47.5t-8.5 -62.5h-126q12 59 -6.5 76.5t-86.5 17.5q-27 0 -46 -2.5t-33.5 -13
t-23 -19.5t-16.5 -33.5t-12.5 -44t-13.5 -60.5q-22 -103 -18 -128q6 -36 55 -42q15 -2 35 -2q75 0 98.5 19.5t38.5 90.5z" />
    <glyph glyph-name="d" unicode="d" horiz-adv-x="593" 
d="M371 435q-67 0 -95.5 -30t-49.5 -127q-22 -103 -18 -132q7 -50 71 -55q9 -1 19 -1q46 0 74.5 10t44.5 36t24 52.5t19 78.5q0 3 0.5 5.5t1.5 5.5q22 84 4.5 120.5t-95.5 36.5zM405 0l22 79h-4q-33 -48 -77 -66.5t-105 -18.5q-36 0 -63.5 5t-45.5 17t-30.5 25t-17 35
t-6.5 41t2 49.5t8 53t12 58.5q11 52 22 86.5t30 68.5t45 54t65.5 32t92.5 12q125 0 142 -76h5l62 295h126l-159 -750h-126z" />
    <glyph glyph-name="e" unicode="e" horiz-adv-x="570" 
d="M438 167h126q-10 -48 -29 -81t-40.5 -51t-58.5 -27.5t-68.5 -11.5t-84.5 -2q-101 0 -147 24t-54.5 83.5t15.5 159.5q16 77 34 122.5t51 82t84.5 51t130.5 14.5q109 0 154 -25t50.5 -89.5t-21.5 -177.5h-361q-23 -85 -9.5 -117t93.5 -32q28 0 40 0.5t32 4t29.5 11.5t19 23
t14.5 38zM236 319h235q9 43 10 64.5t-11 34t-31.5 15t-62.5 2.5q-42 0 -65 -4.5t-38 -19.5t-21.5 -33.5t-15.5 -58.5z" />
    <glyph glyph-name="f" unicode="f" horiz-adv-x="348" 
d="M454 525l-21 -96h-128l-91 -429h-126l91 429h-74l21 96h74l9 46q21 99 63.5 139t142.5 40h82l-20 -96h-38q-31 1 -50 -4t-30.5 -20t-15.5 -29t-11 -44l-6 -32h128z" />
    <glyph glyph-name="g" unicode="g" horiz-adv-x="594" 
d="M372 435q-67 0 -95.5 -30t-49.5 -127q-7 -33 -10 -48.5t-6 -40.5t-1.5 -36t6.5 -26t15.5 -21t27 -11t40.5 -5q37 0 63 8.5t42 20.5t28 40t17.5 50t15.5 69q22 84 3.5 120.5t-96.5 36.5zM405 -25l21 100h-3q-56 -81 -181 -81q-53 0 -87.5 12t-52 32t-22 54t-0.5 69t15 86
q9 42 15 67t17.5 59t23.5 54t31 42.5t43 34t57 19.5t74 8q61 0 97 -18t49 -67h4l12 79h126l-112 -524q-30 -140 -93 -187t-209 -47q-35 0 -60.5 2.5t-51 9t-41 19t-25.5 32t-9.5 49t10.5 67.5h118q-11 -52 6.5 -67.5t73.5 -15.5q80 0 110 22t44 90z" />
    <glyph glyph-name="h" unicode="h" horiz-adv-x="598" 
d="M347 750l-64 -304h4q30 53 73.5 69t109.5 16q101 0 131.5 -43t9.5 -142l-74 -346h-126l71 333q12 59 -3 80.5t-74 21.5q-77 0 -108 -34t-48 -112l-61 -289h-126l159 750h126z" />
    <glyph glyph-name="i" unicode="i" horiz-adv-x="236" 
d="M293 525l-112 -525h-126l112 525h126zM340 750l-22 -107h-126l22 107h126z" />
    <glyph glyph-name="j" unicode="j" horiz-adv-x="225" 
d="M288 525l-115 -537q-17 -84 -56.5 -128t-120.5 -44q-24 0 -46 6l19 90q38 0 53.5 16t22.5 48l117 549h126zM335 750l-22 -107h-126l22 107h126z" />
    <glyph glyph-name="k" unicode="k" horiz-adv-x="539" 
d="M346 750l-91 -429h31l191 204h142l-239 -247l165 -278h-152l-125 235h-31l-50 -235h-126l159 750h126z" />
    <glyph glyph-name="l" unicode="l" horiz-adv-x="252" 
d="M348 750l-159 -750h-126l159 750h126z" />
    <glyph glyph-name="m" unicode="m" horiz-adv-x="924" 
d="M175 525h122l-17 -76h4q53 82 183 82q59 0 98 -20.5t38 -72.5h4q51 93 186 93q101 0 132.5 -39.5t10.5 -136.5l-75 -355h-126l73 343q9 51 -5 71.5t-64 20.5q-73 0 -104 -32t-47 -107l-63 -296h-126l73 343q9 51 -5 71.5t-64 20.5q-73 0 -104 -32t-47 -107l-63 -296h-126
z" />
    <glyph glyph-name="n" unicode="n" horiz-adv-x="598" 
d="M174 525h126l-17 -79h4q30 53 73.5 69t109.5 16q101 0 131.5 -43t9.5 -142l-74 -346h-126l71 333q12 59 -3 80.5t-74 21.5q-77 0 -108 -34t-48 -112l-61 -289h-126z" />
    <glyph glyph-name="o" unicode="o" horiz-adv-x="582" 
d="M404 531q109 0 156 -24.5t52.5 -84t-18.5 -160.5q-12 -55 -22.5 -91t-27 -68.5t-36.5 -51t-51 -32.5t-71 -19.5t-96 -5.5q-109 0 -156 24.5t-52.5 84t18.5 159.5q12 55 22.5 91t27 69t36.5 51.5t51 32.5t71 19.5t96 5.5zM383 435q-81 0 -107.5 -31.5t-50.5 -142.5
q-25 -105 -10.5 -138t95.5 -33q43 0 67.5 6t42 28t26.5 50.5t21 86.5q26 107 11.5 140.5t-95.5 33.5z" />
    <glyph glyph-name="p" unicode="p" horiz-adv-x="596" 
d="M331 90q67 0 96 30t50 127q22 103 17 133q-8 50 -75 55h-15q-46 0 -74.5 -9t-46 -38t-24 -52t-18.5 -80q-1 -3 -1.5 -5t-0.5 -4q-22 -84 -4 -120.5t96 -36.5zM298 525l-22 -79h4q32 48 76.5 66.5t105.5 18.5q36 0 63.5 -5t45.5 -17t30.5 -25t17 -35t6.5 -41t-2 -49.5
t-8 -53t-12 -58.5q-11 -52 -22 -86.5t-30 -68.5t-45 -54t-65.5 -32t-92.5 -12q-127 0 -142 76h-5l-63 -297h-126l160 752h126z" />
    <glyph glyph-name="q" unicode="q" horiz-adv-x="597" 
d="M375 435q-67 0 -95.5 -30t-49.5 -127q-22 -103 -18 -132q7 -50 71 -55q9 -1 19 -1q27 0 48.5 4.5t36 10t27 21t19 25t14 36t10.5 40.5t11 51q22 84 3.5 120.5t-96.5 36.5zM647 525l-160 -752h-126l63 297h-5q-49 -76 -174 -76q-53 0 -87.5 12t-52 32t-22 54t-0.5 69
t15 86q9 42 15 67t17.5 59t23.5 54t31 42.5t43 34t57 19.5t74 8q61 0 97 -18t49 -67h4l12 79h126z" />
    <glyph glyph-name="r" unicode="r" horiz-adv-x="471" 
d="M165 525h123l-18 -69h5q48 75 156 75q78 0 99 -42t4 -123l-9 -42h-118l6 27q12 40 3 62t-50 22q-54 0 -81 -28.5t-37 -82.5l-69 -324h-126z" />
    <glyph glyph-name="s" unicode="s" horiz-adv-x="557" 
d="M588 382h-126q3 13 3 23t-1.5 17t-8.5 11.5t-12.5 6.5t-18.5 3.5t-21.5 1.5h-26.5q-26 0 -38.5 -0.5t-30.5 -4t-27.5 -10.5t-18.5 -20.5t-13 -33.5q-8 -38 9.5 -46.5t101.5 -12.5q103 -5 128 -11q72 -17 77 -85q3 -30 -6 -71t-28.5 -70.5t-43.5 -46t-60 -25.5t-68 -11.5
t-78 -2.5h-41.5t-37.5 1t-35 3.5t-29 6.5t-26 10.5t-19 15.5t-14.5 21.5t-6.5 29t-1 37.5t7 46h126q-10 -56 7 -70.5t88 -14.5q31 0 42.5 0.5t32 3.5t28.5 10t17.5 21t13.5 35q5 17 4.5 30t-10.5 22t-36 13.5t-73 5.5q-144 2 -179.5 32t-13.5 131q7 35 20 60.5t34 41.5
t40.5 25.5t53 13.5t57 5t65.5 1h31.5t31 -1t31 -3.5t28 -6t26 -9t21 -13.5t17 -19t10 -25t4 -32t-5.5 -40z" />
    <glyph glyph-name="t" unicode="t" horiz-adv-x="425" 
d="M89 429l21 96h66l25 119h126l-25 -119h201l-21 -96h-201l-57 -269q-10 -36 -3.5 -53t42.5 -17q13 0 23.5 3t18 6t14 12t10 13.5t7.5 17.5t5 17.5t4.5 21t4.5 20.5h111q-24 -119 -70 -163t-148 -44q-105 0 -135.5 33.5t-9.5 131.5l57 270h-66z" />
    <glyph glyph-name="u" unicode="u" horiz-adv-x="593" 
d="M530 0h-122l17 81h-4q-55 -87 -184 -87q-85 0 -123 34.5t-21 116.5l81 380h126l-71 -331q-15 -56 -3 -80t69 -24q71 0 106 31t50 101l65 303h126z" />
    <glyph glyph-name="v" unicode="v" horiz-adv-x="491" 
d="M609 525l-265 -525h-190l-47 525h129l29 -439h3l209 439h132z" />
    <glyph glyph-name="w" unicode="w" horiz-adv-x="796" 
d="M906 525l-232 -525h-180l-4 422h-3l-183 -422h-183l-7 525h124l-5 -439h3l196 439h157l7 -439h4l184 439h122z" />
    <glyph glyph-name="x" unicode="x" horiz-adv-x="500" 
d="M599 525l-206 -249l111 -276h-148l-65 192l-146 -192h-150l232 276l-100 249h144l55 -168l127 168h146z" />
    <glyph glyph-name="y" unicode="y" horiz-adv-x="485" 
d="M602 525l-252 -546q-21 -46 -33 -69t-34.5 -55.5t-44.5 -48t-56.5 -27.5t-77.5 -12q-10 0 -28.5 2t-24.5 2l21 95q24 -3 26 -3q23 0 42 9.5t31 20t24.5 33.5t17.5 35t16 39h-61l-61 525h130l38 -447h2l197 447h128z" />
    <glyph glyph-name="z" unicode="z" horiz-adv-x="475" 
d="M541 420l-352 -324h283l-20 -96h-429l23 108l348 321h-258l21 96h407z" />
    <glyph glyph-name="braceleft" unicode="{" horiz-adv-x="389" 
d="M92 260l21 96q82 0 91 44l47 223q9 42 37.5 74.5t56 45.5t48.5 13h96l-21 -96h-37q-16 0 -27 -4t-17 -13t-8 -15t-5 -19l-44 -207q-6 -26 -20.5 -45.5t-32.5 -29t-33 -14t-30 -5.5v-2q7 -1 11 -1.5t12.5 -2t13.5 -3.5t12 -6t11.5 -9t9 -13t6 -17t1.5 -22t-3 -28l-44 -207
q-2 -13 -3 -24.5t8.5 -19t30.5 -7.5h37l-21 -96h-96q-35 0 -66.5 35.5t-18.5 97.5l48 223q11 54 -71 54z" />
    <glyph glyph-name="bar" unicode="|" horiz-adv-x="497" 
d="M283 865h92v-1153h-92v1153z" />
    <glyph glyph-name="braceright" unicode="}" horiz-adv-x="389" 
d="M426 346l-21 -96q-82 0 -91 -44l-48 -223q-13 -62 -59.5 -97.5t-81.5 -35.5h-96l21 96h37q16 0 27 4t16.5 13t7.5 15t5 19l44 207q8 34 32 56.5t43.5 29t40.5 8.5l1 2q-17 2 -28 4.5t-26.5 12t-21 31t0.5 54.5l44 207q8 19 2 35t-37 16h-37l21 96h96q35 0 66 -35.5
t18 -97.5l-47 -223q-4 -19 2.5 -31.5t22 -16.5t24.5 -5t22 -1z" />
    <glyph glyph-name="asciitilde" unicode="~" horiz-adv-x="584" 
d="M524 345h83q-11 -56 -55.5 -106t-94.5 -50q-37 0 -74 21l-107 60q-22 14 -43 14q-33 0 -53 -65h-83q12 61 61 109.5t110 48.5q24 0 52 -17l93 -59q28 -19 55 -19q25 0 38.5 19.5t17.5 43.5z" />
    <glyph glyph-name="uni00A0" unicode="&#xa0;" horiz-adv-x="352" 
 />
    <glyph glyph-name="exclamdown" unicode="&#xa1;" horiz-adv-x="309" 
d="M329 525l-30 -137h-126l30 137h126zM35 -225l114 499h126l-98 -499h-142z" />
    <glyph glyph-name="cent" unicode="&#xa2;" 
d="M357 174l74 346q-29 -5 -49.5 -19.5t-33.5 -42t-20 -50.5t-16 -64q-6 -29 -9 -46.5t-5.5 -38.5t0.5 -33.5t9 -24.5t18.5 -18.5t31.5 -8.5zM407 78l-18 -84h-70l18 84q-46 0 -78 8.5t-51 26t-28.5 39t-10 54t3.5 63.5t13 75q12 56 23 91.5t30.5 72.5t46 58t68 35t97.5 15
l14 68h70l-14 -68q103 -1 142.5 -44.5t19.5 -146.5h-126q9 51 -1.5 68.5t-54.5 26.5l-74 -346q51 5 70 27t30 83h126q-19 -110 -72 -156.5t-174 -49.5z" />
    <glyph glyph-name="sterling" unicode="&#xa3;" 
d="M567 392l-23 -109h-201l-9 -42q-7 -35 -13 -53t-22.5 -37t-45.5 -33l-1 -3l452 6l-26 -121h-608l25 118q45 4 66.5 32.5t33.5 77.5l12 55h-98l23 109h98l26 120q30 145 93.5 194.5t210.5 49.5q44 0 71 -1t58 -6t48.5 -13.5t33.5 -23.5t21 -37.5t4.5 -54.5t-9.5 -74
l-7 -32h-136l7 32q12 56 -7 74t-97 18q-77 0 -107 -19.5t-45 -90.5l-29 -136h201z" />
    <glyph glyph-name="currency" unicode="&#xa4;" 
d="M575 248l60 -77l-81 -65l-61 77q-5 -2 -17 -8t-19.5 -9t-19.5 -7t-25.5 -5.5t-29.5 -1.5q-60 4 -92 33l-97 -80l-52 67l94 79q-23 38 -10 103q14 71 52 102l-63 77l84 69l61 -78q51 33 115 30q67 -3 96 -28l95 78l54 -68l-97 -79q1 -2 3.5 -10t3.5 -12.5l3 -13.5t2 -16.5
t-0.5 -18t-2.5 -22.5q-11 -55 -56 -116zM320 348q-6 -43 19 -71.5t66 -28.5q53 0 87 33t40 67q12 42 -12 76t-71 34t-85 -33.5t-44 -76.5z" />
    <glyph glyph-name="yen" unicode="&#xa5;" 
d="M672 536h94l-23 -109h-155l-71 -86h207l-23 -109h-235l-49 -232h-136l49 232h-228l23 109h200l-32 86h-149l23 109h90l-76 214h156l103 -320h3l241 320h158z" />
    <glyph glyph-name="brokenbar" unicode="&#xa6;" horiz-adv-x="497" 
d="M283 778h92v-403h-92v403zM283 201h92v-402h-92v402z" />
    <glyph glyph-name="section" unicode="&#xa7;" 
d="M503 340l-122 32q-41 11 -57 11q-37 0 -54.5 -24t-26.5 -66q-9 -44 3.5 -58.5t62.5 -26.5l144 -35q40 -10 51 -10q57 0 76 91q9 42 -3.5 56t-73.5 30zM67 1h130q-11 -46 -6.5 -72t34 -35t105.5 -9q99 0 132.5 17t44.5 72q10 44 -3 59t-58 25l-234 54q-79 18 -98.5 49
t-1.5 117q8 38 17.5 63t33.5 49t60 32q-30 20 -33.5 61.5t9.5 84.5q11 51 30.5 86t43.5 55t64.5 30.5t78.5 13.5t99 3q33 0 53 -0.5t46.5 -2.5t42 -5.5t34 -10.5t28 -16.5t19 -24t12 -33.5t1 -44t-7.5 -56l-6 -28h-130q12 69 -6.5 86t-110.5 17q-63 0 -94 -6.5t-43 -20
t-18 -43.5q-10 -48 5 -62t75 -28l159 -38q86 -21 109 -37q47 -32 29 -120q0 -3 -1 -5q-29 -134 -104 -157l-1 -2q22 -8 33.5 -22t13 -35.5t-1 -40.5t-8.5 -47q-8 -38 -19 -68t-28 -51t-32.5 -36.5t-41.5 -25t-45 -15t-53.5 -8t-56.5 -3t-63 -0.5q-46 0 -76 1.5t-62 6.5
t-50.5 14t-35 25t-21.5 39t-4.5 56t9.5 76z" />
    <glyph glyph-name="dieresis" unicode="&#xa8;" horiz-adv-x="453" 
d="M223 695h99l-19 -88h-99zM427 695h99l-19 -88h-99z" />
    <glyph glyph-name="copyright" unicode="&#xa9;" horiz-adv-x="790" 
d="M394 -6q-158 0 -246 111.5t-54 269.5t169 269.5t293 111.5t246 -111.5t54 -269.5t-169 -269.5t-293 -111.5zM409 66q127 0 237 90.5t138 218.5q27 128 -45 218.5t-199 90.5q-129 0 -238.5 -90.5t-136.5 -218.5q-28 -128 43.5 -218.5t200.5 -90.5zM568 307h85
q-22 -68 -80.5 -108t-127.5 -40q-94 0 -139 62.5t-25 156.5q21 97 90 159t165 62q70 0 111 -39t37 -106h-85q1 35 -20.5 55t-58.5 20q-58 0 -99.5 -44t-54.5 -105q-13 -58 12 -104.5t82 -46.5q36 0 67.5 22t40.5 56z" />
    <glyph glyph-name="ordfeminine" unicode="&#xaa;" horiz-adv-x="440" 
d="M370 435l9 31l-2 2q-14 -17 -33 -26t-33 -10t-40 -1q-61 0 -86.5 21t-12.5 79q12 57 47 78t96 21q78 0 87 -28h2l8 40q3 17 4.5 30t-11.5 21t-42 8q-31 0 -46.5 -7.5t-20.5 -36.5h-86q6 29 19 48.5t26.5 29.5t37.5 15t38.5 5.5t43.5 0.5q25 0 41.5 -1.5t34.5 -5t27 -11
t18 -19.5t8 -29.5t-4 -42.5l-46 -212h-84zM312 486q36 0 54 9t25 39q5 26 -9.5 33.5t-51.5 7.5q-17 0 -25 -0.5t-19.5 -4t-17.5 -12t-9 -22.5q-7 -33 4.5 -41.5t48.5 -8.5z" />
    <glyph glyph-name="guillemotleft" unicode="&#xab;" horiz-adv-x="529" 
d="M297 539l75 -48l-153 -216l69 -211l-92 -51l-87 262zM502 539l74 -48l-153 -216l69 -211l-91 -51l-88 262z" />
    <glyph glyph-name="logicalnot" unicode="&#xac;" horiz-adv-x="584" 
d="M464 121l45 212h-388l20 96h484l-65 -308h-96z" />
    <glyph glyph-name="uni00AD" unicode="&#xad;" horiz-adv-x="266" 
d="M69 324h266l-21 -96h-266z" />
    <glyph glyph-name="registered" unicode="&#xae;" horiz-adv-x="790" 
d="M394 -6q-158 0 -246 111.5t-54 269.5q33 158 168.5 269.5t293.5 111.5q157 0 245 -112t55 -269q-34 -157 -169.5 -269t-292.5 -112zM409 66q128 0 237.5 90t137.5 219q27 129 -44.5 219t-199.5 90q-129 0 -238 -90t-136 -219q-28 -129 43 -219t200 -90zM558 342l62 -174
h-93l-55 174h-81l-37 -174h-80l87 411h199q74 0 111.5 -23.5t23.5 -90.5q-14 -64 -47 -91.5t-90 -31.5zM403 402h121q38 0 60.5 13.5t30.5 49.5q4 19 -2 31t-23 16.5t-28.5 5.5t-33.5 1h-100z" />
    <glyph glyph-name="macron" unicode="&#xaf;" horiz-adv-x="426" 
d="M222 690h276l-16 -76h-276z" />
    <glyph glyph-name="degree" unicode="&#xb0;" horiz-adv-x="400" 
d="M479 606q-13 -62 -66.5 -106t-115.5 -44t-96.5 44t-21.5 106q12 61 66 105.5t116 44.5q61 0 96 -44t22 -106zM410 606q7 33 -12 57t-53 24q-33 0 -62 -24t-35 -57q-7 -34 11.5 -57.5t52.5 -23.5q33 0 62 23.5t36 57.5z" />
    <glyph glyph-name="plusminus" unicode="&#xb1;" horiz-adv-x="584" 
d="M356 525h96l-29 -135h194l-21 -96h-194l-28 -135h-96l28 135h-194l21 96h194zM50 0l20 96h484l-20 -96h-484z" />
    <glyph glyph-name="twosuperior" unicode="&#xb2;" horiz-adv-x="423" 
d="M455 384l-17 -78h-339l17 82q7 34 19 57t23.5 36.5t35.5 23t42 13.5t57 10q10 2 31 5.5t26 5t17.5 5.5t15.5 8.5t9.5 13.5t9.5 21t7 30q9 41 -3 53.5t-53 12.5q-51 0 -67.5 -13.5t-30.5 -77.5h-95q10 48 19.5 73t31.5 49t59.5 33t98.5 9q87 0 120 -27.5t15 -111.5
t-53.5 -110.5t-129.5 -41.5q-67 -11 -79 -18q-21 -11 -29 -50l-2 -13h244z" />
    <glyph glyph-name="threesuperior" unicode="&#xb3;" horiz-adv-x="423" 
d="M279 495l17 78h65q31 0 43 12t21 53q5 26 -10 33t-69 7q-46 0 -60.5 -12t-24.5 -59h-95q20 93 61 121t136 28h25.5t25.5 -1t25 -2.5t22.5 -4.5t21 -7.5t17 -10.5t13.5 -15t7.5 -20t3.5 -25.5t-4 -31.5q-22 -97 -104 -105v-2q86 -7 67 -99q-10 -45 -28 -72.5t-49 -40
t-60 -16t-80 -3.5q-34 0 -52.5 1t-40 5.5t-31 14.5t-17 27t-6.5 43t9 63h95q-11 -56 -3 -66t62 -10q60 0 79 8t27 46q7 35 -1 49t-43 14h-65z" />
    <glyph glyph-name="acute" unicode="&#xb4;" horiz-adv-x="371" 
d="M409 743l27 -82l-212 -86l-16 52z" />
    <glyph glyph-name="mu" unicode="&#xb5;" horiz-adv-x="593" 
d="M531 0h-122l17 81h-4q-55 -87 -184 -87q-28 0 -49 4l-48 -225h-126l160 752h126l-71 -331q-15 -56 -3 -80t69 -24q71 0 106 31t50 101l65 303h126z" />
    <glyph glyph-name="paragraph" unicode="&#xb6;" 
d="M645 -227h-109l182 859h-87l-182 -859h-109l99 467h-113q-53 0 -88.5 3t-67 12.5t-48 26.5t-26.5 44.5t-8 67.5t14 95q14 66 33 111t44 75t62.5 46t82 22.5t110.5 6.5h418zM464 358l58 274h-113q-52 0 -76.5 -3t-45 -19.5t-29.5 -42t-20 -78.5q-19 -87 1.5 -109
t103.5 -22h121z" />
    <glyph glyph-name="periodcentered" unicode="&#xb7;" horiz-adv-x="352" 
d="M314 352l-29 -137h-126l29 137h126z" />
    <glyph glyph-name="cedilla" unicode="&#xb8;" horiz-adv-x="308" 
d="M186 -12l31 -63l-142 -52l-17 46z" />
    <glyph glyph-name="onesuperior" unicode="&#xb9;" horiz-adv-x="423" 
d="M470 756l-96 -450h-95l79 373l-142 -117l-37 58l173 136h118z" />
    <glyph glyph-name="ordmasculine" unicode="&#xba;" horiz-adv-x="440" 
d="M381 756q94 0 117.5 -30.5t2.5 -128.5q-11 -49 -21 -76t-30 -50t-53 -31.5t-85 -8.5q-95 0 -117.5 31t-0.5 135q10 47 21 74t31.5 48t52 29t82.5 8zM367 691q-46 0 -60.5 -17.5t-26.5 -76.5q-15 -68 -8.5 -84.5t53.5 -16.5t62.5 21.5t27.5 79.5q14 60 6 77t-54 17z" />
    <glyph glyph-name="guillemotright" unicode="&#xbb;" horiz-adv-x="529" 
d="M462 539l74 -264l-198 -262l-69 51l157 211l-61 216zM257 539l75 -264l-198 -262l-69 51l157 211l-61 216z" />
    <glyph glyph-name="onequarter" unicode="&#xbc;" horiz-adv-x="1057" 
d="M1051 450l-61 -284h39l-15 -74h-39l-20 -92h-95l20 92h-245l20 98l255 260h141zM895 166l45 212h-3l-209 -212h167zM975 750l-635 -750h-93l633 750h95zM475 750l-95 -450h-95l79 373l-142 -117l-37 58l172 136h118z" />
    <glyph glyph-name="onehalf" unicode="&#xbd;" horiz-adv-x="1057" 
d="M960 750l-635 -750h-93l633 750h95zM460 750l-95 -450h-95l79 373l-142 -117l-37 58l172 136h118zM1025 78l-17 -78h-339l17 82q7 34 19 57t23.5 36.5t35.5 23t42 13.5t57 10q10 2 31 5.5t26 5t17.5 5.5t15.5 8.5t9.5 13.5t9.5 21t7 30q9 41 -3 53.5t-53 12.5
q-51 0 -67.5 -13.5t-30.5 -77.5h-95q10 48 19.5 73t31.5 49t59.5 33t98.5 9q87 0 120 -27.5t15 -111.5t-53.5 -110.5t-129.5 -41.5q-67 -11 -79 -18q-21 -11 -29 -50l-2 -13h244z" />
    <glyph glyph-name="threequarters" unicode="&#xbe;" horiz-adv-x="1057" 
d="M1063 450l-61 -284h39l-15 -74h-39l-20 -92h-95l20 92h-245l20 98l255 260h141zM907 166l45 212h-3l-209 -212h167zM997 750l-635 -750h-93l633 750h95zM279 495l17 78h65q31 0 43 12t21 53q5 26 -10 33t-69 7q-46 0 -60.5 -12t-24.5 -59h-95q20 93 61 121t136 28h25.5
t25.5 -1t25 -2.5t22.5 -4.5t21 -7.5t17 -10.5t13.5 -15t7.5 -20t3.5 -25.5t-4 -31.5q-22 -97 -104 -105v-2q86 -7 67 -99q-10 -45 -28 -72.5t-49 -40t-60 -16t-80 -3.5q-34 0 -52.5 1t-40 5.5t-31 14.5t-17 27t-6.5 43t9 63h95q-11 -56 -3 -66t62 -10q60 0 79 8t27 46
q7 35 -1 49t-43 14h-65z" />
    <glyph glyph-name="questiondown" unicode="&#xbf;" horiz-adv-x="595" 
d="M328 283h126l-3 -17q-17 -80 -43 -109.5t-104 -60.5q-9 -4 -29.5 -11.5t-27 -10.5t-20.5 -10t-19 -13.5t-13.5 -17t-13 -24t-8.5 -31.5q-14 -69 4 -87.5t89 -18.5q79 0 107 18.5t39 82.5l6 27h126l-6 -27q-18 -87 -53.5 -131.5t-90.5 -59.5t-156 -15q-40 0 -68.5 3
t-55 11t-42.5 23t-25.5 38t-9.5 57t10 79q18 85 51.5 123.5t123.5 72.5q4 1 18 6.5t17 6.5t14 6t13.5 7.5t10.5 8t10.5 10.5t7 12t7.5 15.5t5 19.5zM506 525l-30 -137h-126l30 137h126z" />
    <glyph glyph-name="Agrave" unicode="&#xc0;" horiz-adv-x="709" 
d="M547 142h-324l-77 -142h-149l408 750h212l95 -750h-146zM538 251l-46 389h-2l-211 -389h259zM515 968l151 -116l-38 -52l-176 86z" />
    <glyph glyph-name="Aacute" unicode="&#xc1;" horiz-adv-x="709" 
d="M547 142h-324l-77 -142h-149l408 750h212l95 -750h-146zM538 251l-46 389h-2l-211 -389h259zM646 968l27 -82l-212 -86l-16 52z" />
    <glyph glyph-name="Acircumflex" unicode="&#xc2;" horiz-adv-x="709" 
d="M547 142h-324l-77 -142h-149l408 750h212l95 -750h-146zM538 251l-46 389h-2l-211 -389h259zM561 967l155 -108l-36 -50l-140 63l-167 -63l-13 50z" />
    <glyph glyph-name="Atilde" unicode="&#xc3;" horiz-adv-x="709" 
d="M547 142h-324l-77 -142h-149l408 750h212l95 -750h-146zM538 251l-46 389h-2l-211 -389h259zM683 929l55 -34q-68 -87 -134 -87q-31 0 -77.5 27.5t-64.5 27.5q-33 0 -62 -42l-57 35q66 85 133 85q28 0 75.5 -28.5t66.5 -28.5q31 0 65 45z" />
    <glyph glyph-name="Adieresis" unicode="&#xc4;" horiz-adv-x="709" 
d="M547 142h-324l-77 -142h-149l408 750h212l95 -750h-146zM538 251l-46 389h-2l-211 -389h259zM399 920h99l-19 -88h-99zM603 920h99l-19 -88h-99z" />
    <glyph glyph-name="Aring" unicode="&#xc5;" horiz-adv-x="709" 
d="M547 142h-324l-77 -142h-149l408 750h212l95 -750h-146zM538 251l-46 389h-2l-211 -389h259zM455 901q7 38 40 65t71 27t59.5 -27t13.5 -65t-41 -65t-71 -27t-59 27t-13 65zM500 901q-4 -19 6.5 -33t30.5 -14q19 0 35.5 13.5t21.5 33.5q4 20 -7 33.5t-30 13.5
q-20 0 -36.5 -14t-20.5 -33z" />
    <glyph glyph-name="AE" unicode="&#xc6;" horiz-adv-x="1059" 
d="M563 251l80 376h-75l-259 -376h254zM510 0l30 142h-300l-99 -142h-158l513 750h682l-26 -123h-365l-41 -192h343l-23 -109h-343l-43 -203h365l-26 -123h-509z" />
    <glyph glyph-name="Ccedilla" unicode="&#xc7;" horiz-adv-x="696" 
d="M380 -12l31 -63l-142 -52l-17 46zM761 499h-144l9 41q13 62 -13.5 77.5t-126.5 15.5q-109 0 -146.5 -30.5t-60.5 -140.5l-35 -166q-19 -73 -13 -113t36.5 -53t108.5 -13q41 0 63 1.5t47 7t38.5 17.5t24.5 32.5t18 52.5l9 41h144l-10 -49q-10 -52 -26.5 -90t-41 -62
t-48.5 -38t-62.5 -21t-70 -9.5t-81.5 -4.5h-10t-9.5 -0.5t-10.5 -0.5q-131 -5 -193 23.5t-72 96t14 176.5l36 172q19 90 48.5 147.5t77 90t106 44.5t145.5 12q45 0 67 -0.5t56.5 -3t50.5 -8t38 -15.5t30 -26t16 -38.5t7.5 -53.5t-7.5 -71z" />
    <glyph glyph-name="Egrave" unicode="&#xc8;" horiz-adv-x="619" 
d="M333 627l-39 -187h351l-26 -118h-351l-42 -199h373l-26 -123h-517l159 750h514l-26 -123h-370zM450 968l151 -116l-38 -52l-176 86z" />
    <glyph glyph-name="Eacute" unicode="&#xc9;" horiz-adv-x="619" 
d="M333 627l-39 -187h351l-26 -118h-351l-42 -199h373l-26 -123h-517l159 750h514l-26 -123h-370zM601 968l27 -82l-212 -86l-16 52z" />
    <glyph glyph-name="Ecircumflex" unicode="&#xca;" horiz-adv-x="619" 
d="M333 627l-39 -187h351l-26 -118h-351l-42 -199h373l-26 -123h-517l159 750h514l-26 -123h-370zM516 967l155 -108l-36 -50l-140 63l-167 -63l-13 50z" />
    <glyph glyph-name="Edieresis" unicode="&#xcb;" horiz-adv-x="619" 
d="M333 627l-39 -187h351l-26 -118h-351l-42 -199h373l-26 -123h-517l159 750h514l-26 -123h-370zM354 920h99l-19 -88h-99zM558 920h99l-19 -88h-99z" />
    <glyph glyph-name="Igrave" unicode="&#xcc;" horiz-adv-x="276" 
d="M369 750l-159 -750h-144l159 750h144zM279 968l151 -116l-38 -52l-176 86z" />
    <glyph glyph-name="Iacute" unicode="&#xcd;" horiz-adv-x="276" 
d="M369 750l-159 -750h-144l159 750h144zM410 968l27 -82l-212 -86l-16 52z" />
    <glyph glyph-name="Icircumflex" unicode="&#xce;" horiz-adv-x="276" 
d="M369 750l-159 -750h-144l159 750h144zM344 967l155 -108l-36 -50l-140 63l-167 -63l-13 50z" />
    <glyph glyph-name="Idieresis" unicode="&#xcf;" horiz-adv-x="276" 
d="M369 750l-159 -750h-144l159 750h144zM162 920h99l-19 -88h-99zM366 920h99l-19 -88h-99z" />
    <glyph glyph-name="Eth" unicode="&#xd0;" horiz-adv-x="754" 
d="M339 627l-39 -187h175l-24 -109h-175l-44 -208h238q67 0 107.5 49.5t55.5 121.5l38 177q20 91 -6.5 123.5t-111.5 32.5h-214zM156 440l65 310h358q157 0 212.5 -64t23.5 -215l-38 -177q-14 -64 -35 -112.5t-58 -92t-97.5 -66.5t-142.5 -23h-382l70 331h-91l24 109h91z
" />
    <glyph glyph-name="Ntilde" unicode="&#xd1;" horiz-adv-x="827" 
d="M655 123l121 627h144l-159 -750h-239l-186 627h-5l-121 -627h-144l159 750h238l188 -627h4zM742 929l55 -34q-68 -87 -134 -87q-31 0 -77.5 27.5t-64.5 27.5q-33 0 -62 -42l-57 35q66 85 133 85q28 0 75.5 -28.5t66.5 -28.5q31 0 65 45z" />
    <glyph glyph-name="Ograve" unicode="&#xd2;" horiz-adv-x="715" 
d="M517 756q59 0 98.5 -3.5t76 -14t57 -29.5t32.5 -49t11 -74t-14 -104l-42 -202q-19 -90 -48 -146t-77.5 -87t-106.5 -42t-149 -11q-62 0 -103.5 4t-77 15.5t-54.5 31t-29.5 52t-7.5 77t16 106.5l42 202q15 71 36 118.5t49 78.5t71 47.5t93.5 23t126.5 6.5zM491 633
q-59 0 -93.5 -6t-57 -25.5t-33 -45t-22.5 -74.5l-42 -202q-8 -39 -11 -64t1 -44t12.5 -29.5t29 -16.5t43.5 -7.5t63 -1.5q54 0 85 5t57.5 22t41.5 49t27 87l42 202q8 35 10 60t-4.5 42t-16.5 26.5t-31.5 14.5t-43 6.5t-57.5 1.5zM498 968l151 -116l-38 -52l-176 86z" />
    <glyph glyph-name="Oacute" unicode="&#xd3;" horiz-adv-x="715" 
d="M517 756q59 0 98.5 -3.5t76 -14t57 -29.5t32.5 -49t11 -74t-14 -104l-42 -202q-19 -90 -48 -146t-77.5 -87t-106.5 -42t-149 -11q-62 0 -103.5 4t-77 15.5t-54.5 31t-29.5 52t-7.5 77t16 106.5l42 202q15 71 36 118.5t49 78.5t71 47.5t93.5 23t126.5 6.5zM491 633
q-59 0 -93.5 -6t-57 -25.5t-33 -45t-22.5 -74.5l-42 -202q-8 -39 -11 -64t1 -44t12.5 -29.5t29 -16.5t43.5 -7.5t63 -1.5q54 0 85 5t57.5 22t41.5 49t27 87l42 202q8 35 10 60t-4.5 42t-16.5 26.5t-31.5 14.5t-43 6.5t-57.5 1.5zM629 968l27 -82l-212 -86l-16 52z" />
    <glyph glyph-name="Ocircumflex" unicode="&#xd4;" horiz-adv-x="715" 
d="M517 756q59 0 98.5 -3.5t76 -14t57 -29.5t32.5 -49t11 -74t-14 -104l-42 -202q-19 -90 -48 -146t-77.5 -87t-106.5 -42t-149 -11q-62 0 -103.5 4t-77 15.5t-54.5 31t-29.5 52t-7.5 77t16 106.5l42 202q15 71 36 118.5t49 78.5t71 47.5t93.5 23t126.5 6.5zM491 633
q-59 0 -93.5 -6t-57 -25.5t-33 -45t-22.5 -74.5l-42 -202q-8 -39 -11 -64t1 -44t12.5 -29.5t29 -16.5t43.5 -7.5t63 -1.5q54 0 85 5t57.5 22t41.5 49t27 87l42 202q8 35 10 60t-4.5 42t-16.5 26.5t-31.5 14.5t-43 6.5t-57.5 1.5zM564 967l155 -108l-36 -50l-140 63l-167 -63
l-13 50z" />
    <glyph glyph-name="Otilde" unicode="&#xd5;" horiz-adv-x="715" 
d="M517 756q59 0 98.5 -3.5t76 -14t57 -29.5t32.5 -49t11 -74t-14 -104l-42 -202q-19 -90 -48 -146t-77.5 -87t-106.5 -42t-149 -11q-62 0 -103.5 4t-77 15.5t-54.5 31t-29.5 52t-7.5 77t16 106.5l42 202q15 71 36 118.5t49 78.5t71 47.5t93.5 23t126.5 6.5zM491 633
q-59 0 -93.5 -6t-57 -25.5t-33 -45t-22.5 -74.5l-42 -202q-8 -39 -11 -64t1 -44t12.5 -29.5t29 -16.5t43.5 -7.5t63 -1.5q54 0 85 5t57.5 22t41.5 49t27 87l42 202q8 35 10 60t-4.5 42t-16.5 26.5t-31.5 14.5t-43 6.5t-57.5 1.5zM686 929l55 -34q-68 -87 -134 -87
q-31 0 -77.5 27.5t-64.5 27.5q-33 0 -62 -42l-57 35q66 85 133 85q28 0 75.5 -28.5t66.5 -28.5q31 0 65 45z" />
    <glyph glyph-name="Odieresis" unicode="&#xd6;" horiz-adv-x="715" 
d="M517 756q59 0 98.5 -3.5t76 -14t57 -29.5t32.5 -49t11 -74t-14 -104l-42 -202q-19 -90 -48 -146t-77.5 -87t-106.5 -42t-149 -11q-62 0 -103.5 4t-77 15.5t-54.5 31t-29.5 52t-7.5 77t16 106.5l42 202q15 71 36 118.5t49 78.5t71 47.5t93.5 23t126.5 6.5zM491 633
q-59 0 -93.5 -6t-57 -25.5t-33 -45t-22.5 -74.5l-42 -202q-8 -39 -11 -64t1 -44t12.5 -29.5t29 -16.5t43.5 -7.5t63 -1.5q54 0 85 5t57.5 22t41.5 49t27 87l42 202q8 35 10 60t-4.5 42t-16.5 26.5t-31.5 14.5t-43 6.5t-57.5 1.5zM402 920h99l-19 -88h-99zM606 920h99
l-19 -88h-99z" />
    <glyph glyph-name="multiply" unicode="&#xd7;" horiz-adv-x="584" 
d="M366 351l212 174l53 -67l-212 -175l138 -175l-82 -66l-138 173l-209 -173l-54 70l209 171l-136 173l83 69z" />
    <glyph glyph-name="Oslash" unicode="&#xd8;" horiz-adv-x="754" 
d="M919 774l-25 -113l-71 -53q4 -5 1.5 -32t-2 -33.5t-5 -35.5t-7.5 -37.5t-9 -40t-9 -42.5q-18 -86 -32.5 -138t-37 -101.5t-48.5 -74.5t-68.5 -45.5t-96 -27t-130.5 -6.5q-52 0 -76 0.5t-59 4t-53.5 11t-38.5 21t-35 34.5l-123 -91l24 109l72 55q-7 43 37 249
q17 80 27.5 119.5t31.5 90.5t46 73.5t67.5 46t101 31.5t140.5 8q48 0 74.5 -1.5t66.5 -7.5t68 -22t47 -42zM670 491l-425 -330q1 -11 8.5 -18.5t21.5 -12.5t27.5 -7.5t35 -4t33.5 -1.5h34q48 0 79 3t55.5 15t37.5 25.5t25 44t19 59.5t19 84q4 19 6 29zM243 254l427 333
q-16 30 -51.5 38t-103.5 8q-84 0 -127.5 -16.5t-64 -50.5t-36.5 -105z" />
    <glyph glyph-name="Ugrave" unicode="&#xd9;" horiz-adv-x="754" 
d="M704 750h144l-113 -533q-11 -51 -28.5 -89t-44.5 -62t-54.5 -39t-69 -22t-76 -9t-87.5 -2q-33 0 -57 0.5t-52.5 3.5t-47.5 7.5t-40 12.5t-33.5 19.5t-23.5 28.5t-15 38.5t-3 50t8 62.5l113 533h144l-113 -533q-12 -59 16 -79.5t130 -20.5q101 0 139 20t51 80zM518 968
l151 -116l-38 -52l-176 86z" />
    <glyph glyph-name="Uacute" unicode="&#xda;" horiz-adv-x="754" 
d="M704 750h144l-113 -533q-11 -51 -28.5 -89t-44.5 -62t-54.5 -39t-69 -22t-76 -9t-87.5 -2q-33 0 -57 0.5t-52.5 3.5t-47.5 7.5t-40 12.5t-33.5 19.5t-23.5 28.5t-15 38.5t-3 50t8 62.5l113 533h144l-113 -533q-12 -59 16 -79.5t130 -20.5q101 0 139 20t51 80zM649 968
l27 -82l-212 -86l-16 52z" />
    <glyph glyph-name="Ucircumflex" unicode="&#xdb;" horiz-adv-x="754" 
d="M704 750h144l-113 -533q-11 -51 -28.5 -89t-44.5 -62t-54.5 -39t-69 -22t-76 -9t-87.5 -2q-33 0 -57 0.5t-52.5 3.5t-47.5 7.5t-40 12.5t-33.5 19.5t-23.5 28.5t-15 38.5t-3 50t8 62.5l113 533h144l-113 -533q-12 -59 16 -79.5t130 -20.5q101 0 139 20t51 80zM583 967
l155 -108l-36 -50l-140 63l-167 -63l-13 50z" />
    <glyph glyph-name="Udieresis" unicode="&#xdc;" horiz-adv-x="754" 
d="M704 750h144l-113 -533q-11 -51 -28.5 -89t-44.5 -62t-54.5 -39t-69 -22t-76 -9t-87.5 -2q-33 0 -57 0.5t-52.5 3.5t-47.5 7.5t-40 12.5t-33.5 19.5t-23.5 28.5t-15 38.5t-3 50t8 62.5l113 533h144l-113 -533q-12 -59 16 -79.5t130 -20.5q101 0 139 20t51 80zM422 920h99
l-19 -88h-99zM626 920h99l-19 -88h-99z" />
    <glyph glyph-name="Yacute" unicode="&#xdd;" horiz-adv-x="670" 
d="M840 750l-375 -462l-61 -288h-144l61 288l-173 462h164l110 -320h3l249 320h166zM625 968l27 -82l-212 -86l-16 52z" />
    <glyph glyph-name="Thorn" unicode="&#xde;" horiz-adv-x="686" 
d="M56 0l159 750h144l-26 -122h188q63 0 104 -7t70 -23.5t41 -46.5t11.5 -73.5t-13.5 -107.5q-17 -80 -40.5 -128.5t-63.5 -75.5t-88.5 -36t-127.5 -9h-188l-26 -121h-144zM252 244h188q78 2 105.5 25t44.5 101q19 80 1.5 108t-96.5 27h-188z" />
    <glyph glyph-name="germandbls" unicode="&#xdf;" horiz-adv-x="606" 
d="M67 0l109 513q11 49 20 80t24 61.5t34 47t48.5 30.5t69.5 19t95 5q47 0 81 -5.5t64 -21t41 -48t1 -80.5q-25 -118 -149 -134v-3q62 -3 91.5 -33.5t29.5 -77t-11 -105.5q-13 -60 -30 -102.5t-45 -79t-72 -54.5t-105 -18q-51 0 -108 19l22 103q46 -26 78 -26q100 0 134 158
q22 87 4.5 128t-93.5 41h-36l18 86h36q97 0 118 98q8 39 -20.5 54t-79.5 15q-58 0 -83 -20.5t-39 -78.5l-121 -571h-126z" />
    <glyph glyph-name="agrave" unicode="&#xe0;" horiz-adv-x="589" 
d="M334 236q-31 0 -46.5 -1.5t-36 -8t-31.5 -22.5t-17 -43q-11 -53 9.5 -67t88.5 -14q60 0 91 15t42 66q6 26 1 42t-22.5 23t-33.5 8.5t-45 1.5zM400 0l19 66h-3q-14 -25 -34.5 -40.5t-47.5 -22t-46.5 -8t-49.5 -1.5q-100 0 -141 34t-20 133q19 91 73.5 126t156.5 35
q42 0 64.5 -2t47.5 -16t33 -42h4l14 68q18 64 2.5 89.5t-89.5 25.5q-33 0 -52 -3.5t-37.5 -20.5t-25.5 -49h-126q10 44 29 75t40.5 47t57 25t62 10.5t70.5 1.5q45 0 75.5 -2.5t57.5 -10.5t41.5 -22t23.5 -36.5t7.5 -54.5t-10.5 -76l-70 -329h-126zM387 743l151 -116l-38 -52
l-176 86z" />
    <glyph glyph-name="aacute" unicode="&#xe1;" horiz-adv-x="589" 
d="M334 236q-31 0 -46.5 -1.5t-36 -8t-31.5 -22.5t-17 -43q-11 -53 9.5 -67t88.5 -14q60 0 91 15t42 66q6 26 1 42t-22.5 23t-33.5 8.5t-45 1.5zM400 0l19 66h-3q-14 -25 -34.5 -40.5t-47.5 -22t-46.5 -8t-49.5 -1.5q-100 0 -141 34t-20 133q19 91 73.5 126t156.5 35
q42 0 64.5 -2t47.5 -16t33 -42h4l14 68q18 64 2.5 89.5t-89.5 25.5q-33 0 -52 -3.5t-37.5 -20.5t-25.5 -49h-126q10 44 29 75t40.5 47t57 25t62 10.5t70.5 1.5q45 0 75.5 -2.5t57.5 -10.5t41.5 -22t23.5 -36.5t7.5 -54.5t-10.5 -76l-70 -329h-126zM538 743l27 -82l-212 -86
l-16 52z" />
    <glyph glyph-name="acircumflex" unicode="&#xe2;" horiz-adv-x="589" 
d="M334 236q-31 0 -46.5 -1.5t-36 -8t-31.5 -22.5t-17 -43q-11 -53 9.5 -67t88.5 -14q60 0 91 15t42 66q6 26 1 42t-22.5 23t-33.5 8.5t-45 1.5zM400 0l19 66h-3q-14 -25 -34.5 -40.5t-47.5 -22t-46.5 -8t-49.5 -1.5q-100 0 -141 34t-20 133q19 91 73.5 126t156.5 35
q42 0 64.5 -2t47.5 -16t33 -42h4l14 68q18 64 2.5 89.5t-89.5 25.5q-33 0 -52 -3.5t-37.5 -20.5t-25.5 -49h-126q10 44 29 75t40.5 47t57 25t62 10.5t70.5 1.5q45 0 75.5 -2.5t57.5 -10.5t41.5 -22t23.5 -36.5t7.5 -54.5t-10.5 -76l-70 -329h-126zM453 742l155 -108l-36 -50
l-139 63l-168 -63l-13 50z" />
    <glyph glyph-name="atilde" unicode="&#xe3;" horiz-adv-x="589" 
d="M334 236q-31 0 -46.5 -1.5t-36 -8t-31.5 -22.5t-17 -43q-11 -53 9.5 -67t88.5 -14q60 0 91 15t42 66q6 26 1 42t-22.5 23t-33.5 8.5t-45 1.5zM400 0l19 66h-3q-14 -25 -34.5 -40.5t-47.5 -22t-46.5 -8t-49.5 -1.5q-100 0 -141 34t-20 133q19 91 73.5 126t156.5 35
q42 0 64.5 -2t47.5 -16t33 -42h4l14 68q18 64 2.5 89.5t-89.5 25.5q-33 0 -52 -3.5t-37.5 -20.5t-25.5 -49h-126q10 44 29 75t40.5 47t57 25t62 10.5t70.5 1.5q45 0 75.5 -2.5t57.5 -10.5t41.5 -22t23.5 -36.5t7.5 -54.5t-10.5 -76l-70 -329h-126zM576 704l54 -34
q-66 -87 -134 -87q-31 0 -77 27.5t-64 27.5q-32 0 -63 -42l-57 35q66 85 133 85q28 0 75.5 -28.5t66.5 -28.5q30 0 66 45z" />
    <glyph glyph-name="adieresis" unicode="&#xe4;" horiz-adv-x="589" 
d="M334 236q-31 0 -46.5 -1.5t-36 -8t-31.5 -22.5t-17 -43q-11 -53 9.5 -67t88.5 -14q60 0 91 15t42 66q6 26 1 42t-22.5 23t-33.5 8.5t-45 1.5zM400 0l19 66h-3q-14 -25 -34.5 -40.5t-47.5 -22t-46.5 -8t-49.5 -1.5q-100 0 -141 34t-20 133q19 91 73.5 126t156.5 35
q42 0 64.5 -2t47.5 -16t33 -42h4l14 68q18 64 2.5 89.5t-89.5 25.5q-33 0 -52 -3.5t-37.5 -20.5t-25.5 -49h-126q10 44 29 75t40.5 47t57 25t62 10.5t70.5 1.5q45 0 75.5 -2.5t57.5 -10.5t41.5 -22t23.5 -36.5t7.5 -54.5t-10.5 -76l-70 -329h-126zM291 695h99l-19 -88h-99z
M495 695h99l-19 -88h-99z" />
    <glyph glyph-name="aring" unicode="&#xe5;" horiz-adv-x="589" 
d="M334 236q-31 0 -46.5 -1.5t-36 -8t-31.5 -22.5t-17 -43q-11 -53 9.5 -67t88.5 -14q60 0 91 15t42 66q6 26 1 42t-22.5 23t-33.5 8.5t-45 1.5zM400 0l19 66h-3q-14 -25 -34.5 -40.5t-47.5 -22t-46.5 -8t-49.5 -1.5q-100 0 -141 34t-20 133q19 91 73.5 126t156.5 35
q42 0 64.5 -2t47.5 -16t33 -42h4l14 68q18 64 2.5 89.5t-89.5 25.5q-33 0 -52 -3.5t-37.5 -20.5t-25.5 -49h-126q10 44 29 75t40.5 47t57 25t62 10.5t70.5 1.5q45 0 75.5 -2.5t57.5 -10.5t41.5 -22t23.5 -36.5t7.5 -54.5t-10.5 -76l-70 -329h-126zM342 656q8 38 41 65t71 27
t59 -27t13 -65t-40.5 -65t-70.5 -27t-59.5 27t-13.5 65zM387 656q-4 -20 7 -33.5t30 -13.5q20 0 36.5 14t20.5 33t-6.5 33t-30.5 14q-19 0 -35.5 -13.5t-21.5 -33.5z" />
    <glyph glyph-name="ae" unicode="&#xe6;" horiz-adv-x="920" 
d="M589 319h235q9 43 10 64.5t-11 34t-31.5 15t-62.5 2.5q-42 0 -65 -4.5t-38 -19.5t-21.5 -33.5t-15.5 -58.5zM329 236q-31 0 -46.5 -1.5t-36 -8t-31.5 -22.5t-17 -43q-11 -53 9.5 -67t88.5 -14q60 0 91 15t42 66q6 26 1 42t-22.5 23t-33.5 8.5t-45 1.5zM450 260l15 70
q18 64 2.5 89.5t-89.5 25.5q-33 0 -52 -3.5t-37.5 -20.5t-25.5 -49h-126q10 44 29 75t40.5 47t57 25t62 10.5t70.5 1.5h27t32 -1.5t38 -6t31 -11.5t26.5 -19.5t9.5 -29.5h3q39 68 187 68q109 0 154 -25t50.5 -89.5t-21.5 -177.5h-361q-23 -85 -9.5 -117t93.5 -32
q28 0 40 0.5t32 4t29.5 11.5t19 23t14.5 38h126q-10 -48 -29 -81t-40.5 -51t-58.5 -27.5t-68.5 -11.5t-84.5 -2q-32 0 -55.5 2.5t-51.5 10t-44.5 25.5t-20.5 45h-3q-16 -29 -40.5 -46.5t-59 -25t-61 -9.5t-67.5 -2q-100 0 -141 34t-20 133q19 91 73.5 126t156.5 35
q31 0 48.5 -1.5t40 -6.5t36 -18.5t19.5 -35.5h4z" />
    <glyph glyph-name="ccedilla" unicode="&#xe7;" horiz-adv-x="551" 
d="M308 -12l31 -63l-142 -52l-17 46zM437 200h126q-27 -125 -86 -165.5t-197 -40.5q-74 0 -116 11.5t-62 43.5t-19 81t19 132q16 75 33.5 120.5t49.5 82t82.5 51.5t126.5 15q36 0 62 -2t51.5 -7t41.5 -13.5t29 -23t18 -34.5t4.5 -47.5t-8.5 -62.5h-126q12 59 -6.5 76.5
t-86.5 17.5q-27 0 -46 -2.5t-33.5 -13t-23 -19.5t-16.5 -33.5t-12.5 -44t-13.5 -60.5q-22 -103 -18 -128q6 -36 55 -42q15 -2 35 -2q75 0 98.5 19.5t38.5 90.5z" />
    <glyph glyph-name="egrave" unicode="&#xe8;" horiz-adv-x="570" 
d="M438 167h126q-10 -48 -29 -81t-40.5 -51t-58.5 -27.5t-68.5 -11.5t-84.5 -2q-101 0 -147 24t-54.5 83.5t15.5 159.5q16 77 34 122.5t51 82t84.5 51t130.5 14.5q109 0 154 -25t50.5 -89.5t-21.5 -177.5h-361q-23 -85 -9.5 -117t93.5 -32q28 0 40 0.5t32 4t29.5 11.5t19 23
t14.5 38zM236 319h235q9 43 10 64.5t-11 34t-31.5 15t-62.5 2.5q-42 0 -65 -4.5t-38 -19.5t-21.5 -33.5t-15.5 -58.5zM378 743l151 -116l-38 -52l-176 86z" />
    <glyph glyph-name="eacute" unicode="&#xe9;" horiz-adv-x="570" 
d="M438 167h126q-10 -48 -29 -81t-40.5 -51t-58.5 -27.5t-68.5 -11.5t-84.5 -2q-101 0 -147 24t-54.5 83.5t15.5 159.5q16 77 34 122.5t51 82t84.5 51t130.5 14.5q109 0 154 -25t50.5 -89.5t-21.5 -177.5h-361q-23 -85 -9.5 -117t93.5 -32q28 0 40 0.5t32 4t29.5 11.5t19 23
t14.5 38zM236 319h235q9 43 10 64.5t-11 34t-31.5 15t-62.5 2.5q-42 0 -65 -4.5t-38 -19.5t-21.5 -33.5t-15.5 -58.5zM529 743l27 -82l-212 -86l-16 52z" />
    <glyph glyph-name="ecircumflex" unicode="&#xea;" horiz-adv-x="570" 
d="M438 167h126q-10 -48 -29 -81t-40.5 -51t-58.5 -27.5t-68.5 -11.5t-84.5 -2q-101 0 -147 24t-54.5 83.5t15.5 159.5q16 77 34 122.5t51 82t84.5 51t130.5 14.5q109 0 154 -25t50.5 -89.5t-21.5 -177.5h-361q-23 -85 -9.5 -117t93.5 -32q28 0 40 0.5t32 4t29.5 11.5t19 23
t14.5 38zM236 319h235q9 43 10 64.5t-11 34t-31.5 15t-62.5 2.5q-42 0 -65 -4.5t-38 -19.5t-21.5 -33.5t-15.5 -58.5zM443 742l155 -108l-36 -50l-139 63l-168 -63l-13 50z" />
    <glyph glyph-name="edieresis" unicode="&#xeb;" horiz-adv-x="570" 
d="M438 167h126q-10 -48 -29 -81t-40.5 -51t-58.5 -27.5t-68.5 -11.5t-84.5 -2q-101 0 -147 24t-54.5 83.5t15.5 159.5q16 77 34 122.5t51 82t84.5 51t130.5 14.5q109 0 154 -25t50.5 -89.5t-21.5 -177.5h-361q-23 -85 -9.5 -117t93.5 -32q28 0 40 0.5t32 4t29.5 11.5t19 23
t14.5 38zM236 319h235q9 43 10 64.5t-11 34t-31.5 15t-62.5 2.5q-42 0 -65 -4.5t-38 -19.5t-21.5 -33.5t-15.5 -58.5zM282 695h99l-19 -88h-99zM486 695h99l-19 -88h-99z" />
    <glyph glyph-name="igrave" unicode="&#xec;" horiz-adv-x="236" 
d="M293 525l-112 -525h-126l112 525h126zM211 743l151 -116l-38 -52l-176 86z" />
    <glyph glyph-name="iacute" unicode="&#xed;" horiz-adv-x="236" 
d="M293 525l-112 -525h-126l112 525h126zM342 743l27 -82l-212 -86l-16 52z" />
    <glyph glyph-name="icircumflex" unicode="&#xee;" horiz-adv-x="236" 
d="M293 525l-112 -525h-126l112 525h126zM276 742l155 -108l-36 -50l-139 63l-168 -63l-13 50z" />
    <glyph glyph-name="idieresis" unicode="&#xef;" horiz-adv-x="236" 
d="M293 525l-112 -525h-126l112 525h126zM115 695h99l-19 -88h-99zM319 695h99l-19 -88h-99z" />
    <glyph glyph-name="eth" unicode="&#xf0;" horiz-adv-x="582" 
d="M383 435q-81 0 -107.5 -31.5t-50.5 -142.5q-25 -105 -10.5 -138t95.5 -33q43 0 67.5 6t42 28t26.5 50.5t21 86.5q26 107 11.5 140.5t-95.5 33.5zM335 726l106 30q42 -27 73 -64l135 39l43 -55l-137 -39q47 -78 56 -168t-14 -187q-13 -58 -24 -96t-27.5 -73.5t-37 -55.5
t-51.5 -35.5t-71.5 -21.5t-95.5 -6q-109 0 -156 24.5t-52.5 84t18.5 159.5q15 70 30 113.5t42.5 82.5t71.5 56.5t108 17.5q95 0 134 -42q-9 63 -39 116l-135 -39l-45 54l139 40q-32 37 -71 65z" />
    <glyph glyph-name="ntilde" unicode="&#xf1;" horiz-adv-x="598" 
d="M174 525h126l-17 -79h4q30 53 73.5 69t109.5 16q101 0 131.5 -43t9.5 -142l-74 -346h-126l71 333q12 59 -3 80.5t-74 21.5q-77 0 -108 -34t-48 -112l-61 -289h-126zM581 704l54 -34q-66 -87 -134 -87q-31 0 -77 27.5t-64 27.5q-32 0 -63 -42l-57 35q66 85 133 85
q28 0 75.5 -28.5t66.5 -28.5q30 0 66 45z" />
    <glyph glyph-name="ograve" unicode="&#xf2;" horiz-adv-x="582" 
d="M404 531q109 0 156 -24.5t52.5 -84t-18.5 -160.5q-12 -55 -22.5 -91t-27 -68.5t-36.5 -51t-51 -32.5t-71 -19.5t-96 -5.5q-109 0 -156 24.5t-52.5 84t18.5 159.5q12 55 22.5 91t27 69t36.5 51.5t51 32.5t71 19.5t96 5.5zM383 435q-81 0 -107.5 -31.5t-50.5 -142.5
q-25 -105 -10.5 -138t95.5 -33q43 0 67.5 6t42 28t26.5 50.5t21 86.5q26 107 11.5 140.5t-95.5 33.5zM384 743l151 -116l-38 -52l-176 86z" />
    <glyph glyph-name="oacute" unicode="&#xf3;" horiz-adv-x="582" 
d="M404 531q109 0 156 -24.5t52.5 -84t-18.5 -160.5q-12 -55 -22.5 -91t-27 -68.5t-36.5 -51t-51 -32.5t-71 -19.5t-96 -5.5q-109 0 -156 24.5t-52.5 84t18.5 159.5q12 55 22.5 91t27 69t36.5 51.5t51 32.5t71 19.5t96 5.5zM383 435q-81 0 -107.5 -31.5t-50.5 -142.5
q-25 -105 -10.5 -138t95.5 -33q43 0 67.5 6t42 28t26.5 50.5t21 86.5q26 107 11.5 140.5t-95.5 33.5zM515 743l27 -82l-212 -86l-16 52z" />
    <glyph glyph-name="ocircumflex" unicode="&#xf4;" horiz-adv-x="582" 
d="M404 531q109 0 156 -24.5t52.5 -84t-18.5 -160.5q-12 -55 -22.5 -91t-27 -68.5t-36.5 -51t-51 -32.5t-71 -19.5t-96 -5.5q-109 0 -156 24.5t-52.5 84t18.5 159.5q12 55 22.5 91t27 69t36.5 51.5t51 32.5t71 19.5t96 5.5zM383 435q-81 0 -107.5 -31.5t-50.5 -142.5
q-25 -105 -10.5 -138t95.5 -33q43 0 67.5 6t42 28t26.5 50.5t21 86.5q26 107 11.5 140.5t-95.5 33.5zM449 742l155 -108l-36 -50l-139 63l-168 -63l-13 50z" />
    <glyph glyph-name="otilde" unicode="&#xf5;" horiz-adv-x="582" 
d="M404 531q109 0 156 -24.5t52.5 -84t-18.5 -160.5q-12 -55 -22.5 -91t-27 -68.5t-36.5 -51t-51 -32.5t-71 -19.5t-96 -5.5q-109 0 -156 24.5t-52.5 84t18.5 159.5q12 55 22.5 91t27 69t36.5 51.5t51 32.5t71 19.5t96 5.5zM383 435q-81 0 -107.5 -31.5t-50.5 -142.5
q-25 -105 -10.5 -138t95.5 -33q43 0 67.5 6t42 28t26.5 50.5t21 86.5q26 107 11.5 140.5t-95.5 33.5zM573 704l54 -34q-66 -87 -134 -87q-31 0 -77 27.5t-64 27.5q-32 0 -63 -42l-57 35q66 85 133 85q28 0 75.5 -28.5t66.5 -28.5q30 0 66 45z" />
    <glyph glyph-name="odieresis" unicode="&#xf6;" horiz-adv-x="582" 
d="M404 531q109 0 156 -24.5t52.5 -84t-18.5 -160.5q-12 -55 -22.5 -91t-27 -68.5t-36.5 -51t-51 -32.5t-71 -19.5t-96 -5.5q-109 0 -156 24.5t-52.5 84t18.5 159.5q12 55 22.5 91t27 69t36.5 51.5t51 32.5t71 19.5t96 5.5zM383 435q-81 0 -107.5 -31.5t-50.5 -142.5
q-25 -105 -10.5 -138t95.5 -33q43 0 67.5 6t42 28t26.5 50.5t21 86.5q26 107 11.5 140.5t-95.5 33.5zM288 695h99l-19 -88h-99zM492 695h99l-19 -88h-99z" />
    <glyph glyph-name="divide" unicode="&#xf7;" horiz-adv-x="584" 
d="M100 235l20 96h484l-20 -96h-484zM242 41l25 118h118l-25 -118h-118zM320 407l25 118h118l-25 -118h-118z" />
    <glyph glyph-name="oslash" unicode="&#xf8;" horiz-adv-x="582" 
d="M696 539l-18 -81l-63 -42q4 -38 -14 -118q-8 -39 -13 -59.5t-13 -51.5t-14.5 -46.5t-17.5 -38.5t-22 -34t-27.5 -26t-35.5 -22t-43.5 -14t-54 -9.5t-65.5 -2.5q-47 0 -76 2t-67 16t-53 40l-101 -73l16 79l67 49q-4 48 19 156q14 67 27.5 108t35 75t53 51t77 25.5
t112.5 8.5q46 0 75 -2t66.5 -16t52.5 -40zM470 275l10 51l-266 -198q1 -14 10 -22.5t26.5 -11.5t28.5 -3.5t31 -0.5h7q32 0 49 2.5t35.5 15.5t30.5 40q20 41 38 127zM213 196l270 199q0 14 -9.5 23t-28 12.5t-30 4t-32.5 0.5h-6q-50 0 -78.5 -12.5t-44.5 -56.5
q-16 -42 -31 -118z" />
    <glyph glyph-name="ugrave" unicode="&#xf9;" horiz-adv-x="593" 
d="M530 0h-122l17 81h-4q-55 -87 -184 -87q-85 0 -123 34.5t-21 116.5l81 380h126l-71 -331q-15 -56 -3 -80t69 -24q71 0 106 31t50 101l65 303h126zM349 743l151 -116l-38 -52l-176 86z" />
    <glyph glyph-name="uacute" unicode="&#xfa;" horiz-adv-x="593" 
d="M530 0h-122l17 81h-4q-55 -87 -184 -87q-85 0 -123 34.5t-21 116.5l81 380h126l-71 -331q-15 -56 -3 -80t69 -24q71 0 106 31t50 101l65 303h126zM532 743l27 -82l-212 -86l-16 52z" />
    <glyph glyph-name="ucircumflex" unicode="&#xfb;" horiz-adv-x="593" 
d="M530 0h-122l17 81h-4q-55 -87 -184 -87q-85 0 -123 34.5t-21 116.5l81 380h126l-71 -331q-15 -56 -3 -80t69 -24q71 0 106 31t50 101l65 303h126zM435 742l155 -108l-36 -50l-139 63l-168 -63l-13 50z" />
    <glyph glyph-name="udieresis" unicode="&#xfc;" horiz-adv-x="593" 
d="M530 0h-122l17 81h-4q-55 -87 -184 -87q-85 0 -123 34.5t-21 116.5l81 380h126l-71 -331q-15 -56 -3 -80t69 -24q71 0 106 31t50 101l65 303h126zM293 695h99l-19 -88h-99zM497 695h99l-19 -88h-99z" />
    <glyph glyph-name="yacute" unicode="&#xfd;" horiz-adv-x="485" 
d="M602 525l-252 -546q-21 -46 -33 -69t-34.5 -55.5t-44.5 -48t-56.5 -27.5t-77.5 -12q-10 0 -28.5 2t-24.5 2l21 95q24 -3 26 -3q23 0 42 9.5t31 20t24.5 33.5t17.5 35t16 39h-61l-61 525h130l38 -447h2l197 447h128zM478 743l27 -82l-212 -86l-16 52z" />
    <glyph glyph-name="thorn" unicode="&#xfe;" horiz-adv-x="596" 
d="M331 90q67 0 96 30t50 127q22 103 17 133q-8 50 -75 55h-15q-46 0 -74.5 -9t-46 -38t-24 -52t-18.5 -80q-1 -3 -1.5 -5t-0.5 -4q-22 -84 -4 -120.5t96 -36.5zM12 -227l207 977h126l-64 -304h2q30 48 74 66.5t105 18.5q36 0 63.5 -5t45.5 -17t30.5 -25t17 -35t6.5 -41
t-2 -49.5t-8 -53t-12 -58.5q-11 -52 -22 -86.5t-30 -68.5t-45 -54t-65.5 -32t-92.5 -12q-127 0 -142 76h-5l-63 -297h-126z" />
    <glyph glyph-name="ydieresis" unicode="&#xff;" horiz-adv-x="485" 
d="M602 525l-252 -546q-21 -46 -33 -69t-34.5 -55.5t-44.5 -48t-56.5 -27.5t-77.5 -12q-10 0 -28.5 2t-24.5 2l21 95q24 -3 26 -3q23 0 42 9.5t31 20t24.5 33.5t17.5 35t16 39h-61l-61 525h130l38 -447h2l197 447h128zM239 695h99l-19 -88h-99zM443 695h99l-19 -88h-99z" />
    <glyph glyph-name="dotlessi" unicode="&#x131;" horiz-adv-x="236" 
d="M293 525l-112 -525h-126l112 525h126z" />
    <glyph glyph-name="Lslash" unicode="&#x141;" horiz-adv-x="565" 
d="M296 406l-60 -283h350l-26 -123h-494l61 287l-96 -75l24 114l96 74l74 350h144l-49 -232l193 148l-24 -112z" />
    <glyph glyph-name="lslash" unicode="&#x142;" horiz-adv-x="272" 
d="M289 423l-90 -423h-126l68 319l-88 -69l19 88l87 68l73 344h126l-50 -239l87 67l-19 -88z" />
    <glyph glyph-name="OE" unicode="&#x152;" horiz-adv-x="1105" 
d="M388 117q125 0 165 30t63 141l37 174q10 48 12 76.5t-4 49t-28 29.5t-51.5 12.5t-83.5 3.5q-61 0 -98.5 -7t-60 -26t-32.5 -42.5t-19 -65.5l-43 -202q-9 -43 -12.5 -69t0 -47t11.5 -31t29.5 -16.5t46 -8t68.5 -1.5zM832 627l-41 -192h347l-23 -109h-347l-43 -203h369
l-26 -123h-504l20 81h-3q-44 -54 -99.5 -70.5t-139.5 -16.5q-121 0 -179.5 27t-73.5 92.5t12 176.5l43 202q31 147 114.5 205.5t245.5 58.5q29 0 47.5 -0.5t48 -5.5t48 -14t35.5 -27t22 -44h3l15 85h501l-26 -123h-366z" />
    <glyph glyph-name="oe" unicode="&#x153;" horiz-adv-x="931" 
d="M377 435q-44 0 -66 -4t-40 -24t-27 -50t-22 -95q-24 -112 -9.5 -142t91.5 -30q80 0 106 29t50 143q7 33 11 54.5t6 41.5t1.5 31t-6 21t-12 14t-20 7t-27 3.5t-36.5 0.5zM96 262q9 44 16 71t19 59t26 50.5t36 38t50.5 29t68 15.5t89.5 6q29 0 47.5 -1.5t49 -7.5t48 -22
t20.5 -41h2q44 72 191 72q109 0 154 -25t50.5 -89.5t-21.5 -177.5h-361q-23 -85 -9.5 -117t93.5 -32q28 0 40 0.5t32 4t29.5 11.5t19 23t14.5 38h126q-10 -48 -29 -81t-40.5 -51t-58.5 -27.5t-68.5 -11.5t-84.5 -2q-34 0 -55 2t-46 8.5t-39.5 23t-19.5 41.5h-3
q-14 -22 -33 -36.5t-35.5 -22t-42 -11.5t-40.5 -4.5t-44 -0.5q-155 0 -192 57.5t1 210.5zM598 319h235q9 43 10 64.5t-11 34t-31.5 15t-62.5 2.5q-42 0 -65 -4.5t-38 -19.5t-21.5 -33.5t-15.5 -58.5z" />
    <glyph glyph-name="Scaron" unicode="&#x160;" horiz-adv-x="673" 
d="M84 239h144l-8 -35q-13 -62 16 -77t135 -15q95 0 126.5 21.5t45.5 89.5q4 20 4 35t-1.5 25t-10.5 17t-15.5 10.5t-23.5 5.5t-27.5 3t-35 1.5t-38.5 1.5q-122 8 -155 16q-80 21 -94 91q-8 45 7 115q8 38 19.5 68t29 52t34.5 37.5t43.5 25.5t48 16t55.5 9t59 3.5t66 0.5
q31 0 50 -0.5t46 -2.5t43 -5.5t35.5 -10.5t30.5 -17.5t21.5 -25.5t13.5 -35t2.5 -46.5t-7.5 -58.5l-5 -24h-144l5 24q12 57 -11 70.5t-105 13.5q-107 0 -140 -17t-46 -77q-5 -25 -7 -39.5t3.5 -26.5t12.5 -17.5t29 -10t42 -6t63 -4.5q66 -4 101 -7.5t72.5 -12.5t52 -22
t25.5 -37t8.5 -56.5t-12.5 -81.5q-11 -52 -26.5 -90t-39 -63t-48.5 -40.5t-63.5 -23t-74 -10t-89.5 -2.5h-11q-40 0 -60 0.5t-54 2.5t-51 8t-41 15.5t-34 25t-19.5 37t-8.5 52t9 69.5zM509 809l-155 108l35 50l140 -63l167 63l14 -50z" />
    <glyph glyph-name="scaron" unicode="&#x161;" horiz-adv-x="557" 
d="M588 382h-126q3 13 3 23t-1.5 17t-8.5 11.5t-12.5 6.5t-18.5 3.5t-21.5 1.5h-26.5q-26 0 -38.5 -0.5t-30.5 -4t-27.5 -10.5t-18.5 -20.5t-13 -33.5q-8 -38 9.5 -46.5t101.5 -12.5q103 -5 128 -11q72 -17 77 -85q3 -30 -6 -71t-28.5 -70.5t-43.5 -46t-60 -25.5t-68 -11.5
t-78 -2.5h-41.5t-37.5 1t-35 3.5t-29 6.5t-26 10.5t-19 15.5t-14.5 21.5t-6.5 29t-1 37.5t7 46h126q-10 -56 7 -70.5t88 -14.5q31 0 42.5 0.5t32 3.5t28.5 10t17.5 21t13.5 35q5 17 4.5 30t-10.5 22t-36 13.5t-73 5.5q-144 2 -179.5 32t-13.5 131q7 35 20 60.5t34 41.5
t40.5 25.5t53 13.5t57 5t65.5 1h31.5t31 -1t31 -3.5t28 -6t26 -9t21 -13.5t17 -19t10 -25t4 -32t-5.5 -40zM403 584l-155 108l35 50l140 -63l167 63l14 -50z" />
    <glyph glyph-name="Ydieresis" unicode="&#x178;" horiz-adv-x="670" 
d="M840 750l-375 -462l-61 -288h-144l61 288l-173 462h164l110 -320h3l249 320h166zM380 920h99l-19 -88h-99zM584 920h99l-19 -88h-99z" />
    <glyph glyph-name="Zcaron" unicode="&#x17d;" horiz-adv-x="648" 
d="M777 750l-26 -123l-521 -501l-1 -3h420l-26 -123h-598l26 122l518 501l1 4h-394l26 123h575zM496 809l-155 108l35 50l140 -63l167 63l14 -50z" />
    <glyph glyph-name="zcaron" unicode="&#x17e;" horiz-adv-x="475" 
d="M541 420l-352 -324h283l-20 -96h-429l23 108l348 321h-258l21 96h407zM362 584l-155 108l35 50l140 -63l167 63l14 -50z" />
    <glyph glyph-name="florin" unicode="&#x192;" 
d="M788 756l-38 -96q-74 0 -101.5 -13.5t-51.5 -77.5l-33 -83h118l-36 -96h-118l-180 -462q-12 -30 -24 -53t-28.5 -40t-29.5 -28.5t-36 -19t-38.5 -12t-48 -6t-52.5 -2t-63 -0.5l38 96h51.5t34.5 3.5t25.5 7.5t17 16t15.5 24.5l15 37.5l171 438h-90l36 96h90l33 83
q22 56 45 91.5t43 55.5t59 28.5t67 10t93 1.5h16z" />
    <glyph glyph-name="circumflex" unicode="&#x2c6;" horiz-adv-x="506" 
d="M411 742l155 -108l-36 -50l-139 63l-168 -63l-13 50z" />
    <glyph glyph-name="caron" unicode="&#x2c7;" horiz-adv-x="506" 
d="M377 584l-155 108l35 50l140 -63l167 63l14 -50z" />
    <glyph glyph-name="uni02C9" unicode="&#x2c9;" horiz-adv-x="426" 
d="M222 690h276l-16 -76h-276z" />
    <glyph glyph-name="breve" unicode="&#x2d8;" horiz-adv-x="489" 
d="M230 728h66q-2 -37 22 -61.5t63 -24.5q38 0 73 24.5t49 61.5h66q-19 -66 -78 -113t-125 -47q-67 0 -106.5 47t-29.5 113z" />
    <glyph glyph-name="dotaccent" unicode="&#x2d9;" horiz-adv-x="249" 
d="M322 695l-19 -88h-99l19 88h99z" />
    <glyph glyph-name="ring" unicode="&#x2da;" horiz-adv-x="334" 
d="M214 656q8 38 41 65t71 27t59 -27t13 -65t-40.5 -65t-70.5 -27t-59.5 27t-13.5 65zM259 656q-4 -20 7 -33.5t30 -13.5q20 0 36.5 14t20.5 33t-6.5 33t-30.5 14q-19 0 -35.5 -13.5t-21.5 -33.5z" />
    <glyph glyph-name="ogonek" unicode="&#x2db;" horiz-adv-x="313" 
d="M152 4h87l-2 -8q-106 -45 -115 -87q-4 -19 7.5 -29.5t31.5 -10.5q23 0 51 12l-14 -65q-35 -11 -58 -11q-43 0 -70 23.5t-18 65.5q14 62 100 110z" />
    <glyph glyph-name="tilde" unicode="&#x2dc;" horiz-adv-x="537" 
d="M550 704l54 -34q-66 -87 -134 -87q-31 0 -77 27.5t-64 27.5q-32 0 -63 -42l-57 35q66 85 133 85q28 0 75.5 -28.5t66.5 -28.5q30 0 66 45z" />
    <glyph glyph-name="hungarumlaut" unicode="&#x2dd;" horiz-adv-x="538" 
d="M363 761l56 -63l-184 -146l-34 39zM554 761l57 -63l-184 -146l-35 39z" />
    <glyph glyph-name="uni03A9" unicode="&#x3a9;" horiz-adv-x="914" 
d="M258 92v3q-60 48 -91 125.5t-9 178.5q31 147 162 247t298 100q113 0 191 -49.5t106.5 -127.5t9.5 -167q-22 -103 -86 -181.5t-147 -125.5v-3h185l-20 -92h-324l15 70q90 43 157.5 120t91.5 192q23 108 -29.5 190t-168.5 82t-206 -79t-115 -198q-23 -107 12.5 -188
t105.5 -119l-15 -70h-325l20 92h182z" />
    <glyph glyph-name="uni03BC" unicode="&#x3bc;" horiz-adv-x="593" 
d="M531 0h-122l17 81h-4q-55 -87 -184 -87q-28 0 -49 4l-48 -225h-126l160 752h126l-71 -331q-15 -56 -3 -80t69 -24q71 0 106 31t50 101l65 303h126z" />
    <glyph glyph-name="pi" unicode="&#x3c0;" horiz-adv-x="728" 
d="M793 453h-94l-60 -283q-22 -103 -20 -170h-121q-14 29 14 159l62 294h-200q-28 -109 -82 -249.5t-97 -203.5h-122q47 80 100 216t78 237q-93 0 -136 -13v74q57 34 197 34h513z" />
    <glyph glyph-name="uni2010" unicode="&#x2010;" horiz-adv-x="266" 
d="M69 324h266l-21 -96h-266z" />
    <glyph glyph-name="endash" unicode="&#x2013;" horiz-adv-x="500" 
d="M69 324h500l-21 -96h-500z" />
    <glyph glyph-name="emdash" unicode="&#x2014;" horiz-adv-x="1000" 
d="M69 324h1000l-21 -96h-1000z" />
    <glyph glyph-name="quoteleft" unicode="&#x2018;" horiz-adv-x="232" 
d="M345 756l-13 -59q-31 0 -48.5 -14t-25.5 -53h50l-29 -135h-126l25 118q7 31 12 48.5t15.5 38.5t24 31t36.5 17.5t54 7.5h25z" />
    <glyph glyph-name="quoteright" unicode="&#x2019;" horiz-adv-x="232" 
d="M152 489l12 59q31 0 49 14t26 53h-50l28 135h126l-25 -118q-7 -31 -11.5 -48.5t-15 -38.5t-24 -31t-36.5 -17.5t-54 -7.5h-25z" />
    <glyph glyph-name="quotesinglbase" unicode="&#x201a;" horiz-adv-x="252" 
d="M19 -126l13 59q31 0 48.5 14t25.5 53h-50l29 135h126l-25 -118q-7 -31 -12 -48.5t-15.5 -38.5t-24 -31t-36.5 -17.5t-54 -7.5h-25z" />
    <glyph glyph-name="quotedblleft" unicode="&#x201c;" horiz-adv-x="424" 
d="M538 756l-13 -59q-31 0 -48.5 -14t-25.5 -53h50l-29 -135h-126l25 118q7 31 12 48.5t15.5 38.5t24 31t36.5 17.5t54 7.5h25zM345 756l-13 -59q-31 0 -48.5 -14t-25.5 -53h50l-29 -135h-126l25 118q7 31 12 48.5t15.5 38.5t24 31t36.5 17.5t54 7.5h25z" />
    <glyph glyph-name="quotedblright" unicode="&#x201d;" horiz-adv-x="424" 
d="M152 489l12 59q31 0 49 14t26 53h-50l28 135h126l-25 -118q-7 -31 -11.5 -48.5t-15 -38.5t-24 -31t-36.5 -17.5t-54 -7.5h-25zM345 489l12 59q31 0 49 14t26 53h-50l28 135h126l-25 -118q-7 -31 -11.5 -48.5t-15 -38.5t-24 -31t-36.5 -17.5t-54 -7.5h-25z" />
    <glyph glyph-name="quotedblbase" unicode="&#x201e;" horiz-adv-x="424" 
d="M19 -126l13 59q31 0 48.5 14t25.5 53h-50l29 135h126l-25 -118q-7 -31 -12 -48.5t-15.5 -38.5t-24 -31t-36.5 -17.5t-54 -7.5h-25zM210 -126l13 59q31 0 48.5 14t25.5 53h-50l29 135h126l-25 -118q-7 -31 -12 -48.5t-15.5 -38.5t-24 -31t-36.5 -17.5t-54 -7.5h-25z" />
    <glyph glyph-name="dagger" unicode="&#x2020;" 
d="M579 750l-47 -221h193l-23 -109h-193l-137 -647h-136l137 647h-192l23 109h192l47 221h136z" />
    <glyph glyph-name="daggerdbl" unicode="&#x2021;" 
d="M579 750l-50 -236h193l-23 -109h-193l-59 -276h193l-23 -109h-193l-52 -247h-136l52 247h-192l23 109h192l59 276h-192l23 109h192l50 236h136z" />
    <glyph glyph-name="bullet" unicode="&#x2022;" horiz-adv-x="520" 
d="M528 375q-17 -77 -83.5 -132t-144.5 -55t-121 54.5t-26 132.5q15 78 81.5 133t145.5 55q78 0 121.5 -55t26.5 -133z" />
    <glyph glyph-name="ellipsis" unicode="&#x2026;" horiz-adv-x="1000" 
d="M259 137l-29 -137h-126l29 137h126zM592 137l-29 -137h-126l29 137h126zM925 137l-29 -137h-126l29 137h126z" />
    <glyph glyph-name="perthousand" unicode="&#x2030;" horiz-adv-x="1292" 
d="M1321 240l-23 -110q-20 -86 -60.5 -111t-133.5 -25t-120.5 24.5t-11.5 110.5l24 110q20 86 58 111t130 25q32 0 53 -1.5t40 -6.5t29 -14.5t16 -24.5t5.5 -36.5t-6.5 -51.5zM1215 141l20 93q10 46 -1.5 55.5t-65.5 9.5q-50 0 -64 -9.5t-24 -55.5l-20 -93
q-11 -50 -0.5 -60.5t59.5 -10.5q51 0 68 11t28 60zM934 240l-23 -110q-20 -86 -60.5 -111t-133.5 -25t-120.5 24.5t-11.5 110.5l24 110q20 86 58 111t130 25q32 0 53 -1.5t40 -6.5t29 -14.5t16 -24.5t5.5 -36.5t-6.5 -51.5zM828 141l20 93q10 46 -1.5 55.5t-65.5 9.5
q-49 0 -63.5 -9.5t-24.5 -55.5l-20 -93q-11 -50 -0.5 -60.5t59.5 -10.5q51 0 68 11t28 60zM479 621l-23 -110q-20 -86 -60.5 -111t-133.5 -25t-120.5 24.5t-11.5 110.5l24 110q20 86 58 111t130 25q32 0 53 -1.5t40 -6.5t29 -14.5t16 -24.5t5.5 -36.5t-6.5 -51.5zM373 522
l20 93q10 46 -1.5 55.5t-65.5 9.5q-50 0 -64 -9.5t-24 -55.5l-20 -93q-11 -50 -0.5 -60.5t59.5 -10.5q51 0 68 11t28 60zM900 750l-635 -750h-93l633 750h95z" />
    <glyph glyph-name="guilsinglleft" unicode="&#x2039;" horiz-adv-x="325" 
d="M297 539l74 -48l-152 -216l69 -211l-92 -51l-87 262z" />
    <glyph glyph-name="guilsinglright" unicode="&#x203a;" horiz-adv-x="325" 
d="M257 539l75 -264l-198 -262l-69 51l157 211l-61 216z" />
    <glyph glyph-name="fraction" unicode="&#x2044;" horiz-adv-x="564" 
d="M726 750l-635 -750h-93l633 750h95z" />
    <glyph glyph-name="Euro" unicode="&#x20ac;" 
d="M706 234l-36 -166q-42 -42 -90.5 -58t-133.5 -16h-101q-144 0 -183.5 57t-11.5 207h-85l46 89h57l11 54h-84l46 89h58q38 157 113 211.5t225 54.5h66q97 0 142.5 -17t72.5 -67l-71 -138q-13 35 -30.5 56.5t-42 30t-43 10.5t-51.5 2h-69q-92 0 -127 -26.5t-56 -116.5h395
l-46 -89h-369l-11 -54h352l-46 -89h-324q-16 -88 7 -114.5t115 -26.5h69q74 0 122.5 24.5t113.5 92.5z" />
    <glyph glyph-name="afii61289" unicode="&#x2113;" horiz-adv-x="626" 
d="M585 201l44 -51q-121 -152 -284 -152q-93 0 -135 49.5t-38 128.5q0 4 2 10q-13 -8 -38.5 -24t-36.5 -22l-22 64q15 10 54 34t59 37l57 266q30 142 101 208t161 66q83 0 115 -52.5t15 -130.5q-20 -96 -103.5 -187t-233.5 -197l-5 -25q-11 -62 17.5 -96t78.5 -34
q51 0 102.5 32t89.5 76zM369 565l-45 -212q202 160 227 276q22 105 -55 105q-36 0 -72 -40.5t-55 -128.5z" />
    <glyph glyph-name="trademark" unicode="&#x2122;" horiz-adv-x="1000" 
d="M1088 750l-85 -404h-88l69 326h-2l-186 -326h-52l-48 326h-2l-69 -326h-88l85 404h142l41 -239l141 239h142zM573 750l-16 -78h-123l-69 -326h-97l69 326h-123l16 78h343z" />
    <glyph glyph-name="Omega" unicode="&#x2126;" horiz-adv-x="914" 
d="M258 92v3q-60 48 -91 125.5t-9 178.5q31 147 162 247t298 100q113 0 191 -49.5t106.5 -127.5t9.5 -167q-22 -103 -86 -181.5t-147 -125.5v-3h185l-20 -92h-324l15 70q90 43 157.5 120t91.5 192q23 108 -29.5 190t-168.5 82t-206 -79t-115 -198q-23 -107 12.5 -188
t105.5 -119l-15 -70h-325l20 92h182z" />
    <glyph glyph-name="estimated" unicode="&#x212e;" horiz-adv-x="1079" 
d="M1043 364h-685q-6 0 -6 -4v-208q0 -10 9 -23q110 -113 259 -113q80 0 151 33.5t122 92.5h61q-57 -68 -145.5 -107.5t-189.5 -39.5q-175 0 -298.5 111.5t-123.5 268.5q0 103 56.5 191t153.5 139t212 51q176 0 300 -111.5t124 -269.5v-11zM888 391v209q0 14 -11 25
q-110 108 -257 108q-148 0 -258 -112q-10 -10 -10 -26v-204q0 -6 6 -6h525q5 0 5 6z" />
    <glyph glyph-name="partialdiff" unicode="&#x2202;" horiz-adv-x="691" 
d="M268 687l-22 80q106 64 234 64q140 0 212 -109.5t33 -295.5q-39 -182 -157 -305.5t-273 -123.5q-50 0 -89.5 16t-61.5 41.5t-36.5 58.5t-14.5 67.5t5 67.5q24 117 116 192.5t204 75.5q75 0 120.5 -37t59.5 -73h1q5 13 10 42q27 127 -19.5 208.5t-143.5 81.5
q-93 0 -178 -51zM326 90h1q75 0 140.5 66t96.5 154q-5 39 -42 77.5t-98 38.5q-70 0 -129.5 -52t-75.5 -126q-14 -66 16 -112t91 -46z" />
    <glyph glyph-name="uni2206" unicode="&#x2206;" horiz-adv-x="815" 
d="M33 0l15 69l447 684h147l154 -683l-15 -70h-748zM183 93h479l-84 369q-2 11 -17 85.5t-18 101.5h-5q-10 -19 -50.5 -84t-52.5 -85z" />
    <glyph glyph-name="product" unicode="&#x220f;" horiz-adv-x="1029" 
d="M1003 631h-136v-732h-120v732h-309v-732h-120v732h-136v102h821v-102z" />
    <glyph glyph-name="summation" unicode="&#x2211;" horiz-adv-x="846" 
d="M823 -101h-642v70l314 344l-299 342v78h606v-100h-434v-4l268 -302l-290 -321v-4h477v-103z" />
    <glyph glyph-name="minus" unicode="&#x2212;" horiz-adv-x="584" 
d="M100 235l20 96h484l-20 -96h-484z" />
    <glyph glyph-name="uni2215" unicode="&#x2215;" horiz-adv-x="564" 
d="M726 750l-635 -750h-93l633 750h95z" />
    <glyph glyph-name="uni2219" unicode="&#x2219;" horiz-adv-x="352" 
d="M314 352l-29 -137h-126l29 137h126z" />
    <glyph glyph-name="radical" unicode="&#x221a;" horiz-adv-x="868" 
d="M884 872l-279 -1029h-101l-194 474l-90 -35l-22 63l184 75l149 -385q19 -61 23 -75h2q2 7 5.5 22.5t6.5 30t6 26.5l221 833h89z" />
    <glyph glyph-name="infinity" unicode="&#x221e;" horiz-adv-x="1004" 
d="M947 304v-1q0 -85 -54.5 -137.5t-127.5 -52.5q-51 0 -101 31.5t-110 102.5q-55 -65 -103.5 -99.5t-111.5 -34.5q-73 0 -125.5 53t-52.5 132q0 83 53.5 136t133.5 53q60 0 110.5 -35t101.5 -98q61 67 87 88q59 46 126 45q76 0 125 -51t49 -132zM347 180h2q30 0 62 19
t50 36.5t47 50.5q6 7 9 10q-26 33 -38 47.5t-36 37.5t-48.5 32.5t-52.5 9.5q-49 0 -80 -36t-31 -90q0 -48 32.5 -82.5t83.5 -34.5zM765 423h-1q-21 0 -41 -7.5t-39.5 -24t-32 -28.5t-32 -33.5t-24.5 -27.5q58 -67 95 -94.5t79 -27.5q49 0 78 36.5t29 81.5q0 57 -31 91
t-80 34z" />
    <glyph glyph-name="integral" unicode="&#x222b;" horiz-adv-x="593" 
d="M582 887l-16 -76q-20 11 -45 11q-41 0 -62 -27q-37 -41 -37 -181q0 -82 9 -252t9 -261q0 -138 -47 -209q-42 -68 -134 -68q-56 0 -88 19l17 79q31 -14 56 -14q35 0 56 23q39 47 39 172q0 92 -9 265t-9 258q0 89 15.5 143.5t52.5 88.5q44 44 123 44q42 0 70 -15z" />
    <glyph glyph-name="approxequal" unicode="&#x2248;" horiz-adv-x="780" 
d="M685 480l44 -44q-67 -110 -160 -110q-25 0 -49 6.5t-40.5 14.5t-51.5 27q-66 37 -109 37q-37 0 -64 -21t-58 -61l-45 43q28 49 75 79.5t98 30.5q10 0 20.5 -1.5t18.5 -3t18.5 -5t16 -5.5t16 -7.5t14 -7.5t14.5 -8t13 -7q4 -2 17.5 -9.5t17.5 -9.5l14 -7t15.5 -6t14 -4
t16.5 -3.5t17 -0.5q35 0 62 20t55 63zM685 273l44 -44q-66 -108 -161 -108q-24 0 -48 6.5t-41 14.5t-51 26q-68 38 -109 38q-38 0 -64.5 -21t-57.5 -63l-45 44q28 49 75 79.5t98 30.5q14 0 28 -2.5t23.5 -5t23.5 -8t19.5 -8.5t19.5 -10.5t17 -9.5q6 -3 21 -11.5t22.5 -12
t19.5 -8.5t24 -7t25 -2q35 0 61.5 19.5t55.5 62.5z" />
    <glyph glyph-name="notequal" unicode="&#x2260;" horiz-adv-x="803" 
d="M614 557l-51 -108h181v-70h-211l-76 -161h287v-70h-318l-64 -138l-57 27l52 111h-173v70h204l75 161h-279v70h310l62 134z" />
    <glyph glyph-name="lessequal" unicode="&#x2264;" horiz-adv-x="823" 
d="M762 103l-552 252v75l551 251v-80l-474 -207v-2l475 -209v-80zM764 -12h-560v71h560v-71z" />
    <glyph glyph-name="greaterequal" unicode="&#x2265;" horiz-adv-x="822" 
d="M211 681l551 -252v-75l-551 -251v80l474 208v2l-474 208v80zM761 -12h-556v71h556v-71z" />
    <glyph glyph-name="lozenge" unicode="&#x25ca;" horiz-adv-x="870" 
d="M809 366l-247 -421h-95l-245 421l247 421h94zM702 363l-164 286q-15 28 -23 49h-2q-11 -28 -23 -49l-161 -281l165 -287q15 -30 20 -48h4q9 26 21 47z" />
    <glyph glyph-name="fi" unicode="&#xfb01;" horiz-adv-x="584" 
d="M687 750l-22 -107h-126l22 107h126zM640 525l-112 -525h-126l112 525h126zM497 750l-20 -96h-38q-31 1 -50 -4t-30.5 -20t-15.5 -29t-11 -44l-6 -32h128l-21 -96h-128l-91 -429h-126l91 429h-74l21 96h74l9 46q21 99 63.5 139t142.5 40h82z" />
    <glyph glyph-name="fl" unicode="&#xfb02;" horiz-adv-x="596" 
d="M691 750l-159 -750h-126l159 750h126zM454 525l-21 -96h-128l-91 -429h-126l91 429h-74l21 96h74l9 46q21 99 63.5 139t142.5 40h82l-20 -96h-38q-31 1 -50 -4t-30.5 -20t-15.5 -29t-11 -44l-6 -32h128z" />
    <glyph glyph-name="a.superior" horiz-adv-x="440" 
d="M370 435l9 31l-2 2q-14 -17 -33 -26t-33 -10t-40 -1q-61 0 -86.5 21t-12.5 79q12 57 47 78t96 21q78 0 87 -28h2l8 40q3 17 4.5 30t-11.5 21t-42 8q-31 0 -46.5 -7.5t-20.5 -36.5h-86q6 29 19 48.5t26.5 29.5t37.5 15t38.5 5.5t43.5 0.5q25 0 41.5 -1.5t34.5 -5t27 -11
t18 -19.5t8 -29.5t-4 -42.5l-46 -212h-84zM312 486q36 0 54 9t25 39q5 26 -9.5 33.5t-51.5 7.5q-17 0 -25 -0.5t-19.5 -4t-17.5 -12t-9 -22.5q-7 -33 4.5 -41.5t48.5 -8.5z" />
    <glyph glyph-name="o.superior" horiz-adv-x="440" 
d="M381 756q94 0 117.5 -30.5t2.5 -128.5q-11 -49 -21 -76t-30 -50t-53 -31.5t-85 -8.5q-95 0 -117.5 31t-0.5 135q10 47 21 74t31.5 48t52 29t82.5 8zM367 691q-46 0 -60.5 -17.5t-26.5 -76.5q-15 -68 -8.5 -84.5t53.5 -16.5t62.5 21.5t27.5 79.5q14 60 6 77t-54 17z" />
    <glyph glyph-name="one.superior" horiz-adv-x="423" 
d="M470 756l-96 -450h-95l79 373l-142 -117l-37 58l173 136h118z" />
    <glyph glyph-name="two.superior" horiz-adv-x="423" 
d="M455 384l-17 -78h-339l17 82q7 34 19 57t23.5 36.5t35.5 23t42 13.5t57 10q10 2 31 5.5t26 5t17.5 5.5t15.5 8.5t9.5 13.5t9.5 21t7 30q9 41 -3 53.5t-53 12.5q-51 0 -67.5 -13.5t-30.5 -77.5h-95q10 48 19.5 73t31.5 49t59.5 33t98.5 9q87 0 120 -27.5t15 -111.5
t-53.5 -110.5t-129.5 -41.5q-67 -11 -79 -18q-21 -11 -29 -50l-2 -13h244z" />
    <glyph glyph-name="three.superior" horiz-adv-x="423" 
d="M279 495l17 78h65q31 0 43 12t21 53q5 26 -10 33t-69 7q-46 0 -60.5 -12t-24.5 -59h-95q20 93 61 121t136 28h25.5t25.5 -1t25 -2.5t22.5 -4.5t21 -7.5t17 -10.5t13.5 -15t7.5 -20t3.5 -25.5t-4 -31.5q-22 -97 -104 -105v-2q86 -7 67 -99q-10 -45 -28 -72.5t-49 -40
t-60 -16t-80 -3.5q-34 0 -52.5 1t-40 5.5t-31 14.5t-17 27t-6.5 43t9 63h95q-11 -56 -3 -66t62 -10q60 0 79 8t27 46q7 35 -1 49t-43 14h-65z" />
    </font>
</defs>
</svg>
